<?xml version="1.0" encoding="UTF-8" standalone="no"?>
<!DOCTYPE svg PUBLIC "-//W3C//DTD SVG 1.1//EN" "http://www.w3.org/Graphics/SVG/1.1/DTD/svg11.dtd">
<!-- Generated by Microsoft Visio, SVG Export BaseNet.svg Page-1 -->
<svg xmlns="http://www.w3.org/2000/svg" xmlns:xlink="http://www.w3.org/1999/xlink" xmlns:ev="http://www.w3.org/2001/xml-events"
		xmlns:v="http://schemas.microsoft.com/visio/2003/SVGExtensions/" width="7.38194in" height="1.38857in"
		viewBox="0 0 531.5 99.9773" xml:space="preserve" color-interpolation-filters="sRGB" class="st11">
	<v:documentProperties v:langID="1033" v:viewMarkup="false"/>

	<style type="text/css">
	<![CDATA[
		.st1 {stroke:#5592c9;stroke-linecap:round;stroke-linejoin:round;stroke-width:0.5}
		.st2 {fill:#ffffff;stroke:none;stroke-linecap:butt}
		.st3 {fill:#41719d;font-family:Calibri;font-size:1.00001em}
		.st4 {font-size:1em}
		.st5 {marker-end:url(#mrkr4-18);stroke:#5592c9;stroke-linecap:round;stroke-linejoin:round;stroke-width:0.5}
		.st6 {fill:#5592c9;fill-opacity:1;stroke:#5592c9;stroke-opacity:1;stroke-width:0.16556291390728}
		.st7 {fill:#5b9bd5;stroke:#ffffff;stroke-linecap:round;stroke-linejoin:round;stroke-width:0.5}
		.st8 {fill:#aad288;stroke:#ffffff;stroke-linecap:round;stroke-linejoin:round;stroke-width:0.5}
		.st9 {fill:none;stroke:none;stroke-linecap:round;stroke-linejoin:round;stroke-width:0.5}
		.st10 {fill:#000000;font-family:Calibri;font-size:1.00001em}
		.st11 {fill:none;fill-rule:evenodd;font-size:12px;overflow:visible;stroke-linecap:square;stroke-miterlimit:3}
	]]>
	</style>

	<defs id="Markers">
		<g id="lend4">
			<path d="M 2 1 L 0 0 L 2 -1 L 2 1 " style="stroke:none"/>
		</g>
		<marker id="mrkr4-18" class="st6" v:arrowType="4" v:arrowSize="2" v:setback="12.08" refX="-12.08" orient="auto"
				markerUnits="strokeWidth" overflow="visible">
			<use xlink:href="#lend4" transform="scale(-6.04,-6.04) "/>
		</marker>
	</defs>
	<g v:mID="0" v:index="1" v:groupContext="foregroundPage">
		<title>Page-1</title>
		<v:pageProperties v:drawingScale="1" v:pageScale="1" v:drawingUnits="0" v:shadowOffsetX="9" v:shadowOffsetY="-9"/>
		<v:layer v:name="Connector" v:index="0"/>
		<g id="shape7-1" v:mID="7" v:groupContext="shape" transform="translate(0.25,-36)">
			<title>Sheet.7</title>
			<desc>Subnet01 10.10.1.0/24</desc>
			<v:textBlock v:margins="rect(4,4,4,4)"/>
			<v:textRect cx="81" cy="99.9773" width="162" height="0"/>
			<path d="M0 99.98 L162 99.98" class="st1"/>
			<rect v:rectContext="textBkgnd" x="49.8106" y="85.5772" width="62.3787" height="28.8001" class="st2"/>
			<text x="57.71" y="96.38" class="st3" v:langID="1033"><v:paragraph v:horizAlign="1"/><v:tabList/>Subnet01<v:newlineChar/><tspan
						x="49.81" dy="1.2em" class="st4">10.10.1.0/24</tspan></text>		</g>
		<g id="shape8-7" v:mID="8" v:groupContext="shape" transform="translate(369.25,-36)">
			<title>Sheet.8</title>
			<desc>Subnet03 10.10.3.0/24</desc>
			<v:textBlock v:margins="rect(4,4,4,4)"/>
			<v:textRect cx="81" cy="99.9773" width="162" height="0"/>
			<path d="M0 99.98 L162 99.98" class="st1"/>
			<rect v:rectContext="textBkgnd" x="49.8106" y="85.5772" width="62.3787" height="28.8001" class="st2"/>
			<text x="57.71" y="96.38" class="st3" v:langID="1033"><v:paragraph v:horizAlign="1"/><v:tabList/>Subnet03<v:newlineChar/><tspan
						x="49.81" dy="1.2em" class="st4">10.10.3.0/24</tspan></text>		</g>
		<g id="shape9-13" v:mID="9" v:groupContext="shape" v:layerMember="0" transform="translate(162.25,-27)">
			<title>Dynamic connector</title>
			<desc>Subnet02 10.10.2.0/24</desc>
			<v:textBlock v:margins="rect(4,4,4,4)"/>
			<v:textRect cx="103.5" cy="90.9773" width="73.1" height="36.8038"/>
			<path d="M0 90.98 L200.96 90.98" class="st5"/>
			<rect v:rectContext="textBkgnd" x="72.3107" y="76.5774" width="62.3787" height="28.8001" class="st2"/>
			<text x="80.21" y="87.38" class="st3" v:langID="1033"><v:paragraph v:horizAlign="1"/><v:tabList/>Subnet02<v:newlineChar/><tspan
						x="72.31" dy="1.2em" class="st4">10.10.2.0/24</tspan></text>		</g>
		<g id="group1-22" transform="translate(126.25,0)" v:mID="1" v:groupContext="group">
			<v:custProps>
				<v:cp v:nameU="AssetNumber" v:lbl="Asset Number" v:prompt="" v:type="0" v:format="" v:sortKey="Asset"
						v:invis="false" v:ask="false" v:langID="1033" v:cal="0"/>
				<v:cp v:nameU="SerialNumber" v:lbl="Serial Number" v:prompt="" v:type="0" v:format="" v:sortKey="Asset"
						v:invis="false" v:ask="false" v:langID="1033" v:cal="0"/>
				<v:cp v:nameU="Location" v:lbl="Location" v:prompt="" v:type="0" v:format="" v:sortKey="Asset" v:invis="false"
						v:ask="false" v:langID="1033" v:cal="0"/>
				<v:cp v:nameU="Building" v:lbl="Building" v:prompt="" v:type="0" v:format="" v:sortKey="Asset" v:invis="false"
						v:ask="false" v:langID="1033" v:cal="0"/>
				<v:cp v:nameU="Room" v:lbl="Room" v:prompt="" v:type="0" v:format="" v:sortKey="Asset" v:invis="false"
						v:ask="false" v:langID="1033" v:cal="0"/>
				<v:cp v:nameU="Manufacturer" v:lbl="Manufacturer" v:prompt="" v:type="0" v:format="" v:sortKey="Equipment"
						v:invis="false" v:ask="false" v:langID="1033" v:cal="0"/>
				<v:cp v:nameU="ProductNumber" v:lbl="Product Number" v:prompt="" v:type="0" v:format="" v:sortKey="Equipment"
						v:invis="false" v:ask="false" v:langID="1033" v:cal="0"/>
				<v:cp v:nameU="PartNumber" v:lbl="Part Number" v:prompt="" v:type="0" v:format="" v:sortKey="Equipment"
						v:invis="false" v:ask="false" v:langID="1033" v:cal="0"/>
				<v:cp v:nameU="ProductDescription" v:lbl="Product Description" v:prompt="" v:type="0" v:format=""
						v:sortKey="Equipment" v:invis="false" v:ask="false" v:langID="1033" v:cal="0"/>
				<v:cp v:nameU="NetworkName" v:lbl="Network Name" v:prompt="" v:type="0" v:format="" v:sortKey="Network"
						v:invis="false" v:ask="false" v:langID="1033" v:cal="0"/>
				<v:cp v:nameU="IPAddress" v:lbl="IP Address" v:prompt="" v:type="0" v:format="" v:sortKey="Network" v:invis="false"
						v:ask="false" v:langID="1033" v:cal="0"/>
				<v:cp v:nameU="SubnetMask" v:lbl="Subnet Mask" v:prompt="" v:type="0" v:format="" v:sortKey="Network"
						v:invis="false" v:ask="false" v:langID="1033" v:cal="0"/>
				<v:cp v:nameU="AdminInterface" v:lbl="Administrative Interface" v:prompt="" v:type="0" v:format=""
						v:sortKey="Network" v:invis="false" v:ask="false" v:langID="1033" v:cal="0"/>
				<v:cp v:nameU="NumberofPorts" v:lbl="Number of Ports" v:prompt="" v:type="0" v:format="" v:sortKey="Network"
						v:invis="false" v:ask="false" v:langID="1033" v:cal="0"/>
				<v:cp v:nameU="CommunityString" v:lbl="Community String" v:prompt="" v:type="0" v:format="" v:sortKey="Network"
						v:invis="false" v:ask="false" v:langID="1033" v:cal="0"/>
				<v:cp v:nameU="NetworkDescription" v:lbl="Network Description" v:prompt="" v:type="0" v:format=""
						v:sortKey="Network" v:invis="false" v:ask="false" v:langID="1033" v:cal="0"/>
				<v:cp v:nameU="MACAddress" v:lbl="MAC Address" v:prompt="" v:type="0" v:format="" v:sortKey="Network"
						v:invis="false" v:ask="false" v:langID="1033" v:cal="0"/>
				<v:cp v:nameU="ShapeClass" v:lbl="ShapeClass" v:prompt="" v:type="0" v:format="" v:sortKey="" v:invis="true"
						v:ask="false" v:langID="1033" v:cal="0" v:val="VT4(Equipment)"/>
				<v:cp v:nameU="ShapeType" v:lbl="ShapeType" v:prompt="" v:type="0" v:format="" v:sortKey="" v:invis="true"
						v:ask="false" v:langID="1033" v:cal="0" v:val="VT4(Device)"/>
				<v:cp v:nameU="SubShapeType" v:lbl="SubShapeType" v:prompt="" v:type="0" v:format="" v:sortKey="" v:invis="true"
						v:ask="false" v:langID="1033" v:cal="0" v:val="VT4(Router)"/>
			</v:custProps>
			<v:userDefs>
				<v:ud v:nameU="visVersion" v:prompt="" v:val="VT0(15):26"/>
				<v:ud v:nameU="ShapeClass" v:prompt="" v:val="VT0(5):26"/>
				<v:ud v:nameU="SolSH" v:prompt="" v:val="VT15({BF0433D9-CD73-4EB5-8390-8653BE590246}):41"/>
				<v:ud v:nameU="visLegendShape" v:prompt="" v:val="VT0(2):26"/>
			</v:userDefs>
			<title>Router</title>
			<g id="shape2-23" v:mID="2" v:groupContext="shape" transform="translate(0,-0.39861)">
				<title>Sheet.2</title>
				<path d="M0 36.91 L0 91.84 A36 8.134 -180 0 0 72 91.84 L72 36.91 A36 8.134 0 0 1 0 36.91 ZM72 36.91 A36 8.134 -180
							 1 0 0 36.91 A36 8.134 -180 1 0 72 36.91 Z" class="st7"/>
			</g>
			<g id="shape3-25" v:mID="3" v:groupContext="shape" transform="translate(11.3635,-7.6144)">
				<title>Sheet.3</title>
				<path d="M26.67 92.72 L26.67 82.33 L22.49 82.33 L22.49 92.67 L17.61 87.73 L17.61 93.56 L24.6 99.98 L31.6 93.53 L31.6
							 87.75 L26.67 92.72 ZM38.87 82.06 C42.37 82.24 45.88 81.83 49.28 80.84 L49.28 76.66 C45.9 77.64 42.4
							 78.05 38.92 77.88 C40.59 76.33 42.26 74.65 43.91 72.84 C41.96 73.06 39.99 73.09 38.03 72.94 C35.87 75.1
							 33.73 77.05 31.63 78.77 C33.74 81.72 35.89 84.43 38.06 86.93 C40 87.08 41.95 87.05 43.89 86.84 C42.22
							 85.38 40.55 83.79 38.87 82.06 ZM10.4 77.92 C6.91 78.09 3.39 77.69 0 76.7 L0 80.88 C3.38 81.86 6.87 82.27
							 10.35 82.1 C8.69 83.81 7.02 85.39 5.36 86.84 C7.32 87.05 9.29 87.08 11.25 86.93 C13.41 84.43 15.55 81.72
							 17.64 78.78 C15.54 77.05 13.38 75.11 11.22 72.94 C9.27 73.09 7.32 73.06 5.39 72.85 C7.05 74.67 8.73
							 76.36 10.4 77.92 ZM22.57 64.98 L22.57 75.36 L26.75 75.36 L26.75 65.03 L31.63 69.97 L31.63 64.14 L24.64
							 57.72 L17.64 64.17 L17.64 69.95 L22.57 64.98 Z" class="st8"/>
			</g>
		</g>
		<g id="group4-27" transform="translate(333.25,0)" v:mID="4" v:groupContext="group">
			<v:custProps>
				<v:cp v:nameU="AssetNumber" v:lbl="Asset Number" v:prompt="" v:type="0" v:format="" v:sortKey="Asset"
						v:invis="false" v:ask="false" v:langID="1033" v:cal="0"/>
				<v:cp v:nameU="SerialNumber" v:lbl="Serial Number" v:prompt="" v:type="0" v:format="" v:sortKey="Asset"
						v:invis="false" v:ask="false" v:langID="1033" v:cal="0"/>
				<v:cp v:nameU="Location" v:lbl="Location" v:prompt="" v:type="0" v:format="" v:sortKey="Asset" v:invis="false"
						v:ask="false" v:langID="1033" v:cal="0"/>
				<v:cp v:nameU="Building" v:lbl="Building" v:prompt="" v:type="0" v:format="" v:sortKey="Asset" v:invis="false"
						v:ask="false" v:langID="1033" v:cal="0"/>
				<v:cp v:nameU="Room" v:lbl="Room" v:prompt="" v:type="0" v:format="" v:sortKey="Asset" v:invis="false"
						v:ask="false" v:langID="1033" v:cal="0"/>
				<v:cp v:nameU="Manufacturer" v:lbl="Manufacturer" v:prompt="" v:type="0" v:format="" v:sortKey="Equipment"
						v:invis="false" v:ask="false" v:langID="1033" v:cal="0"/>
				<v:cp v:nameU="ProductNumber" v:lbl="Product Number" v:prompt="" v:type="0" v:format="" v:sortKey="Equipment"
						v:invis="false" v:ask="false" v:langID="1033" v:cal="0"/>
				<v:cp v:nameU="PartNumber" v:lbl="Part Number" v:prompt="" v:type="0" v:format="" v:sortKey="Equipment"
						v:invis="false" v:ask="false" v:langID="1033" v:cal="0"/>
				<v:cp v:nameU="ProductDescription" v:lbl="Product Description" v:prompt="" v:type="0" v:format=""
						v:sortKey="Equipment" v:invis="false" v:ask="false" v:langID="1033" v:cal="0"/>
				<v:cp v:nameU="NetworkName" v:lbl="Network Name" v:prompt="" v:type="0" v:format="" v:sortKey="Network"
						v:invis="false" v:ask="false" v:langID="1033" v:cal="0"/>
				<v:cp v:nameU="IPAddress" v:lbl="IP Address" v:prompt="" v:type="0" v:format="" v:sortKey="Network" v:invis="false"
						v:ask="false" v:langID="1033" v:cal="0"/>
				<v:cp v:nameU="SubnetMask" v:lbl="Subnet Mask" v:prompt="" v:type="0" v:format="" v:sortKey="Network"
						v:invis="false" v:ask="false" v:langID="1033" v:cal="0"/>
				<v:cp v:nameU="AdminInterface" v:lbl="Administrative Interface" v:prompt="" v:type="0" v:format=""
						v:sortKey="Network" v:invis="false" v:ask="false" v:langID="1033" v:cal="0"/>
				<v:cp v:nameU="NumberofPorts" v:lbl="Number of Ports" v:prompt="" v:type="0" v:format="" v:sortKey="Network"
						v:invis="false" v:ask="false" v:langID="1033" v:cal="0"/>
				<v:cp v:nameU="CommunityString" v:lbl="Community String" v:prompt="" v:type="0" v:format="" v:sortKey="Network"
						v:invis="false" v:ask="false" v:langID="1033" v:cal="0"/>
				<v:cp v:nameU="NetworkDescription" v:lbl="Network Description" v:prompt="" v:type="0" v:format=""
						v:sortKey="Network" v:invis="false" v:ask="false" v:langID="1033" v:cal="0"/>
				<v:cp v:nameU="MACAddress" v:lbl="MAC Address" v:prompt="" v:type="0" v:format="" v:sortKey="Network"
						v:invis="false" v:ask="false" v:langID="1033" v:cal="0"/>
				<v:cp v:nameU="ShapeClass" v:lbl="ShapeClass" v:prompt="" v:type="0" v:format="" v:sortKey="" v:invis="true"
						v:ask="false" v:langID="1033" v:cal="0" v:val="VT4(Equipment)"/>
				<v:cp v:nameU="ShapeType" v:lbl="ShapeType" v:prompt="" v:type="0" v:format="" v:sortKey="" v:invis="true"
						v:ask="false" v:langID="1033" v:cal="0" v:val="VT4(Device)"/>
				<v:cp v:nameU="SubShapeType" v:lbl="SubShapeType" v:prompt="" v:type="0" v:format="" v:sortKey="" v:invis="true"
						v:ask="false" v:langID="1033" v:cal="0" v:val="VT4(Router)"/>
			</v:custProps>
			<v:userDefs>
				<v:ud v:nameU="visVersion" v:prompt="" v:val="VT0(15):26"/>
				<v:ud v:nameU="ShapeClass" v:prompt="" v:val="VT0(5):26"/>
				<v:ud v:nameU="SolSH" v:prompt="" v:val="VT15({BF0433D9-CD73-4EB5-8390-8653BE590246}):41"/>
				<v:ud v:nameU="visLegendShape" v:prompt="" v:val="VT0(2):26"/>
			</v:userDefs>
			<title>Router.4</title>
			<g id="shape5-28" v:mID="5" v:groupContext="shape" transform="translate(0,-0.39861)">
				<title>Sheet.5</title>
				<path d="M0 36.91 L0 91.84 A36 8.134 -180 0 0 72 91.84 L72 36.91 A36 8.134 0 0 1 0 36.91 ZM72 36.91 A36 8.134 -180
							 1 0 0 36.91 A36 8.134 -180 1 0 72 36.91 Z" class="st7"/>
			</g>
			<g id="shape6-30" v:mID="6" v:groupContext="shape" transform="translate(11.3635,-7.6144)">
				<title>Sheet.6</title>
				<path d="M26.67 92.72 L26.67 82.33 L22.49 82.33 L22.49 92.67 L17.61 87.73 L17.61 93.56 L24.6 99.98 L31.6 93.53 L31.6
							 87.75 L26.67 92.72 ZM38.87 82.06 C42.37 82.24 45.88 81.83 49.28 80.84 L49.28 76.66 C45.9 77.64 42.4
							 78.05 38.92 77.88 C40.59 76.33 42.26 74.65 43.91 72.84 C41.96 73.06 39.99 73.09 38.03 72.94 C35.87 75.1
							 33.73 77.05 31.63 78.77 C33.74 81.72 35.89 84.43 38.06 86.93 C40 87.08 41.95 87.05 43.89 86.84 C42.22
							 85.38 40.55 83.79 38.87 82.06 ZM10.4 77.92 C6.91 78.09 3.39 77.69 0 76.7 L0 80.88 C3.38 81.86 6.87 82.27
							 10.35 82.1 C8.69 83.81 7.02 85.39 5.36 86.84 C7.32 87.05 9.29 87.08 11.25 86.93 C13.41 84.43 15.55 81.72
							 17.64 78.78 C15.54 77.05 13.38 75.11 11.22 72.94 C9.27 73.09 7.32 73.06 5.39 72.85 C7.05 74.67 8.73
							 76.36 10.4 77.92 ZM22.57 64.98 L22.57 75.36 L26.75 75.36 L26.75 65.03 L31.63 69.97 L31.63 64.14 L24.64
							 57.72 L17.64 64.17 L17.64 69.95 L22.57 64.98 Z" class="st8"/>
			</g>
		</g>
		<g id="shape10-32" v:mID="10" v:groupContext="shape" transform="translate(28.25,-62.2727)">
			<title>Sheet.10</title>
			<desc>GigabitEthernet1 10.10.1.4</desc>
			<v:textBlock v:margins="rect(4,4,4,4)"/>
			<v:textRect cx="76" cy="81.6136" width="152" height="36.7273"/>
			<rect x="0" y="63.25" width="152" height="36.7273" class="st9"/>
			<text x="34.24" y="78.01" class="st10" v:langID="1033"><v:paragraph v:horizAlign="1"/><v:tabList/>GigabitEthernet1<v:newlineChar/><tspan
						x="53.21" dy="1.2em" class="st4">10.10.1.4</tspan></text>		</g>
		<g id="shape12-36" v:mID="12" v:groupContext="shape" transform="translate(140.25,-63)">
			<title>Sheet.12</title>
			<desc>GigabitEthernet2 10.10.2.4</desc>
			<v:textBlock v:margins="rect(4,4,4,4)"/>
			<v:textRect cx="76" cy="81.6136" width="152" height="36.7273"/>
			<rect x="0" y="63.25" width="152" height="36.7273" class="st9"/>
			<text x="34.24" y="78.01" class="st10" v:langID="1033"><v:paragraph v:horizAlign="1"/><v:tabList/>GigabitEthernet2<v:newlineChar/><tspan
						x="53.21" dy="1.2em" class="st4">10.10.2.4</tspan></text>		</g>
		<g id="shape13-40" v:mID="13" v:groupContext="shape" transform="translate(352.25,-62.2727)">
			<title>Sheet.13</title>
			<desc>GigabitEthernet1 10.10.3.4</desc>
			<v:textBlock v:margins="rect(4,4,4,4)"/>
			<v:textRect cx="76" cy="81.6136" width="152" height="36.7273"/>
			<rect x="0" y="63.25" width="152" height="36.7273" class="st9"/>
			<text x="34.24" y="78.01" class="st10" v:langID="1033"><v:paragraph v:horizAlign="1"/><v:tabList/>GigabitEthernet1<v:newlineChar/><tspan
						x="53.21" dy="1.2em" class="st4">10.10.3.4</tspan></text>		</g>
		<g id="shape14-44" v:mID="14" v:groupContext="shape" transform="translate(239.25,-63)">
			<title>Sheet.14</title>
			<desc>GigabitEthernet2 10.10.2.5</desc>
			<v:textBlock v:margins="rect(4,4,4,4)"/>
			<v:textRect cx="76" cy="81.6136" width="152" height="36.7273"/>
			<rect x="0" y="63.25" width="152" height="36.7273" class="st9"/>
			<text x="34.24" y="78.01" class="st10" v:langID="1033"><v:paragraph v:horizAlign="1"/><v:tabList/>GigabitEthernet2<v:newlineChar/><tspan
						x="53.21" dy="1.2em" class="st4">10.10.2.5</tspan></text>		</g>
	</g>
</svg>
