<?xml version="1.0" encoding="UTF-8" standalone="no"?>
<!DOCTYPE svg PUBLIC "-//W3C//DTD SVG 1.1//EN" "http://www.w3.org/Graphics/SVG/1.1/DTD/svg11.dtd">
<!-- Generated by Microsoft Visio, SVG Export NetworkDesign.svg Page-1 -->
<svg xmlns="http://www.w3.org/2000/svg" xmlns:xlink="http://www.w3.org/1999/xlink" xmlns:ev="http://www.w3.org/2001/xml-events"
		xmlns:v="http://schemas.microsoft.com/visio/2003/SVGExtensions/" width="11in" height="8.5in" viewBox="0 0 792 612"
		xml:space="preserve" color-interpolation-filters="sRGB" class="st11">
	<v:documentProperties v:langID="1033" v:viewMarkup="false">
		<v:userDefs>
			<v:ud v:nameU="msvNoAutoConnect" v:prompt="" v:val="VT0(0):26"/>
		</v:userDefs>
	</v:documentProperties>

	<style type="text/css">
	<![CDATA[
		.st1 {stroke:#5592c9;stroke-linecap:round;stroke-linejoin:round;stroke-width:0.5}
		.st2 {fill:#ffffff;stroke:none;stroke-linecap:butt;stroke-width:7.2}
		.st3 {fill:#41719d;font-family:Calibri;font-size:1.00001em}
		.st4 {font-size:1em}
		.st5 {marker-end:url(#mrkr4-18);stroke:#5592c9;stroke-linecap:round;stroke-linejoin:round;stroke-width:0.5}
		.st6 {fill:#5592c9;fill-opacity:1;stroke:#5592c9;stroke-opacity:1;stroke-width:0.16556291390728}
		.st7 {fill:#5b9bd5;stroke:#ffffff;stroke-linecap:round;stroke-linejoin:round;stroke-width:0.5}
		.st8 {fill:#aad288;stroke:#ffffff;stroke-linecap:round;stroke-linejoin:round;stroke-width:0.5}
		.st9 {fill:none;stroke:none;stroke-linecap:round;stroke-linejoin:round;stroke-width:0.5}
		.st10 {fill:#000000;font-family:Calibri;font-size:1.00001em}
		.st11 {fill:none;fill-rule:evenodd;font-size:12px;overflow:visible;stroke-linecap:square;stroke-miterlimit:3}
	]]>
	</style>

	<defs id="Markers">
		<g id="lend4">
			<path d="M 2 1 L 0 0 L 2 -1 L 2 1 " style="stroke:none"/>
		</g>
		<marker id="mrkr4-18" class="st6" v:arrowType="4" v:arrowSize="2" v:setback="12.08" refX="-12.08" orient="auto"
				markerUnits="strokeWidth" overflow="visible">
			<use xlink:href="#lend4" transform="scale(-6.04,-6.04) "/>
		</marker>
	</defs>
	<g v:mID="0" v:index="1" v:groupContext="foregroundPage">
		<v:userDefs>
			<v:ud v:nameU="msvThemeOrder" v:val="VT0(0):26"/>
		</v:userDefs>
		<title>Page-1</title>
		<v:pageProperties v:drawingScale="1" v:pageScale="1" v:drawingUnits="0" v:shadowOffsetX="9" v:shadowOffsetY="-9"/>
		<v:layer v:name="Connector" v:index="0"/>
		<g id="shape7-1" v:mID="7" v:groupContext="shape" transform="translate(162,-333)">
			<title>Sheet.7</title>
			<desc>Subnet01 10.10.1.0/24</desc>
			<v:textBlock v:margins="rect(4,4,4,4)"/>
			<v:textRect cx="81" cy="612" width="162" height="0"/>
			<path d="M0 612 L162 612" class="st1"/>
			<rect v:rectContext="textBkgnd" x="49.8106" y="597.6" width="62.3787" height="28.8001" class="st2"/>
			<text x="57.71" y="608.4" class="st3" v:langID="1033"><v:paragraph v:horizAlign="1"/><v:tabList/>Subnet01<v:newlineChar/><tspan
						x="49.81" dy="1.2em" class="st4">10.10.1.0/24</tspan></text>		</g>
		<g id="shape8-7" v:mID="8" v:groupContext="shape" transform="translate(531,-333)">
			<title>Sheet.8</title>
			<desc>Subnet03 10.10.3.0/24</desc>
			<v:textBlock v:margins="rect(4,4,4,4)"/>
			<v:textRect cx="81" cy="612" width="162" height="0"/>
			<path d="M0 612 L162 612" class="st1"/>
			<rect v:rectContext="textBkgnd" x="49.8106" y="597.6" width="62.3787" height="28.8001" class="st2"/>
			<text x="57.71" y="608.4" class="st3" v:langID="1033"><v:paragraph v:horizAlign="1"/><v:tabList/>Subnet03<v:newlineChar/><tspan
						x="49.81" dy="1.2em" class="st4">10.10.3.0/24</tspan></text>		</g>
		<g id="shape9-13" v:mID="9" v:groupContext="shape" v:layerMember="0" transform="translate(324,-324)">
			<title>Dynamic connector</title>
			<desc>Subnet02 10.10.2.0/24</desc>
			<v:textBlock v:margins="rect(4,4,4,4)"/>
			<v:textRect cx="103.5" cy="603" width="73.1" height="36.8038"/>
			<path d="M0 603 L200.96 603" class="st5"/>
			<rect v:rectContext="textBkgnd" x="72.3107" y="588.6" width="62.3787" height="28.8001" class="st2"/>
			<text x="80.21" y="599.4" class="st3" v:langID="1033"><v:paragraph v:horizAlign="1"/><v:tabList/>Subnet02<v:newlineChar/><tspan
						x="72.31" dy="1.2em" class="st4">10.10.2.0/24</tspan></text>		</g>
		<g id="group1-22" transform="translate(288,-297)" v:mID="1" v:groupContext="group">
			<v:custProps>
				<v:cp v:nameU="AssetNumber" v:lbl="Asset Number" v:prompt="" v:type="0" v:format="" v:sortKey="Asset"
						v:invis="false" v:ask="false" v:langID="1033" v:cal="0"/>
				<v:cp v:nameU="SerialNumber" v:lbl="Serial Number" v:prompt="" v:type="0" v:format="" v:sortKey="Asset"
						v:invis="false" v:ask="false" v:langID="1033" v:cal="0"/>
				<v:cp v:nameU="Location" v:lbl="Location" v:prompt="" v:type="0" v:format="" v:sortKey="Asset" v:invis="false"
						v:ask="false" v:langID="1033" v:cal="0"/>
				<v:cp v:nameU="Building" v:lbl="Building" v:prompt="" v:type="0" v:format="" v:sortKey="Asset" v:invis="false"
						v:ask="false" v:langID="1033" v:cal="0"/>
				<v:cp v:nameU="Room" v:lbl="Room" v:prompt="" v:type="0" v:format="" v:sortKey="Asset" v:invis="false"
						v:ask="false" v:langID="1033" v:cal="0"/>
				<v:cp v:nameU="Manufacturer" v:lbl="Manufacturer" v:prompt="" v:type="0" v:format="" v:sortKey="Equipment"
						v:invis="false" v:ask="false" v:langID="1033" v:cal="0"/>
				<v:cp v:nameU="ProductNumber" v:lbl="Product Number" v:prompt="" v:type="0" v:format="" v:sortKey="Equipment"
						v:invis="false" v:ask="false" v:langID="1033" v:cal="0"/>
				<v:cp v:nameU="PartNumber" v:lbl="Part Number" v:prompt="" v:type="0" v:format="" v:sortKey="Equipment"
						v:invis="false" v:ask="false" v:langID="1033" v:cal="0"/>
				<v:cp v:nameU="ProductDescription" v:lbl="Product Description" v:prompt="" v:type="0" v:format=""
						v:sortKey="Equipment" v:invis="false" v:ask="false" v:langID="1033" v:cal="0"/>
				<v:cp v:nameU="NetworkName" v:lbl="Network Name" v:prompt="" v:type="0" v:format="" v:sortKey="Network"
						v:invis="false" v:ask="false" v:langID="1033" v:cal="0"/>
				<v:cp v:nameU="IPAddress" v:lbl="IP Address" v:prompt="" v:type="0" v:format="" v:sortKey="Network" v:invis="false"
						v:ask="false" v:langID="1033" v:cal="0"/>
				<v:cp v:nameU="SubnetMask" v:lbl="Subnet Mask" v:prompt="" v:type="0" v:format="" v:sortKey="Network"
						v:invis="false" v:ask="false" v:langID="1033" v:cal="0"/>
				<v:cp v:nameU="AdminInterface" v:lbl="Administrative Interface" v:prompt="" v:type="0" v:format=""
						v:sortKey="Network" v:invis="false" v:ask="false" v:langID="1033" v:cal="0"/>
				<v:cp v:nameU="NumberofPorts" v:lbl="Number of Ports" v:prompt="" v:type="0" v:format="" v:sortKey="Network"
						v:invis="false" v:ask="false" v:langID="1033" v:cal="0"/>
				<v:cp v:nameU="CommunityString" v:lbl="Community String" v:prompt="" v:type="0" v:format="" v:sortKey="Network"
						v:invis="false" v:ask="false" v:langID="1033" v:cal="0"/>
				<v:cp v:nameU="NetworkDescription" v:lbl="Network Description" v:prompt="" v:type="0" v:format=""
						v:sortKey="Network" v:invis="false" v:ask="false" v:langID="1033" v:cal="0"/>
				<v:cp v:nameU="MACAddress" v:lbl="MAC Address" v:prompt="" v:type="0" v:format="" v:sortKey="Network"
						v:invis="false" v:ask="false" v:langID="1033" v:cal="0"/>
				<v:cp v:nameU="ShapeClass" v:lbl="ShapeClass" v:prompt="" v:type="0" v:format="" v:sortKey="" v:invis="true"
						v:ask="false" v:langID="1033" v:cal="0" v:val="VT4(Equipment)"/>
				<v:cp v:nameU="ShapeType" v:lbl="ShapeType" v:prompt="" v:type="0" v:format="" v:sortKey="" v:invis="true"
						v:ask="false" v:langID="1033" v:cal="0" v:val="VT4(Device)"/>
				<v:cp v:nameU="SubShapeType" v:lbl="SubShapeType" v:prompt="" v:type="0" v:format="" v:sortKey="" v:invis="true"
						v:ask="false" v:langID="1033" v:cal="0" v:val="VT4(Router)"/>
			</v:custProps>
			<v:userDefs>
				<v:ud v:nameU="visVersion" v:prompt="" v:val="VT0(15):26"/>
				<v:ud v:nameU="ShapeClass" v:prompt="" v:val="VT0(5):26"/>
				<v:ud v:nameU="SolSH" v:prompt="" v:val="VT15({BF0433D9-CD73-4EB5-8390-8653BE590246}):41"/>
				<v:ud v:nameU="visLegendShape" v:prompt="" v:val="VT0(2):26"/>
			</v:userDefs>
			<title>Router</title>
			<g id="shape2-23" v:mID="2" v:groupContext="shape" transform="translate(0,-0.39861)">
				<title>Sheet.2</title>
				<path d="M0 548.93 L0 603.87 A36 8.134 -180 0 0 72 603.87 L72 548.93 A36 8.134 0 0 1 0 548.93 ZM72 548.93 A36 8.134
							 -180 1 0 0 548.93 A36 8.134 -180 1 0 72 548.93 Z" class="st7"/>
			</g>
			<g id="shape3-25" v:mID="3" v:groupContext="shape" transform="translate(11.3635,-7.6144)">
				<title>Sheet.3</title>
				<path d="M26.67 604.74 L26.67 594.36 L22.49 594.36 L22.49 604.69 L17.61 599.75 L17.61 605.58 L24.6 612 L31.6 605.55
							 L31.6 599.77 L26.67 604.74 ZM38.87 594.08 C42.37 594.26 45.88 593.85 49.28 592.87 L49.28 588.68 C45.9
							 589.66 42.4 590.07 38.92 589.9 C40.59 588.36 42.26 586.67 43.91 584.87 C41.96 585.08 39.99 585.11 38.03
							 584.96 C35.87 587.13 33.73 589.07 31.63 590.79 C33.74 593.74 35.89 596.46 38.06 598.95 C40 599.1 41.95
							 599.07 43.89 598.86 C42.22 597.4 40.55 595.81 38.87 594.08 ZM10.4 589.94 C6.91 590.12 3.39 589.71 0
							 588.73 L0 592.91 C3.38 593.89 6.87 594.29 10.35 594.12 C8.69 595.83 7.02 597.41 5.36 598.86 C7.32 599.07
							 9.29 599.11 11.25 598.95 C13.41 596.46 15.55 593.74 17.64 590.8 C15.54 589.08 13.38 587.13 11.22 584.97
							 C9.27 585.11 7.32 585.08 5.39 584.87 C7.05 586.69 8.73 588.38 10.4 589.94 ZM22.57 577 L22.57 587.39
							 L26.75 587.39 L26.75 577.05 L31.63 581.99 L31.63 576.16 L24.64 569.75 L17.64 576.19 L17.64 581.97 L22.57
							 577 Z" class="st8"/>
			</g>
		</g>
		<g id="group4-27" transform="translate(495,-297)" v:mID="4" v:groupContext="group">
			<v:custProps>
				<v:cp v:nameU="AssetNumber" v:lbl="Asset Number" v:prompt="" v:type="0" v:format="" v:sortKey="Asset"
						v:invis="false" v:ask="false" v:langID="1033" v:cal="0"/>
				<v:cp v:nameU="SerialNumber" v:lbl="Serial Number" v:prompt="" v:type="0" v:format="" v:sortKey="Asset"
						v:invis="false" v:ask="false" v:langID="1033" v:cal="0"/>
				<v:cp v:nameU="Location" v:lbl="Location" v:prompt="" v:type="0" v:format="" v:sortKey="Asset" v:invis="false"
						v:ask="false" v:langID="1033" v:cal="0"/>
				<v:cp v:nameU="Building" v:lbl="Building" v:prompt="" v:type="0" v:format="" v:sortKey="Asset" v:invis="false"
						v:ask="false" v:langID="1033" v:cal="0"/>
				<v:cp v:nameU="Room" v:lbl="Room" v:prompt="" v:type="0" v:format="" v:sortKey="Asset" v:invis="false"
						v:ask="false" v:langID="1033" v:cal="0"/>
				<v:cp v:nameU="Manufacturer" v:lbl="Manufacturer" v:prompt="" v:type="0" v:format="" v:sortKey="Equipment"
						v:invis="false" v:ask="false" v:langID="1033" v:cal="0"/>
				<v:cp v:nameU="ProductNumber" v:lbl="Product Number" v:prompt="" v:type="0" v:format="" v:sortKey="Equipment"
						v:invis="false" v:ask="false" v:langID="1033" v:cal="0"/>
				<v:cp v:nameU="PartNumber" v:lbl="Part Number" v:prompt="" v:type="0" v:format="" v:sortKey="Equipment"
						v:invis="false" v:ask="false" v:langID="1033" v:cal="0"/>
				<v:cp v:nameU="ProductDescription" v:lbl="Product Description" v:prompt="" v:type="0" v:format=""
						v:sortKey="Equipment" v:invis="false" v:ask="false" v:langID="1033" v:cal="0"/>
				<v:cp v:nameU="NetworkName" v:lbl="Network Name" v:prompt="" v:type="0" v:format="" v:sortKey="Network"
						v:invis="false" v:ask="false" v:langID="1033" v:cal="0"/>
				<v:cp v:nameU="IPAddress" v:lbl="IP Address" v:prompt="" v:type="0" v:format="" v:sortKey="Network" v:invis="false"
						v:ask="false" v:langID="1033" v:cal="0"/>
				<v:cp v:nameU="SubnetMask" v:lbl="Subnet Mask" v:prompt="" v:type="0" v:format="" v:sortKey="Network"
						v:invis="false" v:ask="false" v:langID="1033" v:cal="0"/>
				<v:cp v:nameU="AdminInterface" v:lbl="Administrative Interface" v:prompt="" v:type="0" v:format=""
						v:sortKey="Network" v:invis="false" v:ask="false" v:langID="1033" v:cal="0"/>
				<v:cp v:nameU="NumberofPorts" v:lbl="Number of Ports" v:prompt="" v:type="0" v:format="" v:sortKey="Network"
						v:invis="false" v:ask="false" v:langID="1033" v:cal="0"/>
				<v:cp v:nameU="CommunityString" v:lbl="Community String" v:prompt="" v:type="0" v:format="" v:sortKey="Network"
						v:invis="false" v:ask="false" v:langID="1033" v:cal="0"/>
				<v:cp v:nameU="NetworkDescription" v:lbl="Network Description" v:prompt="" v:type="0" v:format=""
						v:sortKey="Network" v:invis="false" v:ask="false" v:langID="1033" v:cal="0"/>
				<v:cp v:nameU="MACAddress" v:lbl="MAC Address" v:prompt="" v:type="0" v:format="" v:sortKey="Network"
						v:invis="false" v:ask="false" v:langID="1033" v:cal="0"/>
				<v:cp v:nameU="ShapeClass" v:lbl="ShapeClass" v:prompt="" v:type="0" v:format="" v:sortKey="" v:invis="true"
						v:ask="false" v:langID="1033" v:cal="0" v:val="VT4(Equipment)"/>
				<v:cp v:nameU="ShapeType" v:lbl="ShapeType" v:prompt="" v:type="0" v:format="" v:sortKey="" v:invis="true"
						v:ask="false" v:langID="1033" v:cal="0" v:val="VT4(Device)"/>
				<v:cp v:nameU="SubShapeType" v:lbl="SubShapeType" v:prompt="" v:type="0" v:format="" v:sortKey="" v:invis="true"
						v:ask="false" v:langID="1033" v:cal="0" v:val="VT4(Router)"/>
			</v:custProps>
			<v:userDefs>
				<v:ud v:nameU="visVersion" v:prompt="" v:val="VT0(15):26"/>
				<v:ud v:nameU="ShapeClass" v:prompt="" v:val="VT0(5):26"/>
				<v:ud v:nameU="SolSH" v:prompt="" v:val="VT15({BF0433D9-CD73-4EB5-8390-8653BE590246}):41"/>
				<v:ud v:nameU="visLegendShape" v:prompt="" v:val="VT0(2):26"/>
			</v:userDefs>
			<title>Router.4</title>
			<g id="shape5-28" v:mID="5" v:groupContext="shape" transform="translate(0,-0.39861)">
				<title>Sheet.5</title>
				<path d="M0 548.93 L0 603.87 A36 8.134 -180 0 0 72 603.87 L72 548.93 A36 8.134 0 0 1 0 548.93 ZM72 548.93 A36 8.134
							 -180 1 0 0 548.93 A36 8.134 -180 1 0 72 548.93 Z" class="st7"/>
			</g>
			<g id="shape6-30" v:mID="6" v:groupContext="shape" transform="translate(11.3635,-7.6144)">
				<title>Sheet.6</title>
				<path d="M26.67 604.74 L26.67 594.36 L22.49 594.36 L22.49 604.69 L17.61 599.75 L17.61 605.58 L24.6 612 L31.6 605.55
							 L31.6 599.77 L26.67 604.74 ZM38.87 594.08 C42.37 594.26 45.88 593.85 49.28 592.87 L49.28 588.68 C45.9
							 589.66 42.4 590.07 38.92 589.9 C40.59 588.36 42.26 586.67 43.91 584.87 C41.96 585.08 39.99 585.11 38.03
							 584.96 C35.87 587.13 33.73 589.07 31.63 590.79 C33.74 593.74 35.89 596.46 38.06 598.95 C40 599.1 41.95
							 599.07 43.89 598.86 C42.22 597.4 40.55 595.81 38.87 594.08 ZM10.4 589.94 C6.91 590.12 3.39 589.71 0
							 588.73 L0 592.91 C3.38 593.89 6.87 594.29 10.35 594.12 C8.69 595.83 7.02 597.41 5.36 598.86 C7.32 599.07
							 9.29 599.11 11.25 598.95 C13.41 596.46 15.55 593.74 17.64 590.8 C15.54 589.08 13.38 587.13 11.22 584.97
							 C9.27 585.11 7.32 585.08 5.39 584.87 C7.05 586.69 8.73 588.38 10.4 589.94 ZM22.57 577 L22.57 587.39
							 L26.75 587.39 L26.75 577.05 L31.63 581.99 L31.63 576.16 L24.64 569.75 L17.64 576.19 L17.64 581.97 L22.57
							 577 Z" class="st8"/>
			</g>
		</g>
		<g id="shape10-32" v:mID="10" v:groupContext="shape" transform="translate(190,-359.273)">
			<title>Sheet.10</title>
			<desc>GigabitEthernet1 10.10.1.4</desc>
			<v:textBlock v:margins="rect(4,4,4,4)"/>
			<v:textRect cx="76" cy="593.636" width="152" height="36.7273"/>
			<rect x="0" y="575.273" width="152" height="36.7273" class="st9"/>
			<text x="34.24" y="590.04" class="st10" v:langID="1033"><v:paragraph v:horizAlign="1"/><v:tabList/>GigabitEthernet1<v:newlineChar/><tspan
						x="53.21" dy="1.2em" class="st4">10.10.1.4</tspan></text>		</g>
		<g id="shape12-36" v:mID="12" v:groupContext="shape" transform="translate(302,-360)">
			<title>Sheet.12</title>
			<desc>GigabitEthernet2 10.10.2.4</desc>
			<v:textBlock v:margins="rect(4,4,4,4)"/>
			<v:textRect cx="76" cy="593.636" width="152" height="36.7273"/>
			<rect x="0" y="575.273" width="152" height="36.7273" class="st9"/>
			<text x="34.24" y="590.04" class="st10" v:langID="1033"><v:paragraph v:horizAlign="1"/><v:tabList/>GigabitEthernet2<v:newlineChar/><tspan
						x="53.21" dy="1.2em" class="st4">10.10.2.4</tspan></text>		</g>
		<g id="shape13-40" v:mID="13" v:groupContext="shape" transform="translate(514,-359.273)">
			<title>Sheet.13</title>
			<desc>GigabitEthernet1 10.10.3.4</desc>
			<v:textBlock v:margins="rect(4,4,4,4)"/>
			<v:textRect cx="76" cy="593.636" width="152" height="36.7273"/>
			<rect x="0" y="575.273" width="152" height="36.7273" class="st9"/>
			<text x="34.24" y="590.04" class="st10" v:langID="1033"><v:paragraph v:horizAlign="1"/><v:tabList/>GigabitEthernet1<v:newlineChar/><tspan
						x="53.21" dy="1.2em" class="st4">10.10.3.4</tspan></text>		</g>
		<g id="shape14-44" v:mID="14" v:groupContext="shape" transform="translate(401,-360)">
			<title>Sheet.14</title>
			<desc>GigabitEthernet2 10.10.2.5</desc>
			<v:textBlock v:margins="rect(4,4,4,4)"/>
			<v:textRect cx="76" cy="593.636" width="152" height="36.7273"/>
			<rect x="0" y="575.273" width="152" height="36.7273" class="st9"/>
			<text x="34.24" y="590.04" class="st10" v:langID="1033"><v:paragraph v:horizAlign="1"/><v:tabList/>GigabitEthernet2<v:newlineChar/><tspan
						x="53.21" dy="1.2em" class="st4">10.10.2.5</tspan></text>		</g>
	</g>
</svg>
