<?xml version="1.0" encoding="UTF-8" standalone="no"?>
<!DOCTYPE svg PUBLIC "-//W3C//DTD SVG 1.1//EN" "http://www.w3.org/Graphics/SVG/1.1/DTD/svg11.dtd">
<!-- Generated by Microsoft Visio, SVG Export IPassignments.svg IP Assignments -->
<svg xmlns="http://www.w3.org/2000/svg" xmlns:xlink="http://www.w3.org/1999/xlink" xmlns:ev="http://www.w3.org/2001/xml-events"
		xmlns:v="http://schemas.microsoft.com/visio/2003/SVGExtensions/" width="11in" height="8.5in" viewBox="0 0 792 612"
		xml:space="preserve" color-interpolation-filters="sRGB" class="st28">
	<v:documentProperties v:langID="1033" v:viewMarkup="false">
		<v:userDefs>
			<v:ud v:nameU="msvNoAutoConnect" v:prompt="" v:val="VT0(0):26"/>
		</v:userDefs>
	</v:documentProperties>

	<style type="text/css">
	<![CDATA[
		.st1 {stroke:#0078d7;stroke-dasharray:0,2.04446;stroke-linecap:round;stroke-linejoin:round;stroke-width:0.681487}
		.st2 {fill:#0078d7}
		.st3 {fill:#0078d7;font-family:Calibri;font-size:0.432152em}
		.st4 {stroke:#0078d7;stroke-dasharray:0,2.74085;stroke-linecap:round;stroke-linejoin:round;stroke-width:0.913618}
		.st5 {fill:#0078d7;font-family:Calibri;font-size:0.881081em}
		.st6 {stroke:#0078d7;stroke-dasharray:0,2.09783;stroke-linecap:round;stroke-linejoin:round;stroke-width:0.699275}
		.st7 {fill:#0078d7;font-family:Calibri;font-size:0.544716em}
		.st8 {fill:none;stroke:none;stroke-linecap:round;stroke-linejoin:round;stroke-width:0.5}
		.st9 {fill:#5b9bd5;font-family:Calibri;font-size:0.75em}
		.st10 {fill:#000000;font-family:Calibri;font-size:1.00001em}
		.st11 {fill:none;stroke:#5b9bd5;stroke-dasharray:7.5,4.5;stroke-linecap:round;stroke-linejoin:round;stroke-width:0.5}
		.st12 {stroke:#0078d7;stroke-dasharray:0,2.01268;stroke-linecap:round;stroke-linejoin:round;stroke-width:0.670895}
		.st13 {fill:#0078d7;font-family:Calibri;font-size:0.5625em}
		.st14 {fill:#ffffff;font-family:Calibri;font-size:1.00001em}
		.st15 {stroke:#0078d7;stroke-dasharray:0,2.0507;stroke-linecap:round;stroke-linejoin:round;stroke-width:0.683567}
		.st16 {fill:#0078d7;font-family:Calibri;font-size:0.451859em}
		.st17 {fill:#949494;stroke:none;stroke-linecap:butt;stroke-width:0.5}
		.st18 {fill:#a3a3a3;stroke:none;stroke-linecap:butt;stroke-width:0.5}
		.st19 {fill:#32bedd;stroke:none;stroke-linecap:butt;stroke-width:0.5}
		.st20 {fill:#9cebff;stroke:none;stroke-linecap:butt;stroke-width:0.5}
		.st21 {fill:#50e6ff;stroke:none;stroke-linecap:butt;stroke-width:0.5}
		.st22 {fill:#ffffff;stroke:none;stroke-linecap:butt;stroke-width:7.2}
		.st23 {fill:#0070c0;font-family:Calibri;font-size:0.75em}
		.st24 {font-size:1em}
		.st25 {fill:#ff0000;font-family:Calibri;font-size:1.00001em}
		.st26 {font-family:Consolas;font-size:1em}
		.st27 {fill:#ff0000;font-family:Consolas;font-size:1.00001em}
		.st28 {fill:none;fill-rule:evenodd;font-size:12px;overflow:visible;stroke-linecap:square;stroke-miterlimit:3}
	]]>
	</style>

	<g v:mID="23" v:index="12" v:groupContext="foregroundPage">
		<v:userDefs>
			<v:ud v:nameU="msvThemeOrder" v:val="VT0(0):26"/>
		</v:userDefs>
		<title>IP Assignments</title>
		<v:pageProperties v:drawingScale="1" v:pageScale="1" v:drawingUnits="0" v:shadowOffsetX="9" v:shadowOffsetY="-9"/>
		<v:layer v:name="Connector" v:index="0"/>
		<v:layer v:name="Annotations" v:index="1"/>
		<g id="group1-1" transform="translate(346.98,-116.871)" v:mID="1" v:groupContext="group">
			<title>Smart Virtual Network Box</title>
			<g id="shape2-2" v:mID="2" v:groupContext="shape" transform="translate(0,-3.9523)">
				<title>Virtual Network Box 1</title>
				<path d="M125.91 612 L0 612 L0 532.62 L136.12 532.62 L136.12 608.19" class="st1"/>
			</g>
			<g id="shape3-5" v:mID="3" v:groupContext="shape" transform="translate(119.999,-0.446392)">
				<title>Sheet.3</title>
				<desc>Virtual Network</desc>
				<v:textBlock v:margins="rect(0,0,0,0)"/>
				<v:textRect cx="-48.728" cy="616.344" width="122.81" height="7.01182"/>
				<path d="M0 608.49 L3.51 612 L3.93 611.54 L0.88 608.49 L3.93 605.45 L3.51 604.99 L0 608.49 ZM12.94 608.49 L9.44 604.99
							 L9.01 605.45 L12.06 608.49 L9.01 611.54 L9.44 612 L12.94 608.49 ZM9.63 608.49 a0.786398 0.786373 -180
							 1 0 -1.5728 0 a0.786398 0.786373 -180 1 0 1.5728 0 ZM4.13 609.28 C4.55 609.28 4.91 608.92 4.91 608.49
							 C4.91 608.04 4.55 607.71 4.13 607.71 C3.7 607.71 3.34 608.07 3.34 608.49 C3.34 608.92 3.67 609.28 4.13
							 609.28 ZM7.27 608.49 a0.786395 0.786376 -180 1 0 -1.57279 0 a0.786395 0.786376 -180 1 0 1.57279 0 Z"
						class="st2"/>
				<text x="-20.85" y="617.9" class="st3" v:langID="1033"><v:paragraph v:horizAlign="2"/><v:tabList/>Virtual Network</text>			</g>
		</g>
		<g id="group4-9" transform="translate(347.6,-220.371)" v:mID="4" v:groupContext="group">
			<title>Smart Virtual Network Box.4</title>
			<g id="shape5-10" v:mID="5" v:groupContext="shape" transform="translate(0,-5.65591)">
				<title>Virtual Network Box 1</title>
				<path d="M286.95 612 L0 612 L0 498.41 L310.21 498.41 L310.21 606.54" class="st4"/>
			</g>
			<g id="shape6-13" v:mID="6" v:groupContext="shape" transform="translate(292.904,1.49194)">
				<title>Sheet.6</title>
				<desc>Virtual Network</desc>
				<v:textBlock v:margins="rect(0,0,0,0)"/>
				<v:textRect cx="-99.3466" cy="620.857" width="250.38" height="14.2957"/>
				<path d="M0 604.85 L7.15 612 L8.02 611.06 L1.8 604.85 L8.02 598.64 L7.15 597.7 L0 604.85 ZM26.39 604.85 L19.24 597.7
							 L18.37 598.64 L24.58 604.85 L18.37 611.06 L19.24 612 L26.39 604.85 ZM19.64 604.85 A1.60331 1.60326 -180
							 1 0 16.43 604.85 A1.60331 1.60326 -180 1 0 19.64 604.85 ZM8.42 606.46 C9.29 606.46 10.02 605.72 10.02
							 604.85 C10.02 603.92 9.29 603.25 8.42 603.25 C7.55 603.25 6.81 603.98 6.81 604.85 C6.81 605.72 7.48
							 606.46 8.42 606.46 ZM14.83 604.85 A1.6033 1.60326 -180 1 0 11.62 604.85 A1.6033 1.60326 -180 1 0 14.83
							 604.85 Z" class="st2"/>
				<text x="-42.5" y="624.03" class="st5" v:langID="1033"><v:paragraph v:horizAlign="2"/><v:tabList/>Virtual Network</text>			</g>
		</g>
		<g id="group10-17" transform="translate(223.518,-375.004)" v:mID="10" v:groupContext="group">
			<title>Smart Virtual Network Box.10</title>
			<g id="shape11-18" v:mID="11" v:groupContext="shape" transform="translate(7.99361E-14,-5.57588)">
				<title>Virtual Network Box 1</title>
				<path d="M138.25 612 L0 612 L0 500.01 L149.46 500.01 L149.46 606.62" class="st6"/>
			</g>
			<g id="shape12-21" v:mID="12" v:groupContext="shape" transform="translate(139.317,-1.15687)">
				<title>Sheet.12</title>
				<desc>Virtual Network</desc>
				<v:textBlock v:margins="rect(0,0,0,0)"/>
				<v:textRect cx="-61.419" cy="617.476" width="154.79" height="8.83802"/>
				<path d="M0 607.58 L4.42 612 L4.96 611.42 L1.12 607.58 L4.96 603.74 L4.42 603.16 L0 607.58 ZM16.31 607.58 L11.89
							 603.16 L11.36 603.74 L15.2 607.58 L11.36 611.42 L11.89 612 L16.31 607.58 ZM12.14 607.58 a0.991212 0.99118
							 -180 1 0 -1.98242 0 a0.991212 0.99118 -180 1 0 1.98242 0 ZM5.2 608.57 C5.74 608.57 6.2 608.12 6.2 607.58
							 C6.2 607 5.74 606.59 5.2 606.59 C4.67 606.59 4.21 607.04 4.21 607.58 C4.21 608.12 4.63 608.57 5.2 608.57
							 ZM9.17 607.58 a0.991208 0.991184 -180 1 0 -1.98242 0 a0.991208 0.991184 -180 1 0 1.98242 0 Z"
						class="st2"/>
				<text x="-26.28" y="619.44" class="st7" v:langID="1033"><v:paragraph v:horizAlign="2"/><v:tabList/>Virtual Network</text>			</g>
		</g>
		<g id="shape29-25" v:mID="29" v:groupContext="shape" transform="translate(419.169,-462.015)">
			<title>Sheet.29</title>
			<desc>West US 3</desc>
			<v:textBlock v:margins="rect(4,4,4,4)"/>
			<v:textRect cx="36.1119" cy="604.859" width="72.23" height="14.2812"/>
			<rect x="0" y="597.719" width="72.2238" height="14.2812" class="st8"/>
			<text x="4" y="607.56" class="st9" v:langID="1033"><v:paragraph/><v:tabList/>West US 3</text>		</g>
		<g id="shape177-28" v:mID="177" v:groupContext="shape" transform="translate(347.6,-319.621)">
			<title>Sheet.177</title>
			<desc>Hub</desc>
			<v:textBlock v:margins="rect(4,4,4,4)"/>
			<v:textRect cx="19.0984" cy="602" width="38.2" height="20"/>
			<rect x="0" y="592" width="38.1967" height="20" class="st8"/>
			<text x="9.06" y="605.6" class="st10" v:langID="1033"><v:paragraph v:horizAlign="1"/><v:tabList/>Hub</text>		</g>
		<g id="shape178-31" v:mID="178" v:groupContext="shape" transform="translate(346.98,-180)">
			<title>Sheet.178</title>
			<desc>“On-Prem”</desc>
			<v:textBlock v:margins="rect(4,4,4,4)"/>
			<v:textRect cx="49.5" cy="602" width="99.01" height="20"/>
			<rect x="0" y="592" width="99" height="20" class="st8"/>
			<text x="4" y="605.6" class="st10" v:langID="1033"><v:paragraph/><v:tabList/>“On-Prem”</text>		</g>
		<g id="shape199-34" v:mID="199" v:groupContext="shape" transform="translate(160.395,-105.621)">
			<title>Sheet.199</title>
			<path d="M0 612 L551.25 612 L551.25 168.75 L0 168.75 L0 612 Z" class="st11"/>
		</g>
		<g id="group1000-36" transform="translate(169.395,-220.371)" v:mID="1000" v:groupContext="group">
			<title>Smart Virtual Network Box.7</title>
			<g id="shape1001-37" v:mID="1001" v:groupContext="shape" transform="translate(2.39808E-14,-7.04321)">
				<title>Virtual Network Box 1</title>
				<path d="M118.56 612 L0 612 L0 470.54 L128.17 470.54 L128.17 605.21" class="st12"/>
			</g>
			<g id="shape1002-40" v:mID="1002" v:groupContext="shape" transform="translate(118.048,-2.47993)">
				<title>Sheet.1002</title>
				<desc>Virtual Network</desc>
				<v:textBlock v:margins="rect(0,0,0,0)"/>
				<v:textRect cx="-63.4241" cy="617.654" width="159.85" height="9.12656"/>
				<path d="M0 607.44 L4.56 612 L5.12 611.4 L1.15 607.44 L5.12 603.47 L4.56 602.87 L0 607.44 ZM16.85 607.44 L12.28 602.87
							 L11.73 603.47 L15.69 607.44 L11.73 611.4 L12.28 612 L16.85 607.44 ZM12.54 607.44 A1.02357 1.02354 -180
							 1 0 10.49 607.44 A1.02357 1.02354 -180 1 0 12.54 607.44 ZM5.37 608.46 C5.93 608.46 6.4 607.99 6.4 607.44
							 C6.4 606.84 5.93 606.41 5.37 606.41 C4.82 606.41 4.35 606.88 4.35 607.44 C4.35 607.99 4.78 608.46 5.37
							 608.46 ZM9.47 607.44 A1.02357 1.02354 -180 1 0 7.42 607.44 A1.02357 1.02354 -180 1 0 9.47 607.44 Z"
						class="st2"/>
				<text x="-27.13" y="619.68" class="st13" v:langID="1033"><v:paragraph v:horizAlign="2"/><v:tabList/>Virtual Network</text>			</g>
		</g>
		<g id="shape1007-44" v:mID="1007" v:groupContext="shape" transform="translate(169.395,-348.871)">
			<title>Sheet.1007</title>
			<desc>Spoke 2</desc>
			<v:textBlock v:margins="rect(4,4,4,4)"/>
			<v:textRect cx="33.9167" cy="602" width="67.84" height="20"/>
			<rect x="0" y="592" width="67.8333" height="20" class="st8"/>
			<text x="4" y="605.6" class="st10" v:langID="1033"><v:paragraph/><v:tabList/>Spoke 2</text>		</g>
		<g id="group1024-47" transform="translate(411.954,-373.77)" v:mID="1024" v:groupContext="group">
			<title>Smart Virtual Network Box.1024</title>
			<desc>0</desc>
			<g id="shape1025-48" v:mID="1025" v:groupContext="shape" transform="translate(7.99361E-14,-5.57588)">
				<title>Virtual Network Box 1</title>
				<path d="M138.25 612 L0 612 L0 500.01 L149.46 500.01 L149.46 606.62" class="st6"/>
			</g>
			<g id="shape1026-51" v:mID="1026" v:groupContext="shape" transform="translate(139.317,-1.15687)">
				<title>Sheet.1026</title>
				<desc>Virtual Network</desc>
				<v:textBlock v:margins="rect(0,0,0,0)"/>
				<v:textRect cx="-61.419" cy="617.476" width="154.79" height="8.83802"/>
				<path d="M0 607.58 L4.42 612 L4.96 611.42 L1.12 607.58 L4.96 603.74 L4.42 603.16 L0 607.58 ZM16.31 607.58 L11.89
							 603.16 L11.36 603.74 L15.2 607.58 L11.36 611.42 L11.89 612 L16.31 607.58 ZM12.14 607.58 a0.991212 0.99118
							 -180 1 0 -1.98242 0 a0.991212 0.99118 -180 1 0 1.98242 0 ZM5.2 608.57 C5.74 608.57 6.2 608.12 6.2 607.58
							 C6.2 607 5.74 606.59 5.2 606.59 C4.67 606.59 4.21 607.04 4.21 607.58 C4.21 608.12 4.63 608.57 5.2 608.57
							 ZM9.17 607.58 a0.991208 0.991184 -180 1 0 -1.98242 0 a0.991208 0.991184 -180 1 0 1.98242 0 Z"
						class="st2"/>
				<text x="-26.28" y="619.44" class="st7" v:langID="1033"><v:paragraph v:horizAlign="2"/><v:tabList/>Virtual Network</text>			</g>
			<g id="shape1024-55" v:mID="1024" v:groupContext="groupContent">
				<v:textBlock v:margins="rect(4,4,4,4)"/>
				<v:textRect cx="77.3978" cy="553.219" width="154.8" height="117.563"/>
				<text x="74.36" y="556.82" class="st14" v:langID="1033"><v:paragraph v:horizAlign="1"/><v:tabList/>0</text>			</g>
		</g>
		<g id="shape1061-57" v:mID="1061" v:groupContext="shape" transform="translate(413.333,-470.5)">
			<title>Sheet.1061</title>
			<desc>Spoke 3</desc>
			<v:textBlock v:margins="rect(4,4,4,4)"/>
			<v:textRect cx="27.3333" cy="602" width="54.67" height="20"/>
			<rect x="0" y="592" width="54.6667" height="20" class="st8"/>
			<text x="4" y="605.6" class="st10" v:langID="1033"><v:paragraph/><v:tabList/>Spoke 3</text>		</g>
		<g id="shape1114-60" v:mID="1114" v:groupContext="shape" transform="translate(230.906,-463.25)">
			<title>Sheet.1114</title>
			<desc>West US 2</desc>
			<v:textBlock v:margins="rect(4,4,4,4)"/>
			<v:textRect cx="36.1119" cy="604.859" width="72.23" height="14.2812"/>
			<rect x="0" y="597.719" width="72.2238" height="14.2812" class="st8"/>
			<text x="4" y="607.56" class="st9" v:langID="1033"><v:paragraph/><v:tabList/>West US 2</text>		</g>
		<g id="shape1115-63" v:mID="1115" v:groupContext="shape" transform="translate(224.333,-472.5)">
			<title>Sheet.1115</title>
			<desc>Spoke 1</desc>
			<v:textBlock v:margins="rect(4,4,4,4)"/>
			<v:textRect cx="27.3333" cy="602" width="54.67" height="20"/>
			<rect x="0" y="592" width="54.6667" height="20" class="st8"/>
			<text x="4" y="605.6" class="st10" v:langID="1033"><v:paragraph/><v:tabList/>Spoke 1</text>		</g>
		<g id="group1155-66" transform="translate(497.531,-116.919)" v:mID="1155" v:groupContext="group">
			<title>Smart Virtual Network Box.1155</title>
			<g id="shape1156-67" v:mID="1156" v:groupContext="shape" transform="translate(0,-3.9523)">
				<title>Virtual Network Box 1</title>
				<path d="M127.35 612 L0 612 L0 532.62 L137.68 532.62 L137.68 608.19" class="st15"/>
			</g>
			<g id="shape1157-70" v:mID="1157" v:groupContext="shape" transform="translate(129.083,-0.286677)">
				<title>Sheet.1157</title>
				<desc>Virtual Network</desc>
				<v:textBlock v:margins="rect(0,0,0,0)"/>
				<v:textRect cx="-50.9478" cy="616.542" width="128.4" height="7.33125"/>
				<path d="M0 608.33 L3.67 612 L4.11 611.52 L0.93 608.33 L4.11 605.15 L3.67 604.67 L0 608.33 ZM13.53 608.33 L9.87 604.67
							 L9.42 605.15 L12.61 608.33 L9.42 611.52 L9.87 612 L13.53 608.33 ZM10.07 608.33 a0.822223 0.822197 -180
							 1 0 -1.64445 0 a0.822223 0.822197 -180 1 0 1.64445 0 ZM4.32 609.16 C4.76 609.16 5.14 608.78 5.14 608.33
							 C5.14 607.85 4.76 607.51 4.32 607.51 C3.87 607.51 3.49 607.89 3.49 608.33 C3.49 608.78 3.84 609.16 4.32
							 609.16 ZM7.61 608.33 a0.82222 0.8222 -180 1 0 -1.64444 0 a0.82222 0.8222 -180 1 0 1.64444 0 Z"
						class="st2"/>
				<text x="-21.8" y="618.17" class="st16" v:langID="1033"><v:paragraph v:horizAlign="2"/><v:tabList/>Virtual Network</text>			</g>
		</g>
		<g id="shape1158-74" v:mID="1158" v:groupContext="shape" transform="translate(497.531,-180.041)">
			<title>Sheet.1158</title>
			<desc>“Coffee Shop”</desc>
			<v:textBlock v:margins="rect(4,4,4,4)"/>
			<v:textRect cx="42.75" cy="602" width="85.5" height="20"/>
			<rect x="0" y="592" width="85.5" height="20" class="st8"/>
			<text x="4" y="605.6" class="st10" v:langID="1033"><v:paragraph/><v:tabList/>“Coffee Shop”</text>		</g>
		<g id="group1242-77" transform="translate(144.48,-529.341)" v:mID="1242" v:groupContext="group">
			<title>Resource Groups</title>
			<desc>Student Resource Group</desc>
			<g id="shape1243-78" v:mID="1243" v:groupContext="shape">
				<title>Sheet.1243</title>
				<v:userDefs>
					<v:ud v:nameU="msvDisableCustomConnectionPoints" v:prompt="" v:val="VT0(1):5"/>
				</v:userDefs>
				<path d="M0 607.82 a0.325271 0.34496 -180 0 0 0.162635 0.30184 L2.52 609.53 L6.51 611.96 a0.3456 0.36652 -180 0 0
							 0.467576 -0.12936 L8.31 609.42 a0.325271 0.34496 -180 0 0 -0.121976 -0.45276 L3.52 606.16 a0.3456 0.36652
							 0 0 1 -0.162635 -0.30184 L3.35 583.61 a0.325271 0.34496 0 0 1 0.162635 -0.30184 L8.19 580.51 a0.325271
							 0.34496 -180 0 0 0.121976 -0.45276 L6.97 577.64 a0.3456 0.36652 -180 0 0 -0.467576 -0.17248 L2.6 579.86
							 L0.16 581.31 a0.325271 0.34496 -180 0 0 -0.162635 0.30184 L0 607.82 Z" class="st17"/>
			</g>
			<g id="shape1244-80" v:mID="1244" v:groupContext="shape" transform="translate(0,-0.0780421)">
				<title>Sheet.1244</title>
				<v:userDefs>
					<v:ud v:nameU="msvDisableCustomConnectionPoints" v:prompt="" v:val="VT0(1):5"/>
				</v:userDefs>
				<path d="M3.33 583.52 L3.46 583.39 L8.13 580.59 a0.284612 0.30184 -180 0 0 0.121976 -0.45276 L6.91 577.72 a0.304941
							 0.3234 -180 0 0 -0.447247 -0.17248 L2.54 579.94 L0.12 581.38 C0.12 581.38 0.02 581.38 0 581.51 L1.83
							 582.61 L3.33 583.52 ZM8.13 609 L3.46 606.2 a0.447247 0.47432 0 0 1 -0.142306 -0.19404 L0.02 608.16 L0.12
							 608.16 L2.46 609.56 L6.53 611.96 a0.304941 0.3234 -180 0 0 0.447247 -0.12936 L8.31 609.41 a0.284612
							 0.30184 -180 0 0 -0.182965 -0.40964 Z" class="st18"/>
			</g>
			<g id="shape1245-82" v:mID="1245" v:groupContext="shape" transform="translate(26.2221,0)">
				<title>Sheet.1245</title>
				<v:userDefs>
					<v:ud v:nameU="msvDisableCustomConnectionPoints" v:prompt="" v:val="VT0(1):5"/>
				</v:userDefs>
				<path d="M8.34 607.82 a0.325271 0.34496 0 0 1 -0.162635 0.30184 L5.82 609.53 L1.83 611.96 a0.3456 0.36652 0 0 1 -0.467576
							 -0.12936 L0.02 609.42 a0.325271 0.34496 0 0 1 0.121976 -0.45276 L4.82 606.16 a0.3456 0.36652 -180 0
							 0 0.162635 -0.30184 L4.98 583.61 a0.325271 0.34496 -180 0 0 -0.162635 -0.30184 L0.15 580.51 a0.325271
							 0.34496 0 0 1 -0.121976 -0.45276 L1.36 577.64 a0.3456 0.36652 0 0 1 0.467576 -0.17248 L5.74 579.82 L8.18
							 581.26 a0.325271 0.34496 0 0 1 0.162635 0.30184 L8.34 607.82 Z" class="st17"/>
			</g>
			<g id="shape1246-84" v:mID="1246" v:groupContext="shape" transform="translate(26.2648,-0.0780421)">
				<title>Sheet.1246</title>
				<v:userDefs>
					<v:ud v:nameU="msvDisableCustomConnectionPoints" v:prompt="" v:val="VT0(1):5"/>
				</v:userDefs>
				<path d="M4.96 583.52 L4.84 583.39 L0.16 580.59 a0.284612 0.30184 0 0 1 -0.121976 -0.45276 L1.38 577.72 a0.304941
							 0.3234 0 0 1 0.447247 -0.17248 L5.75 579.9 L8.17 581.34 L8.3 581.47 L6.47 582.57 L4.96 583.52 ZM0.16
							 609 L4.84 606.2 a0.447247 0.47432 -180 0 0 0.142306 -0.19404 L8.27 608.16 L5.94 609.56 L1.87 611.96
							 a0.304941 0.3234 0 0 1 -0.447247 -0.12936 L0.08 609.41 a0.284612 0.30184 0 0 1 0.0813176 -0.40964 Z"
						class="st18"/>
			</g>
			<g id="shape1247-86" v:mID="1247" v:groupContext="shape" transform="translate(17.2597,-4.00343)">
				<title>Sheet.1247</title>
				<v:userDefs>
					<v:ud v:nameU="msvDisableCustomConnectionPoints" v:prompt="" v:val="VT0(1):5"/>
				</v:userDefs>
				<path d="M10.82 592.1 L10.82 605.34 L0 612 L0 598.74 L10.82 592.1 Z" class="st19"/>
			</g>
			<g id="shape1248-88" v:mID="1248" v:groupContext="shape" transform="translate(6.46475,-17.2413)">
				<title>Sheet.1248</title>
				<v:userDefs>
					<v:ud v:nameU="msvDisableCustomConnectionPoints" v:prompt="" v:val="VT0(1):5"/>
				</v:userDefs>
				<path d="M21.61 605.34 L10.82 612 L0 605.34 L10.82 598.68 L21.61 605.34 Z" class="st20"/>
			</g>
			<g id="shape1249-90" v:mID="1249" v:groupContext="shape" transform="translate(6.46475,-4.00343)">
				<title>Sheet.1249</title>
				<v:userDefs>
					<v:ud v:nameU="msvDisableCustomConnectionPoints" v:prompt="" v:val="VT0(1):5"/>
				</v:userDefs>
				<path d="M10.79 598.76 L10.79 612 L0 605.34 L0 592.1 L10.79 598.76 Z" class="st21"/>
			</g>
			<g id="shape1250-92" v:mID="1250" v:groupContext="shape" transform="translate(6.46475,-4.00343)">
				<title>Sheet.1250</title>
				<v:userDefs>
					<v:ud v:nameU="msvDisableCustomConnectionPoints" v:prompt="" v:val="VT0(1):5"/>
				</v:userDefs>
				<path d="M0 605.34 L10.79 598.74 L10.79 612 L0 605.34 Z" class="st20"/>
			</g>
			<g id="shape1251-94" v:mID="1251" v:groupContext="shape" transform="translate(17.2597,-4.00343)">
				<title>Sheet.1251</title>
				<v:userDefs>
					<v:ud v:nameU="msvDisableCustomConnectionPoints" v:prompt="" v:val="VT0(1):5"/>
				</v:userDefs>
				<path d="M10.82 605.34 L0 598.74 L0 612 L10.82 605.34 Z" class="st21"/>
			</g>
			<g id="shape1242-96" v:mID="1242" v:groupContext="groupContent">
				<v:textBlock v:margins="rect(0,0,0,0)"/>
				<v:textRect cx="17.28" cy="628.202" width="72" height="32.4036"/>
				<rect v:rectContext="textBkgnd" x="0.389619" y="612.002" width="33.7808" height="32.3998" class="st22"/>
				<text x="2.87" y="620.1" class="st23" v:langID="1033"><v:paragraph v:horizAlign="1"/><v:tabList/>Student<v:newlineChar/><tspan
							x="0.39" dy="1.2em" class="st24">Resource<v:newlineChar/></tspan><tspan x="5.77" dy="1.2em"
							class="st24">Group</tspan></text>			</g>
		</g>
		<g id="shape1252-101" v:mID="1252" v:groupContext="shape" transform="translate(239,-383.434)">
			<title>Sheet.1252</title>
			<desc>Spoke01-VNet Add: 10.1.0.0/16 Ten: 10.1.1.0/24 AppGw: 10.1.2....</desc>
			<v:textBlock v:margins="rect(4,4,4,4)"/>
			<v:textRect cx="76" cy="568.492" width="152.01" height="87.0167"/>
			<rect x="0" y="524.983" width="152" height="87.0167" class="st8"/>
			<text x="4" y="550.44" class="st25" v:langID="1033"><v:paragraph/><v:tabList/>Spoke01-VNet<v:newlineChar/><tspan x="4"
						dy="1.2em" class="st26">Add:   10.1.0.0/16<v:newlineChar/></tspan><tspan x="4" dy="1.2em" class="st26">Ten:   10.1.1.0/24<v:newlineChar/></tspan><tspan
						x="4" dy="1.207em" class="st26">AppGw: 10.1.2.0/24</tspan></text>		</g>
		<g id="shape1253-107" v:mID="1253" v:groupContext="shape" transform="translate(423,-385.483)">
			<title>Sheet.1253</title>
			<desc>Spoke03-VNet Add: 10.3.0.0/16 Ten: 10.3.1.0/24 PvtLnk: 10.3.2...</desc>
			<v:textBlock v:margins="rect(4,4,4,4)"/>
			<v:textRect cx="76" cy="568.492" width="152.01" height="87.0167"/>
			<rect x="0" y="524.983" width="152" height="87.0167" class="st8"/>
			<text x="4" y="550.44" class="st25" v:langID="1033"><v:paragraph/><v:tabList/>Spoke03-VNet<v:newlineChar/><tspan x="4"
						dy="1.2em" class="st26">Add:    10.3.0.0/16<v:newlineChar/></tspan><tspan x="4" dy="1.2em" class="st26">Ten:    10.3.1.0/24<v:newlineChar/></tspan><tspan
						x="4" dy="1.207em" class="st26">PvtLnk: 10.3.2.0/24</tspan></text>		</g>
		<g id="shape1254-113" v:mID="1254" v:groupContext="shape" transform="translate(180,-270)">
			<title>Sheet.1254</title>
			<desc>Spoke02-VNet Add: 10.2.0.0/16 Ten: 10.2.1.0/24</desc>
			<v:textBlock v:margins="rect(4,4,4,4)"/>
			<v:textRect cx="76" cy="568.492" width="152.01" height="87.0167"/>
			<rect x="0" y="524.983" width="152" height="87.0167" class="st8"/>
			<text x="4" y="557.64" class="st25" v:langID="1033"><v:paragraph/><v:tabList/>Spoke02-VNet<v:newlineChar/><tspan x="4"
						dy="1.2em" class="st26">Add: 10.2.0.0/16<v:newlineChar/></tspan><tspan x="4" dy="1.207em" class="st26">Ten: 10.2.1.0/24</tspan></text>		</g>
		<g id="shape1255-118" v:mID="1255" v:groupContext="shape" transform="translate(406,-227.121)">
			<title>Sheet.1255</title>
			<desc>Hub-VNet Add: 10.0.0.0/16 Ten: 10.0.1.0/24 Bas: 10.0.2.0/24 F...</desc>
			<v:textBlock v:margins="rect(4,4,4,4)"/>
			<v:textRect cx="76" cy="555.75" width="152.01" height="112.5"/>
			<rect x="0" y="499.5" width="152" height="112.5" class="st8"/>
			<text x="4" y="516.15" class="st25" v:langID="1033"><v:paragraph/><v:tabList/>Hub-VNet<v:newlineChar/><tspan x="4"
						dy="1.2em" class="st26">Add: 10.0.0.0/16<v:newlineChar/></tspan><tspan x="4" dy="1.2em" class="st26">Ten: 10.0.1.0/24<v:newlineChar/></tspan><tspan
						x="4" dy="1.2em" class="st26">Bas: 10.0.2.0/24<v:newlineChar/></tspan><tspan x="4" dy="1.2em" class="st26"> </tspan><tspan
						class="st26">FW: 10.0.3.0/24<v:newlineChar/></tspan><tspan x="4" dy="1.2em" class="st26"> </tspan><tspan
						class="st26">GW: 10.0.4.0/24<v:newlineChar/></tspan><tspan x="4" dy="1.2em" class="st26"> </tspan><tspan
						class="st26">RS: 10.0.5.0/24 </tspan> </text>		</g>
		<g id="shape1256-130" v:mID="1256" v:groupContext="shape" transform="translate(348.125,-117.733)">
			<title>Sheet.1256</title>
			<desc>OnPrem-VNet Add: 10.10.1.0/24 Ten: 10.10.1.0/25 Bas: 10.10.1....</desc>
			<v:textBlock v:margins="rect(4,4,4,4)"/>
			<v:textRect cx="68.0575" cy="578.617" width="136.12" height="66.7667"/>
			<rect x="0" y="545.233" width="136.115" height="66.7667" class="st8"/>
			<text x="4" y="560.62" class="st27" v:langID="1033"><v:paragraph/><v:tabList/>OnPrem-VNet<v:newlineChar/><tspan x="4"
						dy="1.2em" class="st24">Add: 10.10.1.0/24<v:newlineChar/></tspan><tspan x="4" dy="1.2em" class="st24">Ten: 10.10.1.0/25<v:newlineChar/></tspan><tspan
						x="4" dy="1.2em" class="st24">Bas: 10.10.1.128/25</tspan></text>		</g>
		<g id="shape1257-136" v:mID="1257" v:groupContext="shape" transform="translate(501.625,-117.733)">
			<title>Sheet.1257</title>
			<desc>CoffeeShop-VNet Add: 10.10.2.0/24 Ten: 10.10.2.0/25 Bas: 10.1...</desc>
			<v:textBlock v:margins="rect(4,4,4,4)"/>
			<v:textRect cx="68.0575" cy="578.617" width="136.12" height="66.7667"/>
			<rect x="0" y="545.233" width="136.115" height="66.7667" class="st8"/>
			<text x="4" y="560.62" class="st27" v:langID="1033"><v:paragraph/><v:tabList/>CoffeeShop-VNet<v:newlineChar/><tspan
						x="4" dy="1.2em" class="st24">Add: 10.10.2.0/24<v:newlineChar/></tspan><tspan x="4" dy="1.2em" class="st24">Ten: 10.10.2.0/25<v:newlineChar/></tspan><tspan
						x="4" dy="1.2em" class="st24">Bas: 10.10.2.128/25</tspan></text>		</g>
	</g>
</svg>
