<?xml version="1.0" encoding="UTF-8" standalone="no"?>
<!DOCTYPE svg PUBLIC "-//W3C//DTD SVG 1.1//EN" "http://www.w3.org/Graphics/SVG/1.1/DTD/svg11.dtd">
<!-- Generated by Microsoft Visio, SVG Export Step1.svg Step 1 -->
<svg xmlns="http://www.w3.org/2000/svg" xmlns:xlink="http://www.w3.org/1999/xlink" xmlns:ev="http://www.w3.org/2001/xml-events"
		xmlns:v="http://schemas.microsoft.com/visio/2003/SVGExtensions/" width="11in" height="8.5in" viewBox="0 0 792 612"
		xml:space="preserve" color-interpolation-filters="sRGB" class="st23">
	<v:documentProperties v:langID="1033" v:viewMarkup="false">
		<v:userDefs>
			<v:ud v:nameU="msvNoAutoConnect" v:prompt="" v:val="VT0(0):26"/>
		</v:userDefs>
	</v:documentProperties>

	<style type="text/css">
	<![CDATA[
		.st1 {stroke:#0078d7;stroke-dasharray:0,2.74085;stroke-linecap:round;stroke-linejoin:round;stroke-width:0.913618}
		.st2 {fill:#0078d7}
		.st3 {fill:#0078d7;font-family:Calibri;font-size:0.881081em}
		.st4 {fill:none;stroke:none;stroke-linecap:round;stroke-linejoin:round;stroke-width:0.5}
		.st5 {fill:#5b9bd5;font-family:Calibri;font-size:1.00001em}
		.st6 {font-size:1em}
		.st7 {fill:#000000;font-family:Calibri;font-size:1.00001em}
		.st8 {fill:none;stroke:#5b9bd5;stroke-dasharray:7.5,4.5;stroke-linecap:round;stroke-linejoin:round;stroke-width:0.5}
		.st9 {fill:#0078d7;stroke:none;stroke-linecap:butt;stroke-width:0.5}
		.st10 {fill:#0078d7;font-family:Calibri;font-size:0.75em}
		.st11 {fill:none;stroke:#0070c0;stroke-dasharray:7.5,4.5;stroke-linecap:round;stroke-linejoin:round;stroke-width:0.5}
		.st12 {fill:#949494;stroke:none;stroke-linecap:butt;stroke-width:0.5}
		.st13 {fill:#a3a3a3;stroke:none;stroke-linecap:butt;stroke-width:0.5}
		.st14 {fill:#32bedd;stroke:none;stroke-linecap:butt;stroke-width:0.5}
		.st15 {fill:#9cebff;stroke:none;stroke-linecap:butt;stroke-width:0.5}
		.st16 {fill:#50e6ff;stroke:none;stroke-linecap:butt;stroke-width:0.5}
		.st17 {fill:#ffffff;stroke:none;stroke-linecap:butt;stroke-width:7.2}
		.st18 {fill:#0070c0;font-family:Calibri;font-size:0.75em}
		.st19 {fill:url(#grad4-92);stroke:none;stroke-linecap:butt;stroke-width:0.5}
		.st20 {fill:#ffffff;stroke:none;stroke-linecap:butt;stroke-width:0.5}
		.st21 {fill:url(#grad7-98);stroke:none;stroke-linecap:butt;stroke-width:0.5}
		.st22 {fill:#ff9300;fill-opacity:0.75;stroke:none;stroke-linecap:butt;stroke-width:0.5}
		.st23 {fill:none;fill-rule:evenodd;font-size:12px;overflow:visible;stroke-linecap:square;stroke-miterlimit:3}
	]]>
	</style>

	<defs id="Patterns_And_Gradients">
		<radialGradient id="grad4-92" cx="0.5" cy="0" r="1.1">
			<stop offset="0.18" stop-color="#5ea0ef" stop-opacity="1"/>
			<stop offset="0.56" stop-color="#5c9fee" stop-opacity="1"/>
			<stop offset="0.69" stop-color="#559ced" stop-opacity="1"/>
			<stop offset="0.78" stop-color="#4a97e9" stop-opacity="1"/>
			<stop offset="0.86" stop-color="#3990e4" stop-opacity="1"/>
			<stop offset="0.93" stop-color="#2387de" stop-opacity="1"/>
			<stop offset="0.99" stop-color="#087bd6" stop-opacity="1"/>
			<stop offset="1" stop-color="#0078d4" stop-opacity="1"/>
		</radialGradient>
		<radialGradient id="grad7-98" cx="0" cy="0" r="1.4">
			<stop offset="0.27" stop-color="#ffd70f" stop-opacity="1"/>
			<stop offset="0.49" stop-color="#ffcb12" stop-opacity="1"/>
			<stop offset="0.88" stop-color="#feac19" stop-opacity="1"/>
			<stop offset="1" stop-color="#fea11b" stop-opacity="1"/>
		</radialGradient>
	</defs>
	<g v:mID="88" v:index="10" v:groupContext="foregroundPage">
		<v:userDefs>
			<v:ud v:nameU="msvThemeOrder" v:val="VT0(0):26"/>
		</v:userDefs>
		<title>Step 1</title>
		<v:pageProperties v:drawingScale="1" v:pageScale="1" v:drawingUnits="0" v:shadowOffsetX="9" v:shadowOffsetY="-9"/>
		<v:layer v:name="Connector" v:index="0"/>
		<v:layer v:name="Annotations" v:index="1"/>
		<g id="group4-1" transform="translate(347.6,-220.371)" v:mID="4" v:groupContext="group">
			<title>Smart Virtual Network Box.4</title>
			<g id="shape5-2" v:mID="5" v:groupContext="shape" transform="translate(0,-5.65591)">
				<title>Virtual Network Box 1</title>
				<path d="M286.95 612 L0 612 L0 498.41 L310.21 498.41 L310.21 606.54" class="st1"/>
			</g>
			<g id="shape6-5" v:mID="6" v:groupContext="shape" transform="translate(292.904,1.49194)">
				<title>Sheet.6</title>
				<desc>Virtual Network</desc>
				<v:textBlock v:margins="rect(0,0,0,0)"/>
				<v:textRect cx="-99.3466" cy="620.857" width="250.38" height="14.2957"/>
				<path d="M0 604.85 L7.15 612 L8.02 611.06 L1.8 604.85 L8.02 598.64 L7.15 597.7 L0 604.85 ZM26.39 604.85 L19.24 597.7
							 L18.37 598.64 L24.58 604.85 L18.37 611.06 L19.24 612 L26.39 604.85 ZM19.64 604.85 A1.60331 1.60326 -180
							 1 0 16.43 604.85 A1.60331 1.60326 -180 1 0 19.64 604.85 ZM8.42 606.46 C9.29 606.46 10.02 605.72 10.02
							 604.85 C10.02 603.92 9.29 603.25 8.42 603.25 C7.55 603.25 6.81 603.98 6.81 604.85 C6.81 605.72 7.48
							 606.46 8.42 606.46 ZM14.83 604.85 A1.6033 1.60326 -180 1 0 11.62 604.85 A1.6033 1.60326 -180 1 0 14.83
							 604.85 Z" class="st2"/>
				<text x="-42.5" y="624.03" class="st3" v:langID="1033"><v:paragraph v:horizAlign="2"/><v:tabList/>Virtual Network</text>			</g>
		</g>
		<g id="shape28-9" v:mID="28" v:groupContext="shape" transform="translate(537.105,-37.1715)">
			<title>Sheet.28</title>
			<desc>All resources in West US 2 except for Spoke 3</desc>
			<v:textBlock v:margins="rect(4,4,4,4)"/>
			<v:textRect cx="49.5" cy="588.788" width="99.01" height="46.4231"/>
			<rect x="0" y="565.577" width="99" height="46.4231" class="st4"/>
			<text x="4" y="577.99" class="st5" v:langID="1033"><v:paragraph/><v:tabList/>All resources in <tspan x="4" dy="1.2em"
						class="st6">West US 2 except </tspan><tspan x="4" dy="1.2em" class="st6">for Spoke 3</tspan></text>		</g>
		<g id="shape177-14" v:mID="177" v:groupContext="shape" transform="translate(347.6,-319.621)">
			<title>Sheet.177</title>
			<desc>Hub</desc>
			<v:textBlock v:margins="rect(4,4,4,4)"/>
			<v:textRect cx="19.0984" cy="602" width="38.2" height="20"/>
			<rect x="0" y="592" width="38.1967" height="20" class="st4"/>
			<text x="9.06" y="605.6" class="st7" v:langID="1033"><v:paragraph v:horizAlign="1"/><v:tabList/>Hub</text>		</g>
		<g id="shape199-17" v:mID="199" v:groupContext="shape" transform="translate(160.395,-105.621)">
			<title>Sheet.199</title>
			<path d="M0 612 L551.25 612 L551.25 168.75 L0 168.75 L0 612 Z" class="st8"/>
		</g>
		<g id="group122-19" transform="translate(542.714,-260.913)" v:mID="122" v:groupContext="group">
			<title>Virtual Machine symbol only.122</title>
			<desc>Test VM</desc>
			<g id="shape123-20" v:mID="123" v:groupContext="shape">
				<title>Sheet.123</title>
				<path d="M21.31 591.07 L1.23 591.07 C0.55 591.07 0 591.68 0 592.36 L0 606.36 C0 607.04 0.55 607.64 1.23 607.64 L8.11
							 607.64 C8.85 610.26 7.85 610.63 3.49 610.63 L3.49 612 L9.03 612 L13.09 612 L18.32 612 L18.32 610.63
							 C13.96 610.63 13.53 610.26 14.27 607.64 L21.31 607.64 C21.99 607.64 22.68 607.04 22.68 606.36 L22.68
							 592.36 C22.68 591.68 21.99 591.07 21.31 591.07 ZM20.94 592.82 L20.94 605.89 L1.74 605.89 L1.74 592.82
							 L20.99 592.78 L20.94 592.82 Z" class="st9"/>
			</g>
			<g id="group124-22" transform="translate(7.24129,-8.39684)" v:mID="124" v:groupContext="group">
				<title>Sheet.124</title>
				<g id="group125-23" transform="translate(0.359821,-4.61735)" v:mID="125" v:groupContext="group">
					<title>Sheet.125</title>
					<g id="shape126-24" v:mID="126" v:groupContext="shape">
						<title>Sheet.126</title>
						<path d="M7.04 609.92 L3.52 607.89 L0 609.92 L0 609.97 L3.52 612 L7.04 609.97 L7.04 609.92 Z" class="st9"/>
					</g>
				</g>
				<g id="group127-26" transform="translate(4.23753,0)" v:mID="127" v:groupContext="group">
					<title>Sheet.127</title>
					<g id="shape128-27" v:mID="128" v:groupContext="shape">
						<title>Sheet.128</title>
						<path d="M0 607.99 L0 612 L3.52 609.97 L3.52 605.96 L0 607.99 Z" class="st9"/>
					</g>
				</g>
				<g id="group129-29" v:mID="129" v:groupContext="group">
					<title>Sheet.129</title>
					<g id="shape130-30" v:mID="130" v:groupContext="shape">
						<title>Sheet.130</title>
						<path d="M3.52 607.99 L0 605.96 L0 609.97 L3.52 612 L3.52 607.99 Z" class="st9"/>
					</g>
				</g>
			</g>
			<g id="shape122-32" v:mID="122" v:groupContext="groupContent">
				<v:textBlock v:margins="rect(0,0,0,0)" v:verticalAlign="0"/>
				<v:textRect cx="11.3409" cy="626.285" width="51.75" height="20.9291"/>
				<text x="-3.78" y="623.92" class="st10" v:langID="1033"><v:paragraph v:horizAlign="1"/><v:tabList/>Test VM</text>			</g>
		</g>
		<g id="shape1128-34" v:mID="1128" v:groupContext="shape" transform="translate(178.395,-28.6288)">
			<title>Sheet.1128</title>
			<path d="M0 612 L99 612 L99 558 L0 558 L0 612 Z" class="st11"/>
		</g>
		<g id="shape1136-36" v:mID="1136" v:groupContext="shape" transform="translate(225.394,1149.88) scale(1,-1)">
			<title>Storage (Azure).1136</title>
			<desc>Storage (Azure)</desc>
			<v:textBlock v:margins="rect(0,0,0,0)" v:verticalAlign="0"/>
			<v:textRect cx="16.0013" cy="567.281" width="72" height="30.9375"/>
			<path d="M27.28 601.29 L25.18 601.29 L25.18 611.04 C25.18 611.55 24.73 612 24.22 612 L0.96 612 C0.45 612 0 611.55 0 611.04
						 L0 591.47 C-0 590.96 0.45 590.52 0.96 590.52 L14.15 590.52 L17.59 584.52 L27.22 584.52 L32 592.87 L27.28
						 601.29 ZM18.68 606.39 L23.33 606.39 L23.33 603.58 L18.68 603.58 L18.68 606.39 ZM23.33 602.69 L23.33 601.29
						 L18.68 601.29 L18.68 602.69 L23.33 602.69 ZM13.07 606.39 L17.72 606.39 L17.72 603.58 L13.07 603.58 L13.07
						 606.39 ZM13.07 602.69 L17.72 602.69 L17.72 601.29 L17.66 601.29 L16.83 599.89 L13.07 599.89 L13.07 602.69
						 ZM13.07 598.93 L16.26 598.93 L14.66 596.13 L13.07 596.13 L13.07 598.93 ZM14.15 595.23 L13.07 593.39 L13.07
						 595.23 L14.15 595.23 ZM6.57 592.43 L1.91 592.43 L1.91 595.23 L6.57 595.23 L6.57 592.43 ZM6.57 596.13 L1.91
						 596.13 L1.91 598.93 L6.57 598.93 L6.57 596.13 ZM6.57 599.89 L1.91 599.89 L1.91 602.69 L6.57 602.69 L6.57
						 599.89 ZM6.57 603.58 L1.91 603.58 L1.91 606.39 L6.57 606.39 L6.57 603.58 ZM12.18 592.43 L7.52 592.43 L7.52
						 595.23 L12.18 595.23 L12.18 592.43 ZM12.18 596.13 L7.52 596.13 L7.52 598.93 L12.18 598.93 L12.18 596.13
						 ZM12.18 599.89 L7.52 599.89 L7.52 602.69 L12.18 602.69 L12.18 599.89 ZM12.18 603.58 L7.52 603.58 L7.52 606.39
						 L12.18 606.39 L12.18 603.58 ZM13.07 592.43 L13.07 592.49 L13.07 592.43 Z" class="st9"/>
			<text x="-12.33" y="-574.65" transform="scale(1,-1)" class="st10" v:langID="1033"><v:paragraph v:horizAlign="1"/><v:tabList/>Storage (Azure)</text>		</g>
		<g id="group1242-39" transform="translate(144.48,-529.341)" v:mID="1242" v:groupContext="group">
			<title>Resource Groups</title>
			<desc>Student Resource Group</desc>
			<g id="shape1243-40" v:mID="1243" v:groupContext="shape">
				<title>Sheet.1243</title>
				<v:userDefs>
					<v:ud v:nameU="msvDisableCustomConnectionPoints" v:prompt="" v:val="VT0(1):5"/>
				</v:userDefs>
				<path d="M0 607.82 a0.325271 0.34496 -180 0 0 0.162635 0.30184 L2.52 609.53 L6.51 611.96 a0.3456 0.36652 -180 0 0
							 0.467576 -0.12936 L8.31 609.42 a0.325271 0.34496 -180 0 0 -0.121976 -0.45276 L3.52 606.16 a0.3456 0.36652
							 0 0 1 -0.162635 -0.30184 L3.35 583.61 a0.325271 0.34496 0 0 1 0.162635 -0.30184 L8.19 580.51 a0.325271
							 0.34496 -180 0 0 0.121976 -0.45276 L6.97 577.64 a0.3456 0.36652 -180 0 0 -0.467576 -0.17248 L2.6 579.86
							 L0.16 581.31 a0.325271 0.34496 -180 0 0 -0.162635 0.30184 L0 607.82 Z" class="st12"/>
			</g>
			<g id="shape1244-42" v:mID="1244" v:groupContext="shape" transform="translate(0,-0.0780421)">
				<title>Sheet.1244</title>
				<v:userDefs>
					<v:ud v:nameU="msvDisableCustomConnectionPoints" v:prompt="" v:val="VT0(1):5"/>
				</v:userDefs>
				<path d="M3.33 583.52 L3.46 583.39 L8.13 580.59 a0.284612 0.30184 -180 0 0 0.121976 -0.45276 L6.91 577.72 a0.304941
							 0.3234 -180 0 0 -0.447247 -0.17248 L2.54 579.94 L0.12 581.38 C0.12 581.38 0.02 581.38 0 581.51 L1.83
							 582.61 L3.33 583.52 ZM8.13 609 L3.46 606.2 a0.447247 0.47432 0 0 1 -0.142306 -0.19404 L0.02 608.16 L0.12
							 608.16 L2.46 609.56 L6.53 611.96 a0.304941 0.3234 -180 0 0 0.447247 -0.12936 L8.31 609.41 a0.284612
							 0.30184 -180 0 0 -0.182965 -0.40964 Z" class="st13"/>
			</g>
			<g id="shape1245-44" v:mID="1245" v:groupContext="shape" transform="translate(26.2221,0)">
				<title>Sheet.1245</title>
				<v:userDefs>
					<v:ud v:nameU="msvDisableCustomConnectionPoints" v:prompt="" v:val="VT0(1):5"/>
				</v:userDefs>
				<path d="M8.34 607.82 a0.325271 0.34496 0 0 1 -0.162635 0.30184 L5.82 609.53 L1.83 611.96 a0.3456 0.36652 0 0 1 -0.467576
							 -0.12936 L0.02 609.42 a0.325271 0.34496 0 0 1 0.121976 -0.45276 L4.82 606.16 a0.3456 0.36652 -180 0
							 0 0.162635 -0.30184 L4.98 583.61 a0.325271 0.34496 -180 0 0 -0.162635 -0.30184 L0.15 580.51 a0.325271
							 0.34496 0 0 1 -0.121976 -0.45276 L1.36 577.64 a0.3456 0.36652 0 0 1 0.467576 -0.17248 L5.74 579.82 L8.18
							 581.26 a0.325271 0.34496 0 0 1 0.162635 0.30184 L8.34 607.82 Z" class="st12"/>
			</g>
			<g id="shape1246-46" v:mID="1246" v:groupContext="shape" transform="translate(26.2648,-0.0780421)">
				<title>Sheet.1246</title>
				<v:userDefs>
					<v:ud v:nameU="msvDisableCustomConnectionPoints" v:prompt="" v:val="VT0(1):5"/>
				</v:userDefs>
				<path d="M4.96 583.52 L4.84 583.39 L0.16 580.59 a0.284612 0.30184 0 0 1 -0.121976 -0.45276 L1.38 577.72 a0.304941
							 0.3234 0 0 1 0.447247 -0.17248 L5.75 579.9 L8.17 581.34 L8.3 581.47 L6.47 582.57 L4.96 583.52 ZM0.16
							 609 L4.84 606.2 a0.447247 0.47432 -180 0 0 0.142306 -0.19404 L8.27 608.16 L5.94 609.56 L1.87 611.96
							 a0.304941 0.3234 0 0 1 -0.447247 -0.12936 L0.08 609.41 a0.284612 0.30184 0 0 1 0.0813176 -0.40964 Z"
						class="st13"/>
			</g>
			<g id="shape1247-48" v:mID="1247" v:groupContext="shape" transform="translate(17.2597,-4.00343)">
				<title>Sheet.1247</title>
				<v:userDefs>
					<v:ud v:nameU="msvDisableCustomConnectionPoints" v:prompt="" v:val="VT0(1):5"/>
				</v:userDefs>
				<path d="M10.82 592.1 L10.82 605.34 L0 612 L0 598.74 L10.82 592.1 Z" class="st14"/>
			</g>
			<g id="shape1248-50" v:mID="1248" v:groupContext="shape" transform="translate(6.46475,-17.2413)">
				<title>Sheet.1248</title>
				<v:userDefs>
					<v:ud v:nameU="msvDisableCustomConnectionPoints" v:prompt="" v:val="VT0(1):5"/>
				</v:userDefs>
				<path d="M21.61 605.34 L10.82 612 L0 605.34 L10.82 598.68 L21.61 605.34 Z" class="st15"/>
			</g>
			<g id="shape1249-52" v:mID="1249" v:groupContext="shape" transform="translate(6.46475,-4.00343)">
				<title>Sheet.1249</title>
				<v:userDefs>
					<v:ud v:nameU="msvDisableCustomConnectionPoints" v:prompt="" v:val="VT0(1):5"/>
				</v:userDefs>
				<path d="M10.79 598.76 L10.79 612 L0 605.34 L0 592.1 L10.79 598.76 Z" class="st16"/>
			</g>
			<g id="shape1250-54" v:mID="1250" v:groupContext="shape" transform="translate(6.46475,-4.00343)">
				<title>Sheet.1250</title>
				<v:userDefs>
					<v:ud v:nameU="msvDisableCustomConnectionPoints" v:prompt="" v:val="VT0(1):5"/>
				</v:userDefs>
				<path d="M0 605.34 L10.79 598.74 L10.79 612 L0 605.34 Z" class="st15"/>
			</g>
			<g id="shape1251-56" v:mID="1251" v:groupContext="shape" transform="translate(17.2597,-4.00343)">
				<title>Sheet.1251</title>
				<v:userDefs>
					<v:ud v:nameU="msvDisableCustomConnectionPoints" v:prompt="" v:val="VT0(1):5"/>
				</v:userDefs>
				<path d="M10.82 605.34 L0 598.74 L0 612 L10.82 605.34 Z" class="st16"/>
			</g>
			<g id="shape1242-58" v:mID="1242" v:groupContext="groupContent">
				<v:textBlock v:margins="rect(0,0,0,0)"/>
				<v:textRect cx="17.28" cy="628.202" width="72" height="32.4036"/>
				<rect v:rectContext="textBkgnd" x="0.389619" y="612.002" width="33.7808" height="32.3998" class="st17"/>
				<text x="2.87" y="620.1" class="st18" v:langID="1033"><v:paragraph v:horizAlign="1"/><v:tabList/>Student<v:newlineChar/><tspan
							x="0.39" dy="1.2em" class="st6">Resource<v:newlineChar/></tspan><tspan x="5.77" dy="1.2em" class="st6">Group</tspan></text>			</g>
		</g>
		<g id="group1252-63" transform="translate(161.355,-65.1211)" v:mID="1252" v:groupContext="group">
			<title>Resource Groups.1252</title>
			<desc>Cloud Shell Resource Group</desc>
			<g id="shape1253-64" v:mID="1253" v:groupContext="shape">
				<title>Sheet.1253</title>
				<v:userDefs>
					<v:ud v:nameU="msvDisableCustomConnectionPoints" v:prompt="" v:val="VT0(1):5"/>
				</v:userDefs>
				<path d="M0 607.82 a0.325271 0.34496 -180 0 0 0.162635 0.30184 L2.52 609.53 L6.51 611.96 a0.3456 0.36652 -180 0 0
							 0.467576 -0.12936 L8.31 609.42 a0.325271 0.34496 -180 0 0 -0.121976 -0.45276 L3.52 606.16 a0.3456 0.36652
							 0 0 1 -0.162635 -0.30184 L3.35 583.61 a0.325271 0.34496 0 0 1 0.162635 -0.30184 L8.19 580.51 a0.325271
							 0.34496 -180 0 0 0.121976 -0.45276 L6.97 577.64 a0.3456 0.36652 -180 0 0 -0.467576 -0.17248 L2.6 579.86
							 L0.16 581.31 a0.325271 0.34496 -180 0 0 -0.162635 0.30184 L0 607.82 Z" class="st12"/>
			</g>
			<g id="shape1254-66" v:mID="1254" v:groupContext="shape" transform="translate(0,-0.0780421)">
				<title>Sheet.1254</title>
				<v:userDefs>
					<v:ud v:nameU="msvDisableCustomConnectionPoints" v:prompt="" v:val="VT0(1):5"/>
				</v:userDefs>
				<path d="M3.33 583.52 L3.46 583.39 L8.13 580.59 a0.284612 0.30184 -180 0 0 0.121976 -0.45276 L6.91 577.72 a0.304941
							 0.3234 -180 0 0 -0.447247 -0.17248 L2.54 579.94 L0.12 581.38 C0.12 581.38 0.02 581.38 0 581.51 L1.83
							 582.61 L3.33 583.52 ZM8.13 609 L3.46 606.2 a0.447247 0.47432 0 0 1 -0.142306 -0.19404 L0.02 608.16 L0.12
							 608.16 L2.46 609.56 L6.53 611.96 a0.304941 0.3234 -180 0 0 0.447247 -0.12936 L8.31 609.41 a0.284612
							 0.30184 -180 0 0 -0.182965 -0.40964 Z" class="st13"/>
			</g>
			<g id="shape1255-68" v:mID="1255" v:groupContext="shape" transform="translate(26.2221,0)">
				<title>Sheet.1255</title>
				<v:userDefs>
					<v:ud v:nameU="msvDisableCustomConnectionPoints" v:prompt="" v:val="VT0(1):5"/>
				</v:userDefs>
				<path d="M8.34 607.82 a0.325271 0.34496 0 0 1 -0.162635 0.30184 L5.82 609.53 L1.83 611.96 a0.3456 0.36652 0 0 1 -0.467576
							 -0.12936 L0.02 609.42 a0.325271 0.34496 0 0 1 0.121976 -0.45276 L4.82 606.16 a0.3456 0.36652 -180 0
							 0 0.162635 -0.30184 L4.98 583.61 a0.325271 0.34496 -180 0 0 -0.162635 -0.30184 L0.15 580.51 a0.325271
							 0.34496 0 0 1 -0.121976 -0.45276 L1.36 577.64 a0.3456 0.36652 0 0 1 0.467576 -0.17248 L5.74 579.82 L8.18
							 581.26 a0.325271 0.34496 0 0 1 0.162635 0.30184 L8.34 607.82 Z" class="st12"/>
			</g>
			<g id="shape1256-70" v:mID="1256" v:groupContext="shape" transform="translate(26.2648,-0.0780421)">
				<title>Sheet.1256</title>
				<v:userDefs>
					<v:ud v:nameU="msvDisableCustomConnectionPoints" v:prompt="" v:val="VT0(1):5"/>
				</v:userDefs>
				<path d="M4.96 583.52 L4.84 583.39 L0.16 580.59 a0.284612 0.30184 0 0 1 -0.121976 -0.45276 L1.38 577.72 a0.304941
							 0.3234 0 0 1 0.447247 -0.17248 L5.75 579.9 L8.17 581.34 L8.3 581.47 L6.47 582.57 L4.96 583.52 ZM0.16
							 609 L4.84 606.2 a0.447247 0.47432 -180 0 0 0.142306 -0.19404 L8.27 608.16 L5.94 609.56 L1.87 611.96
							 a0.304941 0.3234 0 0 1 -0.447247 -0.12936 L0.08 609.41 a0.284612 0.30184 0 0 1 0.0813176 -0.40964 Z"
						class="st13"/>
			</g>
			<g id="shape1257-72" v:mID="1257" v:groupContext="shape" transform="translate(17.2597,-4.00343)">
				<title>Sheet.1257</title>
				<v:userDefs>
					<v:ud v:nameU="msvDisableCustomConnectionPoints" v:prompt="" v:val="VT0(1):5"/>
				</v:userDefs>
				<path d="M10.82 592.1 L10.82 605.34 L0 612 L0 598.74 L10.82 592.1 Z" class="st14"/>
			</g>
			<g id="shape1258-74" v:mID="1258" v:groupContext="shape" transform="translate(6.46475,-17.2413)">
				<title>Sheet.1258</title>
				<v:userDefs>
					<v:ud v:nameU="msvDisableCustomConnectionPoints" v:prompt="" v:val="VT0(1):5"/>
				</v:userDefs>
				<path d="M21.61 605.34 L10.82 612 L0 605.34 L10.82 598.68 L21.61 605.34 Z" class="st15"/>
			</g>
			<g id="shape1259-76" v:mID="1259" v:groupContext="shape" transform="translate(6.46475,-4.00343)">
				<title>Sheet.1259</title>
				<v:userDefs>
					<v:ud v:nameU="msvDisableCustomConnectionPoints" v:prompt="" v:val="VT0(1):5"/>
				</v:userDefs>
				<path d="M10.79 598.76 L10.79 612 L0 605.34 L0 592.1 L10.79 598.76 Z" class="st16"/>
			</g>
			<g id="shape1260-78" v:mID="1260" v:groupContext="shape" transform="translate(6.46475,-4.00343)">
				<title>Sheet.1260</title>
				<v:userDefs>
					<v:ud v:nameU="msvDisableCustomConnectionPoints" v:prompt="" v:val="VT0(1):5"/>
				</v:userDefs>
				<path d="M0 605.34 L10.79 598.74 L10.79 612 L0 605.34 Z" class="st15"/>
			</g>
			<g id="shape1261-80" v:mID="1261" v:groupContext="shape" transform="translate(17.2597,-4.00343)">
				<title>Sheet.1261</title>
				<v:userDefs>
					<v:ud v:nameU="msvDisableCustomConnectionPoints" v:prompt="" v:val="VT0(1):5"/>
				</v:userDefs>
				<path d="M10.82 605.34 L0 598.74 L0 612 L10.82 605.34 Z" class="st16"/>
			</g>
			<g id="shape1252-82" v:mID="1252" v:groupContext="groupContent">
				<v:textBlock v:margins="rect(0,0,0,0)"/>
				<v:textRect cx="17.28" cy="628.202" width="72" height="32.4036"/>
				<rect v:rectContext="textBkgnd" x="-3.00735" y="612.002" width="40.5747" height="32.3998" class="st17"/>
				<text x="-3.01" y="620.1" class="st18" v:langID="1033"><v:paragraph v:horizAlign="1"/><v:tabList/>Cloud Shell<v:newlineChar/><tspan
							x="0.39" dy="1.2em" class="st6">Resource<v:newlineChar/></tspan><tspan x="5.77" dy="1.2em" class="st6">Group</tspan></text>			</g>
		</g>
		<g id="group1386-87" transform="translate(648.769,-469.332)" v:mID="1386" v:groupContext="group">
			<title>Key Vaults</title>
			<desc>Key Vault</desc>
			<g id="group1387-88" v:mID="1387" v:groupContext="group">
				<v:userDefs>
					<v:ud v:nameU="msvDisableCustomConnectionPoints" v:prompt="" v:val="VT0(1):5"/>
				</v:userDefs>
				<title>Sheet.1387</title>
				<g id="shape1388-89" v:mID="1388" v:groupContext="shape">
					<title>Sheet.1388</title>
					<v:userDefs>
						<v:ud v:nameU="msvDisableCustomConnectionPoints" v:prompt="" v:val="VT0(1):5"/>
					</v:userDefs>
					<path d="M15.37 581.27 C6.88 581.27 0 588.15 0 596.63 C0 605.12 6.88 612 15.37 612 C23.85 612 30.73 605.12 30.73
								 596.63 C30.72 588.15 23.85 581.28 15.37 581.27 ZM15.37 609.9 C8.04 609.9 2.1 603.96 2.1 596.63 C2.1
								 589.31 8.04 583.37 15.37 583.37 C22.7 583.37 28.63 589.31 28.63 596.63 C28.63 603.96 22.69 609.9
								 15.37 609.9 Z" class="st19"/>
				</g>
				<g id="shape1389-93" v:mID="1389" v:groupContext="shape" transform="translate(2.09692,-2.09692)">
					<title>Sheet.1389</title>
					<v:userDefs>
						<v:ud v:nameU="msvDisableCustomConnectionPoints" v:prompt="" v:val="VT0(1):5"/>
					</v:userDefs>
					<ellipse cx="13.2685" cy="598.732" rx="13.2685" ry="13.2685" class="st20"/>
				</g>
				<g id="shape1390-95" v:mID="1390" v:groupContext="shape" transform="translate(6.05577,-0.835154)">
					<title>Sheet.1390</title>
					<v:userDefs>
						<v:ud v:nameU="msvDisableCustomConnectionPoints" v:prompt="" v:val="VT0(1):5"/>
					</v:userDefs>
					<path d="M17.33 594.45 C18.62 593.15 18.62 591.07 17.33 589.77 L11.64 584.06 C10.35 582.78 8.27 582.78 6.98 584.06
								 L1.28 589.77 C0 591.07 0 593.15 1.28 594.45 L6.02 599.28 C6.19 599.45 6.29 599.68 6.29 599.93 L6.29
								 608.75 C6.29 609.05 6.41 609.33 6.62 609.54 L8.79 611.71 C9.07 612 9.54 612 9.83 611.71 C9.83 611.71
								 9.83 611.71 9.83 611.71 L11.93 609.61 L13.16 608.38 C13.32 608.21 13.32 607.94 13.16 607.77 L12.28
								 606.88 C12.1 606.7 12.1 606.4 12.28 606.22 L13.16 605.33 C13.32 605.16 13.32 604.89 13.16 604.71
								 L12.28 603.83 C12.1 603.64 12.1 603.35 12.28 603.16 L13.16 602.28 C13.32 602.1 13.32 601.84 13.16
								 601.66 L11.93 600.42 L11.93 599.96 L17.33 594.45 ZM9.31 585.45 C10.34 585.45 11.18 586.29 11.18
								 587.32 C11.18 588.35 10.34 589.19 9.31 589.19 C8.28 589.19 7.44 588.35 7.44 587.32 C7.44 586.29
								 8.28 585.45 9.31 585.45 Z" class="st21"/>
				</g>
				<g id="shape1391-99" v:mID="1391" v:groupContext="shape" transform="translate(13.7493,-3.82688)">
					<title>Sheet.1391</title>
					<v:userDefs>
						<v:ud v:nameU="msvDisableCustomConnectionPoints" v:prompt="" v:val="VT0(1):5"/>
					</v:userDefs>
					<path d="M0.13 611.85 C0.31 612 0.57 611.98 0.72 611.81 C0.78 611.73 0.82 611.64 0.82 611.54 L0.82 604.31 C0.82
								 604.17 0.74 604.03 0.62 603.95 C0.44 603.83 0.19 603.88 0.07 604.06 C0.02 604.14 0 604.23 0.01 604.31
								 L0.01 611.54 C0.01 611.66 0.06 611.76 0.13 611.85 Z" class="st22"/>
				</g>
				<g id="shape1392-101" v:mID="1392" v:groupContext="shape" transform="translate(10.8082,-20.0654)">
					<title>Sheet.1392</title>
					<v:userDefs>
						<v:ud v:nameU="msvDisableCustomConnectionPoints" v:prompt="" v:val="VT0(1):5"/>
					</v:userDefs>
					<path d="M0.51 610.9 L8.84 610.9 C9.12 610.9 9.35 611.12 9.35 611.4 L9.35 611.49 C9.35 611.77 9.12 612 8.84 612
								 L0.51 612 C0.23 612 0 611.77 0 611.49 L0 611.4 C0 611.13 0.23 610.9 0.51 610.9 Z" class="st22"/>
				</g>
				<g id="shape1393-103" v:mID="1393" v:groupContext="shape" transform="translate(10.8082,-18.2758)">
					<title>Sheet.1393</title>
					<v:userDefs>
						<v:ud v:nameU="msvDisableCustomConnectionPoints" v:prompt="" v:val="VT0(1):5"/>
					</v:userDefs>
					<path d="M0.51 610.9 L8.84 610.9 C9.12 610.9 9.35 611.12 9.35 611.4 L9.35 611.49 C9.35 611.77 9.12 612 8.84 612
								 L0.51 612 C0.23 612 0 611.77 0 611.49 L0 611.4 C0 611.12 0.23 610.9 0.51 610.9 Z" class="st22"/>
				</g>
			</g>
			<g id="shape1386-105" v:mID="1386" v:groupContext="groupContent">
				<v:textBlock v:margins="rect(0,0,0,0)"/>
				<v:textRect cx="15.3654" cy="617.402" width="72" height="10.8036"/>
				<text x="-1.88" y="620.1" class="st18" v:langID="1033"><v:paragraph v:horizAlign="1"/><v:tabList/>Key Vault</text>			</g>
		</g>
	</g>
</svg>
