<?xml version="1.0" encoding="UTF-8" standalone="no"?>
<!DOCTYPE svg PUBLIC "-//W3C//DTD SVG 1.1//EN" "http://www.w3.org/Graphics/SVG/1.1/DTD/svg11.dtd">
<!-- Generated by Microsoft Visio, SVG Export ERRes2Step4.svg 2.4 -->
<svg xmlns="http://www.w3.org/2000/svg" xmlns:xlink="http://www.w3.org/1999/xlink" xmlns:ev="http://www.w3.org/2001/xml-events"
		xmlns:v="http://schemas.microsoft.com/visio/2003/SVGExtensions/" width="11in" height="8.5in" viewBox="0 0 792 612"
		xml:space="preserve" color-interpolation-filters="sRGB" class="st19">
	<v:documentProperties v:langID="1033" v:viewMarkup="false">
		<v:userDefs>
			<v:ud v:nameU="msvNoAutoConnect" v:prompt="" v:val="VT0(0):26"/>
		</v:userDefs>
	</v:documentProperties>

	<style type="text/css">
	<![CDATA[
		.st1 {fill:#dee6f3;stroke:#ffffff;stroke-linecap:round;stroke-linejoin:round;stroke-width:0.5}
		.st2 {fill:#1e4a73;font-family:Calibri;font-size:0.833336em}
		.st3 {font-size:1em}
		.st4 {stroke:#ff0000;stroke-dasharray:0,1.95186;stroke-linecap:round;stroke-linejoin:round;stroke-width:0.650619}
		.st5 {fill:#0078d7}
		.st6 {fill:#0078d7;font-family:Calibri;font-size:0.44101em}
		.st7 {fill:none;stroke:#ff0000;stroke-dasharray:0,1.5;stroke-linecap:round;stroke-linejoin:round;stroke-width:0.5}
		.st8 {fill:none;stroke:none;stroke-linecap:round;stroke-linejoin:round;stroke-width:0.5}
		.st9 {fill:#5b9bd5;font-family:Calibri;font-size:1.00001em}
		.st10 {fill:#ff0000;stroke:none;stroke-linecap:butt;stroke-width:0.5}
		.st11 {fill:#00188f;font-family:Calibri;font-size:0.75em}
		.st12 {stroke:#5592c9;stroke-linecap:round;stroke-linejoin:round;stroke-width:0.5}
		.st13 {fill:#0078d7;stroke:none;stroke-linecap:butt;stroke-width:0.5}
		.st14 {fill:#0078d7;font-family:Calibri;font-size:0.75em}
		.st15 {fill:none;stroke:#ff0000;stroke-dasharray:7.5,4.5;stroke-linecap:round;stroke-linejoin:round;stroke-width:0.5}
		.st16 {fill:#ffffff;stroke:none;stroke-linecap:butt}
		.st17 {fill:#4271c6;font-family:Calibri;font-size:0.75em}
		.st18 {stroke:#ff0000;stroke-linecap:round;stroke-linejoin:round;stroke-width:0.5}
		.st19 {fill:none;fill-rule:evenodd;font-size:12px;overflow:visible;stroke-linecap:square;stroke-miterlimit:3}
	]]>
	</style>

	<g v:mID="156" v:index="7" v:groupContext="foregroundPage">
		<v:userDefs>
			<v:ud v:nameU="msvThemeOrder" v:val="VT0(0):26"/>
		</v:userDefs>
		<title>2.4</title>
		<v:pageProperties v:drawingScale="1" v:pageScale="1" v:drawingUnits="0" v:shadowOffsetX="9" v:shadowOffsetY="-9"/>
		<v:layer v:name="Connector" v:index="0"/>
		<g id="group1739-1" transform="translate(445.5,-324)" v:mID="1739" v:groupContext="group">
			<v:custProps>
				<v:cp v:nameU="ShapeClass" v:lbl="ShapeClass" v:prompt="" v:type="0" v:format="" v:sortKey="" v:invis="true"
						v:ask="false" v:langID="1033" v:cal="0" v:val="VT4(Location)"/>
				<v:cp v:nameU="ShapeType" v:lbl="ShapeType" v:prompt="" v:type="0" v:format="" v:sortKey="" v:invis="true"
						v:ask="false" v:langID="1033" v:cal="0" v:val="VT4(Cloud)"/>
			</v:custProps>
			<v:userDefs>
				<v:ud v:nameU="visVersion" v:prompt="" v:val="VT0(15):26"/>
				<v:ud v:nameU="ShapeClass" v:prompt="" v:val="VT0(5):26"/>
				<v:ud v:nameU="SolSH" v:prompt="" v:val="VT15({BF0433D9-CD73-4EB5-8390-8653BE590246}):41"/>
				<v:ud v:nameU="visLegendShape" v:prompt="" v:val="VT0(2):26"/>
			</v:userDefs>
			<title>Cloud.1739</title>
			<desc>Microsoft WAN</desc>
			<g id="shape1740-2" v:mID="1740" v:groupContext="shape" transform="translate(0,-18.5642)">
				<title>Sheet.1740</title>
				<path d="M62.12 575.7 C61.73 571.59 58.64 568.38 54.84 568.38 C53.76 568.38 52.74 568.65 51.82 569.11 C50.03 565.07
							 46.33 562.11 39.39 562.35 C30.37 562.66 19.69 567.57 17.54 576.28 C14.97 576.87 13.31 578.55 12.32 580.8
							 C11.93 580.75 11.52 580.72 11.1 580.72 C5.16 580.72 0.6 585.96 0.34 592.41 C0 600.76 5.16 604.1 11.1
							 604.1 C11.95 604.1 12.77 603.98 13.56 603.78 C14.8 604.75 16.41 605.35 18.17 605.35 C19.8 605.35 21.31
							 604.84 22.5 603.99 C24.78 608.69 29.49 612 34.91 611.61 C40.61 611.21 44.04 609.74 46.06 607.47 C46.18
							 607.46 46.3 607.46 46.43 607.44 C52.81 606.45 55.61 604.45 56.52 601.16 C56.68 601.17 56.86 601.17 57.03
							 601.17 C65.3 601.17 72 598.25 72 588.02 C72 582.34 67.87 577.54 62.12 575.7 Z" class="st1"/>
			</g>
			<g id="shape1739-4" v:mID="1739" v:groupContext="groupContent">
				<v:textBlock v:margins="rect(4,4,4,4)"/>
				<v:textRect cx="36" cy="603.446" width="49.69" height="32.0037"/>
				<text x="16.29" y="600.45" class="st2" v:langID="1033"><v:paragraph v:horizAlign="1"/><v:tabList/>Microsoft<v:newlineChar/><tspan
							x="25.43" dy="1.2em" class="st3">WAN</tspan></text>			</g>
		</g>
		<g id="group1546-7" transform="translate(596.25,-362.588)" v:mID="1546" v:groupContext="group">
			<v:custProps>
				<v:cp v:nameU="ShapeClass" v:lbl="ShapeClass" v:prompt="" v:type="0" v:format="" v:sortKey="" v:invis="true"
						v:ask="false" v:langID="1033" v:cal="0" v:val="VT4(Location)"/>
				<v:cp v:nameU="ShapeType" v:lbl="ShapeType" v:prompt="" v:type="0" v:format="" v:sortKey="" v:invis="true"
						v:ask="false" v:langID="1033" v:cal="0" v:val="VT4(Cloud)"/>
			</v:custProps>
			<v:userDefs>
				<v:ud v:nameU="visVersion" v:prompt="" v:val="VT0(15):26"/>
				<v:ud v:nameU="ShapeClass" v:prompt="" v:val="VT0(5):26"/>
				<v:ud v:nameU="SolSH" v:prompt="" v:val="VT15({BF0433D9-CD73-4EB5-8390-8653BE590246}):41"/>
				<v:ud v:nameU="visLegendShape" v:prompt="" v:val="VT0(2):26"/>
			</v:userDefs>
			<title>Cloud</title>
			<desc>Equinix SIN</desc>
			<g id="shape1547-8" v:mID="1547" v:groupContext="shape" transform="translate(0,-15.3606)">
				<title>Sheet.1547</title>
				<path d="M62.12 581.97 C61.73 578.56 58.64 575.9 54.84 575.9 C53.76 575.9 52.74 576.13 51.82 576.51 C50.03 573.17
							 46.33 570.72 39.39 570.92 C30.37 571.18 19.69 575.24 17.54 582.44 C14.97 582.93 13.31 584.33 12.32 586.18
							 C11.93 586.14 11.52 586.12 11.1 586.12 C5.16 586.12 0.6 590.45 0.34 595.79 C0 602.7 5.16 605.46 11.1
							 605.46 C11.95 605.46 12.77 605.37 13.56 605.2 C14.8 606 16.41 606.5 18.17 606.5 C19.8 606.5 21.31 606.07
							 22.5 605.37 C24.78 609.26 29.49 612 34.91 611.68 C40.61 611.35 44.04 610.13 46.06 608.25 C46.18 608.24
							 46.3 608.24 46.43 608.23 C52.81 607.41 55.61 605.76 56.52 603.03 C56.68 603.04 56.86 603.04 57.03 603.04
							 C65.3 603.04 72 600.63 72 592.16 C72 587.46 67.87 583.49 62.12 581.97 Z" class="st1"/>
			</g>
			<g id="shape1546-10" v:mID="1546" v:groupContext="groupContent">
				<v:textBlock v:margins="rect(4,4,4,4)"/>
				<v:textRect cx="36" cy="604.922" width="39.84" height="32.0037"/>
				<text x="21.22" y="601.92" class="st2" v:langID="1033"><v:paragraph v:horizAlign="1"/><v:tabList/>Equinix<v:newlineChar/><tspan
							x="29.22" dy="1.2em" class="st3">SIN</tspan></text>			</g>
		</g>
		<g id="group1551-13" transform="translate(289.125,-301.5)" v:mID="1551" v:groupContext="group">
			<title>Smart Virtual Network Box.4</title>
			<g id="shape1552-14" v:mID="1552" v:groupContext="shape" transform="translate(0,-4.90891)">
				<title>Virtual Network Box 1</title>
				<path d="M104.49 612 L0 612 L0 513.41 L112.96 513.41 L112.96 607.27" class="st4"/>
			</g>
			<g id="shape1553-17" v:mID="1553" v:groupContext="shape" transform="translate(104.862,-1.33129)">
				<title>Sheet.1553</title>
				<desc>Virtual Network</desc>
				<v:textBlock v:margins="rect(0,0,0,0)"/>
				<v:textRect cx="-49.7245" cy="616.433" width="125.32" height="7.15523"/>
				<path d="M0 608.42 L3.58 612 L4.01 611.53 L0.9 608.42 L4.01 605.31 L3.58 604.84 L0 608.42 ZM13.21 608.42 L9.63 604.84
							 L9.2 605.31 L12.3 608.42 L9.2 611.53 L9.63 612 L13.21 608.42 ZM9.83 608.42 a0.802481 0.802455 -180 1
							 0 -1.60496 0 a0.802481 0.802455 -180 1 0 1.60496 0 ZM4.21 609.22 C4.65 609.22 5.02 608.86 5.02 608.42
							 C5.02 607.95 4.65 607.62 4.21 607.62 C3.78 607.62 3.41 607.99 3.41 608.42 C3.41 608.86 3.74 609.22 4.21
							 609.22 ZM7.42 608.42 a0.802478 0.802458 -180 1 0 -1.60496 0 a0.802478 0.802458 -180 1 0 1.60496 0 Z"
						class="st5"/>
				<text x="-21.27" y="618.02" class="st6" v:langID="1033"><v:paragraph v:horizAlign="2"/><v:tabList/>Virtual Network</text>			</g>
		</g>
		<g id="shape1557-21" v:mID="1557" v:groupContext="shape" transform="translate(679.5,-316.492)">
			<title>Virtual Network Box</title>
			<path d="M0 612 L72 612 L72 524.98 L0 524.98 L0 612 Z" class="st7"/>
		</g>
		<g id="shape1558-23" v:mID="1558" v:groupContext="shape" transform="translate(652.5,-264)">
			<title>Sheet.1558</title>
			<desc>On-Prem Data Center</desc>
			<v:textBlock v:margins="rect(4,4,4,4)"/>
			<v:textRect cx="58.5" cy="596.625" width="117.01" height="30.75"/>
			<rect x="0" y="581.25" width="117" height="30.75" class="st8"/>
			<text x="36.57" y="593.03" class="st9" v:langID="1033"><v:paragraph v:horizAlign="1"/><v:tabList/>On-Prem<v:newlineChar/><tspan
						x="29.27" dy="1.2em" class="st3">Data Center</tspan></text>		</g>
		<g id="shape1559-27" v:mID="1559" v:groupContext="shape" transform="translate(705,-352.133)">
			<title>Server (generic)</title>
			<desc>On-Prem Server</desc>
			<v:textBlock v:margins="rect(0,0,0,0)" v:verticalAlign="0"/>
			<v:textRect cx="7.40395" cy="633" width="72" height="31.5"/>
			<path d="M13.5 581.25 L1.5 581.25 C0.67 581.25 0 581.91 0 582.71 L0 612 L15 612 L15 582.71 C15 581.91 14.33 581.25 13.5
						 581.25 ZM12.75 609 L2.25 609 L2.25 607.5 L12.75 607.5 L12.75 609 ZM12.75 606 L2.25 606 L2.25 604.5 L12.75
						 604.5 L12.75 606 ZM12.75 587.25 L2.25 587.25 L2.25 585.75 L12.75 585.75 L12.75 587.25 Z" class="st10"/>
			<text x="-21.78" y="624" class="st11" v:langID="1033"><v:paragraph v:spLine="-1" v:horizAlign="1"/><v:tabList/>On-Prem Server</text>		</g>
		<g id="shape1561-30" v:mID="1561" v:groupContext="shape" transform="translate(1048.4,158.069) rotate(89.8743)">
			<title>Sheet.1561</title>
			<path d="M0 612 L196.47 612" class="st12"/>
		</g>
		<g id="shape1562-33" v:mID="1562" v:groupContext="shape" transform="translate(236.75,-256.5)">
			<title>Sheet.1562</title>
			<desc>Azure West US 2</desc>
			<v:textBlock v:margins="rect(4,4,4,4)"/>
			<v:textRect cx="76" cy="602" width="152.01" height="20"/>
			<rect x="0" y="592" width="152" height="20" class="st8"/>
			<text x="4" y="605.6" class="st9" v:langID="1033"><v:paragraph/><v:tabList/>Azure West US 2</text>		</g>
		<g id="shape1564-36" v:mID="1564" v:groupContext="shape" transform="translate(1284.75,159.412) rotate(90)">
			<title>Sheet.1564</title>
			<path d="M0 612 L196.47 612" class="st12"/>
		</g>
		<g id="shape1565-39" v:mID="1565" v:groupContext="shape" transform="translate(543.75,-352.799)">
			<title>ExpressRoute</title>
			<desc>ExpressRoute Equinix Singapore Metro</desc>
			<v:textBlock v:margins="rect(0,0,0,0)" v:verticalAlign="0"/>
			<v:textRect cx="19.0984" cy="629.43" width="72" height="31.5"/>
			<path d="M33.92 603.39 C33.27 603.39 32.66 603.54 32.11 603.8 L23 594.68 C23.25 594.13 23.4 593.52 23.4 592.88 C23.4
						 590.52 21.49 588.6 19.12 588.6 C16.76 588.6 14.84 590.51 14.84 592.88 C14.84 593.53 14.99 594.14 15.24 594.69
						 L6.09 603.84 C5.54 603.59 4.93 603.44 4.28 603.44 C1.92 603.44 0 605.36 0 607.72 C0 610.08 1.92 612 4.28
						 612 C6.12 612 7.69 610.83 8.29 609.2 L29.92 609.2 C30.54 610.81 32.09 611.96 33.92 611.96 C36.28 611.96
						 38.2 610.04 38.2 607.68 C38.2 605.31 36.28 603.39 33.92 603.39 ZM4.28 609.12 C3.51 609.12 2.88 608.49 2.88
						 607.72 C2.88 606.94 3.51 606.32 4.28 606.32 C5.05 606.32 5.68 606.94 5.68 607.72 C5.68 608.49 5.05 609.12
						 4.28 609.12 ZM19.12 591.48 C19.9 591.48 20.52 592.1 20.52 592.88 C20.52 593.65 19.89 594.28 19.12 594.28
						 C18.35 594.28 17.72 593.65 17.72 592.88 C17.72 592.1 18.35 591.48 19.12 591.48 ZM29.88 606.26 L8.3 606.26
						 C8.26 606.15 8.22 606.04 8.16 605.92 L17.33 596.76 C17.87 597.01 18.48 597.16 19.12 597.16 C19.76 597.16
						 20.37 597.01 20.92 596.76 L30.04 605.88 C29.98 606 29.92 606.13 29.88 606.26 ZM33.92 609.08 C33.14 609.08
						 32.51 608.45 32.51 607.67 C32.51 606.9 33.14 606.27 33.92 606.27 C34.69 606.27 35.32 606.9 35.32 607.67
						 C35.32 608.45 34.69 609.08 33.92 609.08 Z" class="st13"/>
			<text x="-5.67" y="621.78" class="st14" v:langID="1033"><v:paragraph v:horizAlign="1"/><v:tabList/>ExpressRoute<v:newlineChar/><tspan
						x="5.79" dy="1.2em" class="st3">Equinix<v:newlineChar/></tspan><tspan x="-11.74" dy="1.2em" class="st3">Singapore Metro</tspan></text>		</g>
		<g id="group1566-44" transform="translate(385.135,-341.288)" v:mID="1566" v:groupContext="group">
			<title>Azure VPN Gateway</title>
			<desc>ER Gateway</desc>
			<g id="group1567-45" transform="translate(0.653846,-0.653846)" v:mID="1567" v:groupContext="group">
				<title>Sheet.1567</title>
				<g id="group1568-46" v:mID="1568" v:groupContext="group">
					<title>Sheet.1568</title>
					<g id="shape1569-47" v:mID="1569" v:groupContext="shape" transform="translate(13.0769,-7.19231)">
						<title>Sheet.1569</title>
						<rect x="0" y="608.077" width="3.26923" height="3.92308" class="st10"/>
					</g>
					<g id="shape1570-49" v:mID="1570" v:groupContext="shape" transform="translate(10.4615,0)">
						<title>Sheet.1570</title>
						<rect x="0" y="606.115" width="8.5" height="5.88462" class="st10"/>
					</g>
					<g id="shape1571-51" v:mID="1571" v:groupContext="shape" transform="translate(20.2692,-1.30769)">
						<title>Sheet.1571</title>
						<rect x="0" y="608.731" width="9.15385" height="3.26923" class="st10"/>
					</g>
					<g id="shape1572-53" v:mID="1572" v:groupContext="shape" transform="translate(1.45883E-13,-1.30769)">
						<title>Sheet.1572</title>
						<rect x="0" y="608.731" width="9.15385" height="3.26923" class="st10"/>
					</g>
				</g>
				<g id="shape1573-55" v:mID="1573" v:groupContext="shape" transform="translate(0.0653846,-12.4231)">
					<title>Sheet.1573</title>
					<path d="M25.83 591.4 L25.83 589.97 C25.83 587.09 24.78 584.41 22.95 582.51 C21.25 580.55 17.46 579.31 14.65
								 579.31 C11.83 579.31 8.04 580.55 6.34 582.51 C4.58 584.41 3.47 587.09 3.47 589.97 L3.47 591.4 C0.92
								 591.4 0 592.91 0 594.87 L0 608.53 C-0 610.23 1.05 612 3.01 612 L26.28 612 C28.51 612 29.29 610.23
								 29.29 608.53 L29.29 594.87 C29.29 593.1 28.57 591.4 25.83 591.4 ZM8.63 590.68 C8.63 588.98 9.22
								 586.83 10.2 585.72 C11.18 584.6 13.27 584.08 14.65 584.02 C16.02 584.02 18.11 584.6 19.09 585.72
								 C20.07 586.83 20.66 588.27 20.66 589.9 L20.66 591.34 L8.63 591.34 L8.63 590.68 ZM10.72 597.03 L14.52
								 593.23 L18.31 597.03 L15.63 597.03 L15.63 599.77 L13.34 599.77 L13.34 597.03 L10.72 597.03 ZM3.73
								 602.78 L3.73 600.56 L7.65 600.56 L7.65 597.94 L11.31 601.6 L7.65 605.27 L7.65 602.72 L3.73 602.72
								 L3.73 602.78 ZM14.52 610.17 L10.66 606.31 L13.34 606.31 L13.34 603.63 L15.63 603.63 L15.63 606.31
								 L18.37 606.31 L14.52 610.17 ZM25.3 602.78 L21.38 602.78 L21.38 605.4 L17.65 601.67 L21.38 597.94
								 L21.38 600.56 L25.3 600.56 L25.3 602.78 Z" class="st10"/>
				</g>
			</g>
			<g id="shape1566-57" v:mID="1566" v:groupContext="groupContent">
				<v:textBlock v:margins="rect(0,0,0,0)" v:verticalAlign="0"/>
				<v:textRect cx="15.3654" cy="640.538" width="49.5" height="46.4231"/>
				<text x="10.72" y="625.43" class="st14" v:langID="1033"><v:paragraph v:horizAlign="1"/><v:tabList/>ER<v:newlineChar/><tspan
							x="-0.78" dy="1.2em" class="st3">Gateway</tspan></text>			</g>
		</g>
		<g id="shape1582-60" v:mID="1582" v:groupContext="shape" v:layerMember="0" transform="translate(415.146,-373.5)">
			<title>Dynamic connector</title>
			<path d="M0 621 L136.45 621" class="st12"/>
		</g>
		<g id="shape1632-63" v:mID="1632" v:groupContext="shape" transform="translate(436.397,-452.588)">
			<title>Sheet.1632</title>
			<path d="M0 612 L319.6 612" class="st12"/>
		</g>
		<g id="shape1644-66" v:mID="1644" v:groupContext="shape" v:layerMember="0" transform="translate(574.098,-364.5)">
			<title>Dynamic connector.171</title>
			<path d="M0 612 L58.15 577.91" class="st12"/>
		</g>
		<g id="shape1650-69" v:mID="1650" v:groupContext="shape" transform="translate(234,-256.5)">
			<title>Sheet.1650</title>
			<path d="M0 612 L186.5 612 L186.5 420.24 L0 420.24 L0 612 Z" class="st15"/>
		</g>
		<g id="group1651-71" transform="translate(216.959,-435.515)" v:mID="1651" v:groupContext="group">
			<title>Resource group</title>
			<desc>Student Resource Group</desc>
			<g id="group1652-72" transform="translate(0.653846,-0.457692)" v:mID="1652" v:groupContext="group">
				<title>Sheet.1652</title>
				<g id="shape1653-73" v:mID="1653" v:groupContext="shape" transform="translate(6.47308,-14.9077)">
					<title>Sheet.1653</title>
					<path d="M9.87 612 C9.81 612 9.81 612 9.74 611.93 L0.13 606.38 C0.07 606.31 0 606.25 0 606.12 C0 605.98 0.07
								 605.92 0.13 605.85 L9.68 600.36 C9.74 600.3 9.87 600.3 9.94 600.36 L19.55 605.92 C19.62 605.98 19.68
								 606.05 19.68 606.18 C19.68 606.31 19.62 606.38 19.55 606.44 L10 611.93 C9.94 612 9.94 612 9.87 612
								 Z" class="st10"/>
				</g>
				<g id="shape1654-75" v:mID="1654" v:groupContext="shape" transform="translate(5.1,-1.43846)">
					<title>Sheet.1654</title>
					<path d="M9.87 612 C9.81 612 9.74 612 9.74 611.93 L0.13 606.38 C0.07 606.31 0 606.25 0 606.12 L0 595 C0 594.87
								 0.07 594.8 0.13 594.74 C0.2 594.67 0.33 594.67 0.39 594.74 L10 600.3 C10.07 600.36 10.13 600.43
								 10.13 600.56 L10.13 611.67 C10.13 611.8 10.07 611.87 10 611.93 C9.94 612 9.87 612 9.87 612 Z"
							class="st10"/>
				</g>
				<g id="shape1655-77" v:mID="1655" v:groupContext="shape" transform="translate(17.3923,-1.43846)">
					<title>Sheet.1655</title>
					<path d="M0.26 612 C0.2 612 0.13 612 0.13 611.93 C0.07 611.87 0 611.8 0 611.67 L0 600.62 C-0 600.49 0.07 600.43
								 0.13 600.36 L9.74 594.8 C9.81 594.74 9.94 594.74 10 594.8 C10.07 594.87 10.13 594.93 10.13 595.07
								 L10.13 606.12 C10.13 606.25 10.07 606.31 10 606.38 L0.39 611.93 C0.39 612 0.33 612 0.26 612 Z"
							class="st10"/>
				</g>
				<g id="shape1656-79" v:mID="1656" v:groupContext="shape" transform="translate(1.63869E-13,-0.196154)">
					<title>Sheet.1656</title>
					<path d="M6.21 612 C6.08 612 5.88 611.93 5.75 611.87 L1.31 609.25 C0.52 608.8 0 607.88 0 607.03 L0 590.55 C0
								 589.7 0.52 588.72 1.31 588.33 L5.75 585.72 C6.21 585.45 6.8 585.58 7.06 586.04 C7.32 586.5 7.19
								 587.09 6.73 587.35 L2.29 589.97 C2.16 590.03 1.96 590.36 1.96 590.55 L1.96 607.03 C1.96 607.23 2.16
								 607.55 2.29 607.62 L6.73 610.23 C7.19 610.5 7.32 611.08 7.06 611.54 C6.87 611.8 6.54 612 6.21 612
								 Z" class="st10"/>
				</g>
				<g id="shape1657-81" v:mID="1657" v:groupContext="shape" transform="translate(25.3038,0)">
					<title>Sheet.1657</title>
					<path d="M1.11 585.45 C1.24 585.45 1.44 585.52 1.57 585.58 L6.02 588.2 C6.8 588.66 7.32 589.57 7.32 590.42 L7.32
								 606.9 C7.32 607.75 6.8 608.73 6.02 609.12 L1.57 611.74 C1.11 612 0.52 611.87 0.26 611.41 C0 610.95
								 0.13 610.37 0.59 610.1 L5.03 607.49 C5.17 607.42 5.36 607.1 5.36 606.9 L5.36 590.42 C5.36 590.23
								 5.17 589.9 5.03 589.83 L0.59 587.22 C0.13 586.96 0 586.37 0.26 585.91 C0.46 585.58 0.78 585.45 1.11
								 585.45 Z" class="st10"/>
				</g>
			</g>
			<g id="shape1651-83" v:mID="1651" v:groupContext="groupContent">
				<v:textBlock v:margins="rect(0,0,0,0)" v:verticalAlign="0"/>
				<v:textRect cx="16.6861" cy="630.633" width="52.32" height="27.9846"/>
				<rect v:rectContext="textBkgnd" x="-0.204323" y="616.64" width="33.7808" height="32.3995" class="st16"/>
				<text x="2.27" y="624.74" class="st17" v:langID="1033"><v:paragraph v:horizAlign="1"/><v:tabList/>Student <tspan
							x="-0.2" dy="1.2em" class="st3">Resource </tspan><tspan x="5.18" dy="1.2em" class="st3">Group</tspan></text>			</g>
		</g>
		<g id="group1682-88" transform="translate(272.068,-417.118)" v:mID="1682" v:groupContext="group">
			<title>Key Vault</title>
			<desc>Key Vault</desc>
			<g id="shape1683-89" v:mID="1683" v:groupContext="shape">
				<title>Sheet.1683</title>
				<path d="M22.68 600.71 C22.68 597.01 20.91 593.77 18.23 591.7 C18.23 591.8 18.23 591.95 18.23 592.05 C18.23 593.17
							 17.92 594.23 17.47 595.14 C18.78 596.61 19.59 598.53 19.59 600.66 C19.59 605.22 15.9 608.91 11.34 608.91
							 C6.78 608.91 3.09 605.22 3.09 600.66 C3.09 598.38 4 596.36 5.47 594.84 C5.06 593.98 4.81 593.01 4.81
							 592 C4.81 591.8 4.81 591.55 4.86 591.34 C1.92 593.37 0 596.81 0 600.66 C-0 606.94 5.06 612 11.34 612
							 C17.62 612 22.68 606.99 22.68 600.71 Z" class="st10"/>
			</g>
			<g id="shape1684-91" v:mID="1684" v:groupContext="shape" transform="translate(6.27799,-5.31604)">
				<title>Sheet.1684</title>
				<path d="M5.21 592.05 C2.33 592.05 0 594.38 0 597.27 C-0 599.65 1.57 601.62 3.75 602.28 L3.75 607.44 L1.32 607.44
							 L1.32 610.08 L3.75 610.08 L3.75 612 L6.63 612 L6.63 602.28 C8.81 601.67 10.38 599.65 10.38 597.27 C10.43
							 594.38 8.1 592.05 5.21 592.05 ZM5.21 594.79 C6.58 594.79 7.7 595.9 7.7 597.27 C7.7 598.63 6.58 599.75
							 5.21 599.75 C3.85 599.75 2.73 598.63 2.73 597.27 C2.73 595.9 3.85 594.79 5.21 594.79 Z" class="st10"/>
			</g>
			<g id="shape1682-93" v:mID="1682" v:groupContext="groupContent">
				<v:textBlock v:margins="rect(0,0,0,0)" v:verticalAlign="0"/>
				<v:textRect cx="11.425" cy="628.216" width="47.18" height="25.2639"/>
				<text x="-5.82" y="623.68" class="st14" v:langID="1033"><v:paragraph v:horizAlign="1"/><v:tabList/>Key Vault</text>			</g>
		</g>
		<g id="shape1717-95" v:mID="1717" v:groupContext="shape" transform="translate(436.828,-256.118)">
			<title>Sheet.1717</title>
			<path d="M0 612 L319.5 612" class="st12"/>
		</g>
		<g id="shape1736-98" v:mID="1736" v:groupContext="shape" transform="translate(1368,158.39) rotate(89.9044)">
			<title>Sheet.1736</title>
			<path d="M0 612 L196.47 612" class="st12"/>
		</g>
		<g id="shape1738-101" v:mID="1738" v:groupContext="shape" transform="translate(1138.5,159.424) rotate(90)">
			<title>Sheet.1738</title>
			<path d="M0 612 L196.46 612" class="st12"/>
		</g>
		<g id="shape1741-104" v:mID="1741" v:groupContext="shape" transform="translate(541.125,-261.375)">
			<title>Sheet.1741</title>
			<desc>Service Provider Network</desc>
			<v:textBlock v:margins="rect(4,4,4,4)"/>
			<v:textRect cx="58.5" cy="596.625" width="117.01" height="30.75"/>
			<rect x="0" y="581.25" width="117" height="30.75" class="st8"/>
			<text x="19.03" y="593.03" class="st9" v:langID="1033"><v:paragraph v:horizAlign="1"/><v:tabList/>Service Provider<v:newlineChar/><tspan
						x="37.36" dy="1.2em" class="st3">Network</tspan></text>		</g>
		<g id="shape1742-108" v:mID="1742" v:groupContext="shape" transform="translate(436.5,-261.375)">
			<title>Sheet.1742</title>
			<desc>Microsoft Backbone</desc>
			<v:textBlock v:margins="rect(4,4,4,4)"/>
			<v:textRect cx="49.5" cy="596.625" width="99.01" height="30.75"/>
			<rect x="0" y="581.25" width="99" height="30.75" class="st8"/>
			<text x="25.85" y="593.03" class="st9" v:langID="1033"><v:paragraph v:horizAlign="1"/><v:tabList/>Microsoft <tspan
						x="25.64" dy="1.2em" class="st3">Backbone</tspan></text>		</g>
		<g id="shape1801-112" v:mID="1801" v:groupContext="shape" v:layerMember="0" transform="translate(632.25,-398.588)">
			<title>Dynamic connector.1801</title>
			<path d="M0 612 L72.28 643.29" class="st18"/>
		</g>
		<g id="group1803-115" transform="translate(596.25,-297)" v:mID="1803" v:groupContext="group">
			<v:custProps>
				<v:cp v:nameU="ShapeClass" v:lbl="ShapeClass" v:prompt="" v:type="0" v:format="" v:sortKey="" v:invis="true"
						v:ask="false" v:langID="1033" v:cal="0" v:val="VT4(Location)"/>
				<v:cp v:nameU="ShapeType" v:lbl="ShapeType" v:prompt="" v:type="0" v:format="" v:sortKey="" v:invis="true"
						v:ask="false" v:langID="1033" v:cal="0" v:val="VT4(Cloud)"/>
			</v:custProps>
			<v:userDefs>
				<v:ud v:nameU="visVersion" v:prompt="" v:val="VT0(15):26"/>
				<v:ud v:nameU="ShapeClass" v:prompt="" v:val="VT0(5):26"/>
				<v:ud v:nameU="SolSH" v:prompt="" v:val="VT15({BF0433D9-CD73-4EB5-8390-8653BE590246}):41"/>
				<v:ud v:nameU="visLegendShape" v:prompt="" v:val="VT0(2):26"/>
			</v:userDefs>
			<title>Cloud.1803</title>
			<desc>Equinix SIN2</desc>
			<g id="shape1804-116" v:mID="1804" v:groupContext="shape" transform="translate(0,-15.3606)">
				<title>Sheet.1804</title>
				<path d="M62.12 581.97 C61.73 578.56 58.64 575.9 54.84 575.9 C53.76 575.9 52.74 576.13 51.82 576.51 C50.03 573.17
							 46.33 570.72 39.39 570.92 C30.37 571.18 19.69 575.24 17.54 582.44 C14.97 582.93 13.31 584.33 12.32 586.18
							 C11.93 586.14 11.52 586.12 11.1 586.12 C5.16 586.12 0.6 590.45 0.34 595.79 C0 602.7 5.16 605.46 11.1
							 605.46 C11.95 605.46 12.77 605.37 13.56 605.2 C14.8 606 16.41 606.5 18.17 606.5 C19.8 606.5 21.31 606.07
							 22.5 605.37 C24.78 609.26 29.49 612 34.91 611.68 C40.61 611.35 44.04 610.13 46.06 608.25 C46.18 608.24
							 46.3 608.24 46.43 608.23 C52.81 607.41 55.61 605.76 56.52 603.03 C56.68 603.04 56.86 603.04 57.03 603.04
							 C65.3 603.04 72 600.63 72 592.16 C72 587.46 67.87 583.49 62.12 581.97 Z" class="st1"/>
			</g>
			<g id="shape1803-118" v:mID="1803" v:groupContext="groupContent">
				<v:textBlock v:margins="rect(4,4,4,4)"/>
				<v:textRect cx="36" cy="604.922" width="39.84" height="32.0037"/>
				<text x="21.22" y="601.92" class="st2" v:langID="1033"><v:paragraph v:horizAlign="1"/><v:tabList/>Equinix<v:newlineChar/><tspan
							x="26.68" dy="1.2em" class="st3">SIN2</tspan></text>			</g>
		</g>
		<g id="shape1806-121" v:mID="1806" v:groupContext="shape" v:layerMember="0" transform="translate(574.098,-364.5)">
			<title>Dynamic connector.1806</title>
			<path d="M0 612 L58.15 643.5" class="st12"/>
		</g>
		<g id="shape1807-124" v:mID="1807" v:groupContext="shape" v:layerMember="0" transform="translate(632.25,-333)">
			<title>Dynamic connector.1807</title>
			<path d="M0 612 L72.28 577.7" class="st18"/>
		</g>
		<g id="group1808-127" transform="translate(317.722,-351)" v:mID="1808" v:groupContext="group">
			<title>Virtual Machine symbol only.122</title>
			<desc>VM</desc>
			<g id="shape1809-128" v:mID="1809" v:groupContext="shape">
				<title>Sheet.1809</title>
				<path d="M21.31 591.07 L1.23 591.07 C0.55 591.07 0 591.68 0 592.36 L0 606.36 C0 607.04 0.55 607.64 1.23 607.64 L8.11
							 607.64 C8.85 610.26 7.85 610.63 3.49 610.63 L3.49 612 L9.03 612 L13.09 612 L18.32 612 L18.32 610.63
							 C13.96 610.63 13.53 610.26 14.27 607.64 L21.31 607.64 C21.99 607.64 22.68 607.04 22.68 606.36 L22.68
							 592.36 C22.68 591.68 21.99 591.07 21.31 591.07 ZM20.94 592.82 L20.94 605.89 L1.74 605.89 L1.74 592.82
							 L20.99 592.78 L20.94 592.82 Z" class="st10"/>
			</g>
			<g id="group1810-130" transform="translate(7.24129,-8.39684)" v:mID="1810" v:groupContext="group">
				<title>Sheet.1810</title>
				<g id="group1811-131" transform="translate(0.359821,-4.61735)" v:mID="1811" v:groupContext="group">
					<title>Sheet.1811</title>
					<g id="shape1812-132" v:mID="1812" v:groupContext="shape">
						<title>Sheet.1812</title>
						<path d="M7.04 609.92 L3.52 607.89 L0 609.92 L0 609.97 L3.52 612 L7.04 609.97 L7.04 609.92 Z" class="st10"/>
					</g>
				</g>
				<g id="group1813-134" transform="translate(4.23753,0)" v:mID="1813" v:groupContext="group">
					<title>Sheet.1813</title>
					<g id="shape1814-135" v:mID="1814" v:groupContext="shape">
						<title>Sheet.1814</title>
						<path d="M0 607.99 L0 612 L3.52 609.97 L3.52 605.96 L0 607.99 Z" class="st10"/>
					</g>
				</g>
				<g id="group1815-137" v:mID="1815" v:groupContext="group">
					<title>Sheet.1815</title>
					<g id="shape1816-138" v:mID="1816" v:groupContext="shape">
						<title>Sheet.1816</title>
						<path d="M3.52 607.99 L0 605.96 L0 609.97 L3.52 612 L3.52 607.99 Z" class="st10"/>
					</g>
				</g>
			</g>
			<g id="shape1808-140" v:mID="1808" v:groupContext="groupContent">
				<v:textBlock v:margins="rect(0,0,0,0)" v:verticalAlign="0"/>
				<v:textRect cx="11.3409" cy="626.285" width="51.75" height="20.9291"/>
				<text x="4.94" y="623.92" class="st14" v:langID="1033"><v:paragraph v:horizAlign="1"/><v:tabList/>VM</text>			</g>
		</g>
		<g id="shape1817-142" v:mID="1817" v:groupContext="shape" transform="translate(543.75,-411.187)">
			<title>ExpressRoute.1817</title>
			<desc>ExpressRoute Equinix Singapore</desc>
			<v:textBlock v:margins="rect(0,0,0,0)" v:verticalAlign="0"/>
			<v:textRect cx="19.0984" cy="629.43" width="72" height="31.5"/>
			<path d="M33.92 603.39 C33.27 603.39 32.66 603.54 32.11 603.8 L23 594.68 C23.25 594.13 23.4 593.52 23.4 592.88 C23.4
						 590.52 21.49 588.6 19.12 588.6 C16.76 588.6 14.84 590.51 14.84 592.88 C14.84 593.53 14.99 594.14 15.24 594.69
						 L6.09 603.84 C5.54 603.59 4.93 603.44 4.28 603.44 C1.92 603.44 0 605.36 0 607.72 C0 610.08 1.92 612 4.28
						 612 C6.12 612 7.69 610.83 8.29 609.2 L29.92 609.2 C30.54 610.81 32.09 611.96 33.92 611.96 C36.28 611.96
						 38.2 610.04 38.2 607.68 C38.2 605.31 36.28 603.39 33.92 603.39 ZM4.28 609.12 C3.51 609.12 2.88 608.49 2.88
						 607.72 C2.88 606.94 3.51 606.32 4.28 606.32 C5.05 606.32 5.68 606.94 5.68 607.72 C5.68 608.49 5.05 609.12
						 4.28 609.12 ZM19.12 591.48 C19.9 591.48 20.52 592.1 20.52 592.88 C20.52 593.65 19.89 594.28 19.12 594.28
						 C18.35 594.28 17.72 593.65 17.72 592.88 C17.72 592.1 18.35 591.48 19.12 591.48 ZM29.88 606.26 L8.3 606.26
						 C8.26 606.15 8.22 606.04 8.16 605.92 L17.33 596.76 C17.87 597.01 18.48 597.16 19.12 597.16 C19.76 597.16
						 20.37 597.01 20.92 596.76 L30.04 605.88 C29.98 606 29.92 606.13 29.88 606.26 ZM33.92 609.08 C33.14 609.08
						 32.51 608.45 32.51 607.67 C32.51 606.9 33.14 606.27 33.92 606.27 C34.69 606.27 35.32 606.9 35.32 607.67
						 C35.32 608.45 34.69 609.08 33.92 609.08 Z" class="st10"/>
			<text x="-5.67" y="621.78" class="st14" v:langID="1033"><v:paragraph v:horizAlign="1"/><v:tabList/>ExpressRoute<v:newlineChar/><tspan
						x="-13.51" dy="1.2em" class="st3">Equinix Singapore</tspan></text>		</g>
		<g id="shape1820-146" v:mID="1820" v:groupContext="shape" v:layerMember="0" transform="translate(634.5,-405)">
			<title>Dynamic connector.1820</title>
			<path d="M0 612 L70.03 649.7" class="st18"/>
		</g>
		<g id="shape1821-149" v:mID="1821" v:groupContext="shape" v:layerMember="0" transform="translate(574.098,-422.944)">
			<title>Dynamic connector.1821</title>
			<path d="M0 612.06 L60.4 629.94" class="st18"/>
		</g>
	</g>
</svg>
