<?xml version="1.0" encoding="UTF-8" standalone="no"?>
<!DOCTYPE svg PUBLIC "-//W3C//DTD SVG 1.1//EN" "http://www.w3.org/Graphics/SVG/1.1/DTD/svg11.dtd">
<!-- Generated by Microsoft Visio, SVG Export ERRes1Step1.svg 1.1 -->
<svg xmlns="http://www.w3.org/2000/svg" xmlns:xlink="http://www.w3.org/1999/xlink" xmlns:ev="http://www.w3.org/2001/xml-events"
		xmlns:v="http://schemas.microsoft.com/visio/2003/SVGExtensions/" width="11in" height="8.5in" viewBox="0 0 792 612"
		xml:space="preserve" color-interpolation-filters="sRGB" class="st29">
	<v:documentProperties v:langID="1033" v:viewMarkup="false">
		<v:userDefs>
			<v:ud v:nameU="msvNoAutoConnect" v:prompt="" v:val="VT0(0):26"/>
		</v:userDefs>
	</v:documentProperties>

	<style type="text/css">
	<![CDATA[
		.st1 {fill:#dee6f3;stroke:#ffffff;stroke-linecap:round;stroke-linejoin:round;stroke-width:0.5}
		.st2 {fill:#1e4a73;font-family:Calibri;font-size:0.833336em}
		.st3 {font-size:1em}
		.st4 {stroke:#ee0000;stroke-dasharray:0,1.79979;stroke-linecap:round;stroke-linejoin:round;stroke-width:0.59993}
		.st5 {fill:#0078d7}
		.st6 {fill:#0078d7;font-family:Calibri;font-size:0.29924em}
		.st7 {fill:#ffffff;stroke:#42829e;stroke-linecap:round;stroke-linejoin:round;stroke-width:0.5}
		.st8 {fill:#42819d;font-family:Calibri;font-size:1.00001em}
		.st9 {fill:#ff0000;stroke:none;stroke-linecap:butt;stroke-width:0.5}
		.st10 {fill:#00188f;font-family:Calibri;font-size:0.75em}
		.st11 {fill:none;stroke:none;stroke-linecap:round;stroke-linejoin:round;stroke-width:0.5}
		.st12 {fill:#5b9bd5;font-family:Calibri;font-size:1.00001em}
		.st13 {fill:#ee0000;stroke:#ee0000;stroke-linecap:butt;stroke-width:0.5}
		.st14 {fill:#0078d7;font-family:Calibri;font-size:0.75em}
		.st15 {fill:#ee0000;stroke:none;stroke-linecap:butt;stroke-width:0.5}
		.st16 {stroke:#ee0000;stroke-linecap:round;stroke-linejoin:round;stroke-width:0.5}
		.st17 {stroke:#ee0000;stroke-dasharray:3,6;stroke-linecap:round;stroke-linejoin:round;stroke-width:3}
		.st18 {fill:#ffffff;stroke:none;stroke-linecap:butt;stroke-width:7.2}
		.st19 {fill:#4271c6;font-family:Calibri;font-size:0.666664em}
		.st20 {fill:#000000;font-family:Calibri;font-size:1.00001em}
		.st21 {fill:none;stroke:#ff0000;stroke-dasharray:7.5,4.5;stroke-linecap:round;stroke-linejoin:round;stroke-width:0.5}
		.st22 {fill:#4271c6;font-family:Calibri;font-size:0.75em}
		.st23 {stroke:#ff0000;stroke-linecap:round;stroke-linejoin:round;stroke-width:0.5}
		.st24 {fill:#0078d7;font-family:Calibri;font-size:0.289124em}
		.st25 {fill:none;stroke:#5b9bd5;stroke-linecap:round;stroke-linejoin:round;stroke-width:0.5}
		.st26 {fill:none;stroke:#ffffff;stroke-linecap:round;stroke-linejoin:round;stroke-width:0.5}
		.st27 {fill:none;stroke:#ee0000;stroke-linecap:round;stroke-linejoin:round;stroke-width:0.5}
		.st28 {stroke:#5592c9;stroke-linecap:round;stroke-linejoin:round;stroke-width:3}
		.st29 {fill:none;fill-rule:evenodd;font-size:12px;overflow:visible;stroke-linecap:square;stroke-miterlimit:3}
	]]>
	</style>

	<g v:mID="148" v:index="4" v:groupContext="foregroundPage">
		<v:userDefs>
			<v:ud v:nameU="msvThemeOrder" v:val="VT0(0):26"/>
		</v:userDefs>
		<title>1.1</title>
		<v:pageProperties v:drawingScale="1" v:pageScale="1" v:drawingUnits="0" v:shadowOffsetX="9" v:shadowOffsetY="-9"/>
		<v:layer v:name="Connector" v:index="0"/>
		<g id="group1739-1" transform="translate(133.875,-306)" v:mID="1739" v:groupContext="group">
			<v:custProps>
				<v:cp v:nameU="ShapeClass" v:lbl="ShapeClass" v:prompt="" v:type="0" v:format="" v:sortKey="" v:invis="true"
						v:ask="false" v:langID="1033" v:cal="0" v:val="VT4(Location)"/>
				<v:cp v:nameU="ShapeType" v:lbl="ShapeType" v:prompt="" v:type="0" v:format="" v:sortKey="" v:invis="true"
						v:ask="false" v:langID="1033" v:cal="0" v:val="VT4(Cloud)"/>
			</v:custProps>
			<v:userDefs>
				<v:ud v:nameU="visVersion" v:prompt="" v:val="VT0(15):26"/>
				<v:ud v:nameU="ShapeClass" v:prompt="" v:val="VT0(5):26"/>
				<v:ud v:nameU="SolSH" v:prompt="" v:val="VT15({BF0433D9-CD73-4EB5-8390-8653BE590246}):41"/>
				<v:ud v:nameU="visLegendShape" v:prompt="" v:val="VT0(2):26"/>
			</v:userDefs>
			<title>Cloud.1739</title>
			<desc>Microsoft WAN</desc>
			<g id="shape1740-2" v:mID="1740" v:groupContext="shape" transform="translate(0,-15.3606)">
				<title>Sheet.1740</title>
				<path d="M250.42 581.97 C248.86 578.56 236.39 575.9 221.07 575.9 C216.72 575.9 212.63 576.13 208.9 576.51 C201.7
							 573.17 186.79 570.72 158.79 570.92 C122.42 571.18 79.36 575.24 70.7 582.44 C60.34 582.93 53.67 584.33
							 49.68 586.18 C48.07 586.14 46.44 586.12 44.75 586.12 C20.8 586.12 2.41 590.45 1.37 595.79 C0 602.7 20.8
							 605.46 44.75 605.46 C48.18 605.46 51.48 605.37 54.68 605.2 C59.66 606 66.15 606.5 73.26 606.5 C79.83
							 606.5 85.89 606.07 90.7 605.37 C99.91 609.26 118.87 612 140.72 611.68 C163.72 611.35 177.52 610.13 185.67
							 608.25 C186.18 608.24 186.65 608.24 187.18 608.23 C212.89 607.41 224.2 605.76 227.83 603.03 C228.51
							 603.04 229.2 603.04 229.88 603.04 C263.24 603.04 290.25 600.63 290.25 592.16 C290.25 587.46 273.59 583.49
							 250.42 581.97 Z" class="st1"/>
			</g>
			<g id="shape1739-4" v:mID="1739" v:groupContext="groupContent">
				<v:textBlock v:margins="rect(4,4,4,4)"/>
				<v:textRect cx="145.125" cy="604.922" width="49.69" height="32.0037"/>
				<text x="125.42" y="601.92" class="st2" v:langID="1033"><v:paragraph v:horizAlign="1"/><v:tabList/>Microsoft<v:newlineChar/><tspan
							x="134.56" dy="1.2em" class="st3">WAN</tspan></text>			</g>
		</g>
		<g id="group1546-7" transform="translate(256.5,-416.25)" v:mID="1546" v:groupContext="group">
			<v:custProps>
				<v:cp v:nameU="ShapeClass" v:lbl="ShapeClass" v:prompt="" v:type="0" v:format="" v:sortKey="" v:invis="true"
						v:ask="false" v:langID="1033" v:cal="0" v:val="VT4(Location)"/>
				<v:cp v:nameU="ShapeType" v:lbl="ShapeType" v:prompt="" v:type="0" v:format="" v:sortKey="" v:invis="true"
						v:ask="false" v:langID="1033" v:cal="0" v:val="VT4(Cloud)"/>
			</v:custProps>
			<v:userDefs>
				<v:ud v:nameU="visVersion" v:prompt="" v:val="VT0(15):26"/>
				<v:ud v:nameU="ShapeClass" v:prompt="" v:val="VT0(5):26"/>
				<v:ud v:nameU="SolSH" v:prompt="" v:val="VT15({BF0433D9-CD73-4EB5-8390-8653BE590246}):41"/>
				<v:ud v:nameU="visLegendShape" v:prompt="" v:val="VT0(2):26"/>
			</v:userDefs>
			<title>Cloud</title>
			<desc>Equinix Fabric</desc>
			<g id="shape1547-8" v:mID="1547" v:groupContext="shape" transform="translate(0,-15.3606)">
				<title>Sheet.1547</title>
				<path d="M62.12 581.97 C61.73 578.56 58.64 575.9 54.84 575.9 C53.76 575.9 52.74 576.13 51.82 576.51 C50.03 573.17
							 46.33 570.72 39.39 570.92 C30.37 571.18 19.69 575.24 17.54 582.44 C14.97 582.93 13.31 584.33 12.32 586.18
							 C11.93 586.14 11.52 586.12 11.1 586.12 C5.16 586.12 0.6 590.45 0.34 595.79 C0 602.7 5.16 605.46 11.1
							 605.46 C11.95 605.46 12.77 605.37 13.56 605.2 C14.8 606 16.41 606.5 18.17 606.5 C19.8 606.5 21.31 606.07
							 22.5 605.37 C24.78 609.26 29.49 612 34.91 611.68 C40.61 611.35 44.04 610.13 46.06 608.25 C46.18 608.24
							 46.3 608.24 46.43 608.23 C52.81 607.41 55.61 605.76 56.52 603.03 C56.68 603.04 56.86 603.04 57.03 603.04
							 C65.3 603.04 72 600.63 72 592.16 C72 587.46 67.87 583.49 62.12 581.97 Z" class="st1"/>
			</g>
			<g id="shape1546-10" v:mID="1546" v:groupContext="groupContent">
				<v:textBlock v:margins="rect(4,4,4,4)"/>
				<v:textRect cx="36" cy="604.922" width="66.74" height="20.0036"/>
				<text x="7.76" y="607.92" class="st2" v:langID="1033"><v:paragraph v:horizAlign="1"/><v:tabList/>Equinix Fabric</text>			</g>
		</g>
		<g id="group1551-12" transform="translate(324,-204.75)" v:mID="1551" v:groupContext="group">
			<title>Smart Virtual Network Box.4</title>
			<g id="shape1552-13" v:mID="1552" v:groupContext="shape" transform="translate(0,-3.41489)">
				<title>Virtual Network Box 1</title>
				<path d="M69.33 612 L0 612 L0 543.41 L74.95 543.41 L74.95 608.71" class="st4"/>
			</g>
			<g id="shape1553-16" v:mID="1553" v:groupContext="shape" transform="translate(69.4722,-0.987225)">
				<title>Sheet.1553</title>
				<desc>Virtual Network</desc>
				<v:textBlock v:margins="rect(0,0,0,0)"/>
				<v:textRect cx="-33.7416" cy="615.008" width="85.04" height="4.85533"/>
				<path d="M0 609.57 L2.43 612 L2.72 611.68 L0.61 609.57 L2.72 607.46 L2.43 607.14 L0 609.57 ZM8.96 609.57 L6.53 607.14
							 L6.24 607.46 L8.35 609.57 L6.24 611.68 L6.53 612 L8.96 609.57 ZM6.67 609.57 a0.544541 0.544523 -180
							 1 0 -1.08908 0 a0.544541 0.544523 -180 1 0 1.08908 0 ZM2.86 610.12 C3.15 610.12 3.4 609.87 3.4 609.57
							 C3.4 609.25 3.15 609.03 2.86 609.03 C2.56 609.03 2.31 609.28 2.31 609.57 C2.31 609.87 2.54 610.12 2.86
							 610.12 ZM5.04 609.57 a0.544539 0.544525 -180 1 0 -1.08908 0 a0.544539 0.544525 -180 1 0 1.08908 0 Z"
						class="st5"/>
				<text x="-14.43" y="616.09" class="st6" v:langID="1033"><v:paragraph v:horizAlign="2"/><v:tabList/>Virtual Network</text>			</g>
		</g>
		<g id="shape1558-20" v:mID="1558" v:groupContext="shape" transform="translate(234,-482.25)">
			<title>Sheet.1558</title>
			<desc>On-Prem Data Center</desc>
			<v:textBlock v:margins="rect(4,4,4,4)"/>
			<v:textRect cx="58.5" cy="596.625" width="117.01" height="30.75"/>
			<rect x="0" y="581.25" width="117" height="30.75" class="st7"/>
			<text x="36.57" y="593.03" class="st8" v:langID="1033"><v:paragraph v:horizAlign="1"/><v:tabList/>On-Prem<v:newlineChar/><tspan
						x="29.27" dy="1.2em" class="st3">Data Center</tspan></text>		</g>
		<g id="shape1559-24" v:mID="1559" v:groupContext="shape" transform="translate(285,-545.25)">
			<title>Server (generic)</title>
			<desc>On-Prem Server</desc>
			<v:textBlock v:margins="rect(0,0,0,0)" v:verticalAlign="0"/>
			<v:textRect cx="7.40395" cy="633" width="72" height="31.5"/>
			<path d="M13.5 581.25 L1.5 581.25 C0.67 581.25 0 581.91 0 582.71 L0 612 L15 612 L15 582.71 C15 581.91 14.33 581.25 13.5
						 581.25 ZM12.75 609 L2.25 609 L2.25 607.5 L12.75 607.5 L12.75 609 ZM12.75 606 L2.25 606 L2.25 604.5 L12.75
						 604.5 L12.75 606 ZM12.75 587.25 L2.25 587.25 L2.25 585.75 L12.75 585.75 L12.75 587.25 Z" class="st9"/>
			<text x="-21.78" y="624" class="st10" v:langID="1033"><v:paragraph v:spLine="-1" v:horizAlign="1"/><v:tabList/>On-Prem Server</text>		</g>
		<g id="shape1562-27" v:mID="1562" v:groupContext="shape" transform="translate(326.376,-52)">
			<title>Sheet.1562</title>
			<desc>East US</desc>
			<v:textBlock v:margins="rect(4,4,4,4)"/>
			<v:textRect cx="36" cy="602" width="72" height="20"/>
			<rect x="0" y="592" width="72" height="20" class="st11"/>
			<text x="17.88" y="605.6" class="st12" v:langID="1033"><v:paragraph v:horizAlign="1"/><v:tabList/>East US</text>		</g>
		<g id="shape1565-30" v:mID="1565" v:groupContext="shape" transform="translate(340.902,-393.299)">
			<title>ExpressRoute</title>
			<desc>ExpressRoute Equinix DC</desc>
			<v:textBlock v:margins="rect(0,0,0,0)" v:verticalAlign="0"/>
			<v:textRect cx="19.0984" cy="629.43" width="72" height="31.5"/>
			<path d="M33.92 603.39 C33.27 603.39 32.66 603.54 32.11 603.8 L23 594.68 C23.25 594.13 23.4 593.52 23.4 592.88 C23.4
						 590.52 21.49 588.6 19.12 588.6 C16.76 588.6 14.84 590.51 14.84 592.88 C14.84 593.53 14.99 594.14 15.24 594.69
						 L6.09 603.84 C5.54 603.59 4.93 603.44 4.28 603.44 C1.92 603.44 0 605.36 0 607.72 C0 610.08 1.92 612 4.28
						 612 C6.12 612 7.69 610.83 8.29 609.2 L29.92 609.2 C30.54 610.81 32.09 611.96 33.92 611.96 C36.28 611.96
						 38.2 610.04 38.2 607.68 C38.2 605.31 36.28 603.39 33.92 603.39 ZM4.28 609.12 C3.51 609.12 2.88 608.49 2.88
						 607.72 C2.88 606.94 3.51 606.32 4.28 606.32 C5.05 606.32 5.68 606.94 5.68 607.72 C5.68 608.49 5.05 609.12
						 4.28 609.12 ZM19.12 591.48 C19.9 591.48 20.52 592.1 20.52 592.88 C20.52 593.65 19.89 594.28 19.12 594.28
						 C18.35 594.28 17.72 593.65 17.72 592.88 C17.72 592.1 18.35 591.48 19.12 591.48 ZM29.88 606.26 L8.3 606.26
						 C8.26 606.15 8.22 606.04 8.16 605.92 L17.33 596.76 C17.87 597.01 18.48 597.16 19.12 597.16 C19.76 597.16
						 20.37 597.01 20.92 596.76 L30.04 605.88 C29.98 606 29.92 606.13 29.88 606.26 ZM33.92 609.08 C33.14 609.08
						 32.51 608.45 32.51 607.67 C32.51 606.9 33.14 606.27 33.92 606.27 C34.69 606.27 35.32 606.9 35.32 607.67
						 C35.32 608.45 34.69 609.08 33.92 609.08 Z" class="st13"/>
			<text x="-5.67" y="621.78" class="st14" v:langID="1033"><v:paragraph v:horizAlign="1"/><v:tabList/>ExpressRoute<v:newlineChar/><tspan
						x="-0.39" dy="1.2em" class="st3">Equinix DC</tspan></text>		</g>
		<g id="group1566-34" transform="translate(344.635,-253.609)" v:mID="1566" v:groupContext="group">
			<title>Azure VPN Gateway</title>
			<desc>ER Gateway</desc>
			<g id="group1567-35" transform="translate(0.653846,-0.653846)" v:mID="1567" v:groupContext="group">
				<title>Sheet.1567</title>
				<g id="group1568-36" v:mID="1568" v:groupContext="group">
					<title>Sheet.1568</title>
					<g id="shape1569-37" v:mID="1569" v:groupContext="shape" transform="translate(13.0769,-7.19231)">
						<title>Sheet.1569</title>
						<rect x="0" y="608.077" width="3.26923" height="3.92308" class="st15"/>
					</g>
					<g id="shape1570-39" v:mID="1570" v:groupContext="shape" transform="translate(10.4615,0)">
						<title>Sheet.1570</title>
						<rect x="0" y="606.115" width="8.5" height="5.88462" class="st15"/>
					</g>
					<g id="shape1571-41" v:mID="1571" v:groupContext="shape" transform="translate(20.2692,-1.30769)">
						<title>Sheet.1571</title>
						<rect x="0" y="608.731" width="9.15385" height="3.26923" class="st15"/>
					</g>
					<g id="shape1572-43" v:mID="1572" v:groupContext="shape" transform="translate(1.45883E-13,-1.30769)">
						<title>Sheet.1572</title>
						<rect x="0" y="608.731" width="9.15385" height="3.26923" class="st15"/>
					</g>
				</g>
				<g id="shape1573-45" v:mID="1573" v:groupContext="shape" transform="translate(0.0653846,-12.4231)">
					<title>Sheet.1573</title>
					<path d="M25.83 591.4 L25.83 589.97 C25.83 587.09 24.78 584.41 22.95 582.51 C21.25 580.55 17.46 579.31 14.65
								 579.31 C11.83 579.31 8.04 580.55 6.34 582.51 C4.58 584.41 3.47 587.09 3.47 589.97 L3.47 591.4 C0.92
								 591.4 0 592.91 0 594.87 L0 608.53 C-0 610.23 1.05 612 3.01 612 L26.28 612 C28.51 612 29.29 610.23
								 29.29 608.53 L29.29 594.87 C29.29 593.1 28.57 591.4 25.83 591.4 ZM8.63 590.68 C8.63 588.98 9.22
								 586.83 10.2 585.72 C11.18 584.6 13.27 584.08 14.65 584.02 C16.02 584.02 18.11 584.6 19.09 585.72
								 C20.07 586.83 20.66 588.27 20.66 589.9 L20.66 591.34 L8.63 591.34 L8.63 590.68 ZM10.72 597.03 L14.52
								 593.23 L18.31 597.03 L15.63 597.03 L15.63 599.77 L13.34 599.77 L13.34 597.03 L10.72 597.03 ZM3.73
								 602.78 L3.73 600.56 L7.65 600.56 L7.65 597.94 L11.31 601.6 L7.65 605.27 L7.65 602.72 L3.73 602.72
								 L3.73 602.78 ZM14.52 610.17 L10.66 606.31 L13.34 606.31 L13.34 603.63 L15.63 603.63 L15.63 606.31
								 L18.37 606.31 L14.52 610.17 ZM25.3 602.78 L21.38 602.78 L21.38 605.4 L17.65 601.67 L21.38 597.94
								 L21.38 600.56 L25.3 600.56 L25.3 602.78 Z" class="st15"/>
				</g>
			</g>
			<g id="shape1566-47" v:mID="1566" v:groupContext="groupContent">
				<v:textBlock v:margins="rect(0,0,0,0)" v:verticalAlign="0"/>
				<v:textRect cx="15.3654" cy="640.538" width="49.5" height="46.4231"/>
				<text x="10.72" y="625.43" class="st14" v:langID="1033"><v:paragraph v:horizAlign="1"/><v:tabList/>ER<v:newlineChar/><tspan
							x="-0.78" dy="1.2em" class="st3">Gateway</tspan></text>			</g>
		</g>
		<g id="shape1582-50" v:mID="1582" v:groupContext="shape" v:layerMember="0" transform="translate(275.274,-354.406)">
			<title>Dynamic connector</title>
			<path d="M8.73 604.09 L9.27 601.91" class="st16"/>
		</g>
		<g id="group1593-53" transform="translate(351.935,-108.226)" v:mID="1593" v:groupContext="group">
			<title>Virtual Machine symbol only.87</title>
			<desc>VM01</desc>
			<g id="shape1594-54" v:mID="1594" v:groupContext="shape">
				<title>Sheet.1594</title>
				<path d="M21.31 591.07 L1.23 591.07 C0.55 591.07 0 591.68 0 592.36 L0 606.36 C0 607.04 0.55 607.64 1.23 607.64 L8.11
							 607.64 C8.85 610.26 7.85 610.63 3.49 610.63 L3.49 612 L9.03 612 L13.09 612 L18.32 612 L18.32 610.63
							 C13.96 610.63 13.53 610.26 14.27 607.64 L21.31 607.64 C21.99 607.64 22.68 607.04 22.68 606.36 L22.68
							 592.36 C22.68 591.68 21.99 591.07 21.31 591.07 ZM20.94 592.82 L20.94 605.89 L1.74 605.89 L1.74 592.82
							 L20.99 592.78 L20.94 592.82 Z" class="st15"/>
			</g>
			<g id="group1595-56" transform="translate(7.24129,-8.39684)" v:mID="1595" v:groupContext="group">
				<title>Sheet.1595</title>
				<g id="group1596-57" transform="translate(0.359821,-4.61735)" v:mID="1596" v:groupContext="group">
					<title>Sheet.1596</title>
					<g id="shape1597-58" v:mID="1597" v:groupContext="shape">
						<title>Sheet.1597</title>
						<path d="M7.04 609.92 L3.52 607.89 L0 609.92 L0 609.97 L3.52 612 L7.04 609.97 L7.04 609.92 Z" class="st15"/>
					</g>
				</g>
				<g id="group1598-60" transform="translate(4.23753,0)" v:mID="1598" v:groupContext="group">
					<title>Sheet.1598</title>
					<g id="shape1599-61" v:mID="1599" v:groupContext="shape">
						<title>Sheet.1599</title>
						<path d="M0 607.99 L0 612 L3.52 609.97 L3.52 605.96 L0 607.99 Z" class="st15"/>
					</g>
				</g>
				<g id="group1600-63" v:mID="1600" v:groupContext="group">
					<title>Sheet.1600</title>
					<g id="shape1601-64" v:mID="1601" v:groupContext="shape">
						<title>Sheet.1601</title>
						<path d="M3.52 607.99 L0 605.96 L0 609.97 L3.52 612 L3.52 607.99 Z" class="st15"/>
					</g>
				</g>
			</g>
			<g id="shape1593-66" v:mID="1593" v:groupContext="groupContent">
				<v:textBlock v:margins="rect(0,0,0,0)" v:verticalAlign="0"/>
				<v:textRect cx="11.3409" cy="626.285" width="51.75" height="20.9291"/>
				<text x="0.38" y="623.92" class="st14" v:langID="1033"><v:paragraph v:horizAlign="1"/><v:tabList/>VM01</text>			</g>
		</g>
		<g id="shape1644-68" v:mID="1644" v:groupContext="shape" v:layerMember="0" transform="translate(360,-418.5)">
			<title>Dynamic connector.171</title>
			<path d="M0 612 L-67.5 578.25" class="st16"/>
		</g>
		<g id="shape1646-71" v:mID="1646" v:groupContext="shape" v:layerMember="0" transform="translate(352.705,-147.941)">
			<title>Dynamic connector.173</title>
			<desc>VNet Peering</desc>
			<v:textBlock v:margins="rect(4,4,4,4)"/>
			<v:textRect cx="9" cy="581.888" width="52.68" height="17.6036"/>
			<path d="M9 612 L9 551.78" class="st17"/>
			<rect v:rectContext="textBkgnd" x="-12.4293" y="577.088" width="42.8588" height="9.59985" class="st18"/>
			<text x="-12.43" y="584.29" class="st19" v:langID="1033"><v:paragraph v:horizAlign="1"/><v:tabList/>VNet Peering</text>		</g>
		<g id="shape1647-76" v:mID="1647" v:groupContext="shape" transform="translate(325.406,-75.9406)">
			<title>Sheet.1647</title>
			<desc>Spoke 1</desc>
			<v:textBlock v:margins="rect(4,4,4,4)"/>
			<v:textRect cx="24.0469" cy="602" width="48.1" height="20"/>
			<rect x="0" y="592" width="48.0937" height="20" class="st11"/>
			<text x="4.86" y="605.6" class="st20" v:langID="1033"><v:paragraph v:horizAlign="1"/><v:tabList/>Spoke 1</text>		</g>
		<g id="shape1648-79" v:mID="1648" v:groupContext="shape" transform="translate(319.5,-208.25)">
			<title>Sheet.1648</title>
			<desc>Hub</desc>
			<v:textBlock v:margins="rect(4,4,4,4)"/>
			<v:textRect cx="19.0984" cy="602" width="38.2" height="20"/>
			<rect x="0" y="592" width="38.1967" height="20" class="st11"/>
			<text x="9.06" y="605.6" class="st20" v:langID="1033"><v:paragraph v:horizAlign="1"/><v:tabList/>Hub</text>		</g>
		<g id="shape1650-82" v:mID="1650" v:groupContext="shape" transform="translate(166.5,-46.6906)">
			<title>Sheet.1650</title>
			<path d="M0 612 L249.5 612 L249.5 354.94 L0 354.94 L0 612 Z" class="st21"/>
		</g>
		<g id="group1651-84" transform="translate(153.959,-289.774)" v:mID="1651" v:groupContext="group">
			<title>Resource group</title>
			<desc>Student Resource Group</desc>
			<g id="group1652-85" transform="translate(0.653846,-0.457692)" v:mID="1652" v:groupContext="group">
				<title>Sheet.1652</title>
				<g id="shape1653-86" v:mID="1653" v:groupContext="shape" transform="translate(6.47308,-14.9077)">
					<title>Sheet.1653</title>
					<path d="M9.87 612 C9.81 612 9.81 612 9.74 611.93 L0.13 606.38 C0.07 606.31 0 606.25 0 606.12 C0 605.98 0.07
								 605.92 0.13 605.85 L9.68 600.36 C9.74 600.3 9.87 600.3 9.94 600.36 L19.55 605.92 C19.62 605.98 19.68
								 606.05 19.68 606.18 C19.68 606.31 19.62 606.38 19.55 606.44 L10 611.93 C9.94 612 9.94 612 9.87 612
								 Z" class="st9"/>
				</g>
				<g id="shape1654-88" v:mID="1654" v:groupContext="shape" transform="translate(5.1,-1.43846)">
					<title>Sheet.1654</title>
					<path d="M9.87 612 C9.81 612 9.74 612 9.74 611.93 L0.13 606.38 C0.07 606.31 0 606.25 0 606.12 L0 595 C0 594.87
								 0.07 594.8 0.13 594.74 C0.2 594.67 0.33 594.67 0.39 594.74 L10 600.3 C10.07 600.36 10.13 600.43
								 10.13 600.56 L10.13 611.67 C10.13 611.8 10.07 611.87 10 611.93 C9.94 612 9.87 612 9.87 612 Z"
							class="st9"/>
				</g>
				<g id="shape1655-90" v:mID="1655" v:groupContext="shape" transform="translate(17.3923,-1.43846)">
					<title>Sheet.1655</title>
					<path d="M0.26 612 C0.2 612 0.13 612 0.13 611.93 C0.07 611.87 0 611.8 0 611.67 L0 600.62 C-0 600.49 0.07 600.43
								 0.13 600.36 L9.74 594.8 C9.81 594.74 9.94 594.74 10 594.8 C10.07 594.87 10.13 594.93 10.13 595.07
								 L10.13 606.12 C10.13 606.25 10.07 606.31 10 606.38 L0.39 611.93 C0.39 612 0.33 612 0.26 612 Z"
							class="st9"/>
				</g>
				<g id="shape1656-92" v:mID="1656" v:groupContext="shape" transform="translate(1.63869E-13,-0.196154)">
					<title>Sheet.1656</title>
					<path d="M6.21 612 C6.08 612 5.88 611.93 5.75 611.87 L1.31 609.25 C0.52 608.8 0 607.88 0 607.03 L0 590.55 C0
								 589.7 0.52 588.72 1.31 588.33 L5.75 585.72 C6.21 585.45 6.8 585.58 7.06 586.04 C7.32 586.5 7.19
								 587.09 6.73 587.35 L2.29 589.97 C2.16 590.03 1.96 590.36 1.96 590.55 L1.96 607.03 C1.96 607.23 2.16
								 607.55 2.29 607.62 L6.73 610.23 C7.19 610.5 7.32 611.08 7.06 611.54 C6.87 611.8 6.54 612 6.21 612
								 Z" class="st9"/>
				</g>
				<g id="shape1657-94" v:mID="1657" v:groupContext="shape" transform="translate(25.3038,0)">
					<title>Sheet.1657</title>
					<path d="M1.11 585.45 C1.24 585.45 1.44 585.52 1.57 585.58 L6.02 588.2 C6.8 588.66 7.32 589.57 7.32 590.42 L7.32
								 606.9 C7.32 607.75 6.8 608.73 6.02 609.12 L1.57 611.74 C1.11 612 0.52 611.87 0.26 611.41 C0 610.95
								 0.13 610.37 0.59 610.1 L5.03 607.49 C5.17 607.42 5.36 607.1 5.36 606.9 L5.36 590.42 C5.36 590.23
								 5.17 589.9 5.03 589.83 L0.59 587.22 C0.13 586.96 0 586.37 0.26 585.91 C0.46 585.58 0.78 585.45 1.11
								 585.45 Z" class="st9"/>
				</g>
			</g>
			<g id="shape1651-96" v:mID="1651" v:groupContext="groupContent">
				<v:textBlock v:margins="rect(0,0,0,0)" v:verticalAlign="0"/>
				<v:textRect cx="16.6861" cy="630.633" width="52.32" height="27.9846"/>
				<rect v:rectContext="textBkgnd" x="-0.204323" y="616.64" width="33.7808" height="32.3995" class="st18"/>
				<text x="2.27" y="624.74" class="st22" v:langID="1033"><v:paragraph v:horizAlign="1"/><v:tabList/>Student <tspan
							x="-0.2" dy="1.2em" class="st3">Resource </tspan><tspan x="5.18" dy="1.2em" class="st3">Group</tspan></text>			</g>
		</g>
		<g id="group1682-101" transform="translate(288,-68.0911)" v:mID="1682" v:groupContext="group">
			<title>Key Vault</title>
			<desc>Key Vault</desc>
			<g id="shape1683-102" v:mID="1683" v:groupContext="shape">
				<title>Sheet.1683</title>
				<path d="M22.68 600.71 C22.68 597.01 20.91 593.77 18.23 591.7 C18.23 591.8 18.23 591.95 18.23 592.05 C18.23 593.17
							 17.92 594.23 17.47 595.14 C18.78 596.61 19.59 598.53 19.59 600.66 C19.59 605.22 15.9 608.91 11.34 608.91
							 C6.78 608.91 3.09 605.22 3.09 600.66 C3.09 598.38 4 596.36 5.47 594.84 C5.06 593.98 4.81 593.01 4.81
							 592 C4.81 591.8 4.81 591.55 4.86 591.34 C1.92 593.37 0 596.81 0 600.66 C-0 606.94 5.06 612 11.34 612
							 C17.62 612 22.68 606.99 22.68 600.71 Z" class="st9"/>
			</g>
			<g id="shape1684-104" v:mID="1684" v:groupContext="shape" transform="translate(6.27799,-5.31604)">
				<title>Sheet.1684</title>
				<path d="M5.21 592.05 C2.33 592.05 0 594.38 0 597.27 C-0 599.65 1.57 601.62 3.75 602.28 L3.75 607.44 L1.32 607.44
							 L1.32 610.08 L3.75 610.08 L3.75 612 L6.63 612 L6.63 602.28 C8.81 601.67 10.38 599.65 10.38 597.27 C10.43
							 594.38 8.1 592.05 5.21 592.05 ZM5.21 594.79 C6.58 594.79 7.7 595.9 7.7 597.27 C7.7 598.63 6.58 599.75
							 5.21 599.75 C3.85 599.75 2.73 598.63 2.73 597.27 C2.73 595.9 3.85 594.79 5.21 594.79 Z" class="st9"/>
			</g>
			<g id="shape1682-106" v:mID="1682" v:groupContext="groupContent">
				<v:textBlock v:margins="rect(0,0,0,0)" v:verticalAlign="0"/>
				<v:textRect cx="11.425" cy="628.216" width="47.18" height="25.2639"/>
				<text x="-5.82" y="623.68" class="st14" v:langID="1033"><v:paragraph v:horizAlign="1"/><v:tabList/>Key Vault</text>			</g>
		</g>
		<g id="group1685-108" transform="translate(324.463,-75.9406)" v:mID="1685" v:groupContext="group">
			<title>Smart Virtual Network Box.1685</title>
			<g id="shape1686-109" v:mID="1686" v:groupContext="shape" transform="translate(0,-3.41489)">
				<title>Virtual Network Box 1</title>
				<path d="M69.33 612 L0 612 L0 543.41 L74.95 543.41 L74.95 608.71" class="st4"/>
			</g>
			<g id="shape1687-112" v:mID="1687" v:groupContext="shape" transform="translate(69.4722,-0.987225)">
				<title>Sheet.1687</title>
				<desc>Virtual Network</desc>
				<v:textBlock v:margins="rect(0,0,0,0)"/>
				<v:textRect cx="-33.7416" cy="615.008" width="85.04" height="4.85533"/>
				<path d="M0 609.57 L2.43 612 L2.72 611.68 L0.61 609.57 L2.72 607.46 L2.43 607.14 L0 609.57 ZM8.96 609.57 L6.53 607.14
							 L6.24 607.46 L8.35 609.57 L6.24 611.68 L6.53 612 L8.96 609.57 ZM6.67 609.57 a0.544541 0.544523 -180
							 1 0 -1.08908 0 a0.544541 0.544523 -180 1 0 1.08908 0 ZM2.86 610.12 C3.15 610.12 3.4 609.87 3.4 609.57
							 C3.4 609.25 3.15 609.03 2.86 609.03 C2.56 609.03 2.31 609.28 2.31 609.57 C2.31 609.87 2.54 610.12 2.86
							 610.12 ZM5.04 609.57 a0.544539 0.544525 -180 1 0 -1.08908 0 a0.544539 0.544525 -180 1 0 1.08908 0 Z"
						class="st5"/>
				<text x="-14.43" y="616.09" class="st6" v:langID="1033"><v:paragraph v:horizAlign="2"/><v:tabList/>Virtual Network</text>			</g>
		</g>
		<g id="shape1801-116" v:mID="1801" v:groupContext="shape" v:layerMember="0" transform="translate(283.5,-452.25)">
			<title>Dynamic connector.1801</title>
			<path d="M9 612 L9 582" class="st23"/>
		</g>
		<g id="group1829-119" transform="translate(196.002,-207.566)" v:mID="1829" v:groupContext="group">
			<title>Smart Virtual Network Box.1829</title>
			<g id="shape1830-120" v:mID="1830" v:groupContext="shape" transform="translate(0,-3.17464)">
				<title>Virtual Network Box 1</title>
				<path d="M69.33 612 L0 612 L0 548.24 L74.95 548.24 L74.95 608.94" class="st4"/>
			</g>
			<g id="shape1831-123" v:mID="1831" v:groupContext="shape" transform="translate(69.6239,-0.829159)">
				<title>Sheet.1831</title>
				<desc>Virtual Network</desc>
				<v:textBlock v:margins="rect(0,0,0,0)"/>
				<v:textRect cx="-32.5993" cy="614.906" width="82.16" height="4.69095"/>
				<path d="M0 609.65 L2.35 612 L2.63 611.69 L0.59 609.65 L2.63 607.62 L2.35 607.31 L0 609.65 ZM8.66 609.65 L6.31 607.31
							 L6.03 607.62 L8.07 609.65 L6.03 611.69 L6.31 612 L8.66 609.65 ZM6.44 609.65 a0.526105 0.526088 -180
							 1 0 -1.05221 0 a0.526105 0.526088 -180 1 0 1.05221 0 ZM2.76 610.18 C3.05 610.18 3.29 609.94 3.29 609.65
							 C3.29 609.35 3.05 609.13 2.76 609.13 C2.48 609.13 2.24 609.37 2.24 609.65 C2.24 609.94 2.46 610.18 2.76
							 610.18 ZM4.87 609.65 a0.526103 0.52609 -180 1 0 -1.05221 0 a0.526103 0.52609 -180 1 0 1.05221 0 Z"
						class="st5"/>
				<text x="-13.95" y="615.95" class="st24" v:langID="1033"><v:paragraph v:horizAlign="2"/><v:tabList/>Virtual Network</text>			</g>
		</g>
		<g id="shape1832-127" v:mID="1832" v:groupContext="shape" transform="translate(194.596,-51.1906)">
			<title>Sheet.1832</title>
			<desc>West US 2</desc>
			<v:textBlock v:margins="rect(4,4,4,4)"/>
			<v:textRect cx="38.8125" cy="602" width="77.63" height="20"/>
			<rect x="0" y="592" width="77.625" height="20" class="st11"/>
			<text x="13.77" y="605.6" class="st12" v:langID="1033"><v:paragraph v:horizAlign="1"/><v:tabList/>West US 2</text>		</g>
		<g id="group1841-130" transform="translate(223.937,-107.101)" v:mID="1841" v:groupContext="group">
			<title>Virtual Machine symbol only.1841</title>
			<desc>VM01</desc>
			<g id="shape1842-131" v:mID="1842" v:groupContext="shape">
				<title>Sheet.1842</title>
				<path d="M21.31 591.07 L1.23 591.07 C0.55 591.07 0 591.68 0 592.36 L0 606.36 C0 607.04 0.55 607.64 1.23 607.64 L8.11
							 607.64 C8.85 610.26 7.85 610.63 3.49 610.63 L3.49 612 L9.03 612 L13.09 612 L18.32 612 L18.32 610.63
							 C13.96 610.63 13.53 610.26 14.27 607.64 L21.31 607.64 C21.99 607.64 22.68 607.04 22.68 606.36 L22.68
							 592.36 C22.68 591.68 21.99 591.07 21.31 591.07 ZM20.94 592.82 L20.94 605.89 L1.74 605.89 L1.74 592.82
							 L20.99 592.78 L20.94 592.82 Z" class="st15"/>
			</g>
			<g id="group1843-133" transform="translate(7.24129,-8.39684)" v:mID="1843" v:groupContext="group">
				<title>Sheet.1843</title>
				<g id="group1844-134" transform="translate(0.359821,-4.61735)" v:mID="1844" v:groupContext="group">
					<title>Sheet.1844</title>
					<g id="shape1845-135" v:mID="1845" v:groupContext="shape">
						<title>Sheet.1845</title>
						<path d="M7.04 609.92 L3.52 607.89 L0 609.92 L0 609.97 L3.52 612 L7.04 609.97 L7.04 609.92 Z" class="st15"/>
					</g>
				</g>
				<g id="group1846-137" transform="translate(4.23753,0)" v:mID="1846" v:groupContext="group">
					<title>Sheet.1846</title>
					<g id="shape1847-138" v:mID="1847" v:groupContext="shape">
						<title>Sheet.1847</title>
						<path d="M0 607.99 L0 612 L3.52 609.97 L3.52 605.96 L0 607.99 Z" class="st15"/>
					</g>
				</g>
				<g id="group1848-140" v:mID="1848" v:groupContext="group">
					<title>Sheet.1848</title>
					<g id="shape1849-141" v:mID="1849" v:groupContext="shape">
						<title>Sheet.1849</title>
						<path d="M3.52 607.99 L0 605.96 L0 609.97 L3.52 612 L3.52 607.99 Z" class="st15"/>
					</g>
				</g>
			</g>
			<g id="shape1841-143" v:mID="1841" v:groupContext="groupContent">
				<v:textBlock v:margins="rect(0,0,0,0)" v:verticalAlign="0"/>
				<v:textRect cx="11.3409" cy="626.285" width="51.75" height="20.9291"/>
				<text x="0.38" y="623.92" class="st14" v:langID="1033"><v:paragraph v:horizAlign="1"/><v:tabList/>VM01</text>			</g>
		</g>
		<g id="shape1850-145" v:mID="1850" v:groupContext="shape" v:layerMember="0" transform="translate(224.707,-146.816)">
			<title>Dynamic connector.1850</title>
			<desc>VNet Peering</desc>
			<v:textBlock v:margins="rect(4,4,4,4)"/>
			<v:textRect cx="9" cy="580.038" width="52.68" height="17.6036"/>
			<path d="M9 612 L9 548.08" class="st17"/>
			<rect v:rectContext="textBkgnd" x="-12.4293" y="575.238" width="42.8588" height="9.59985" class="st18"/>
			<text x="-12.43" y="582.44" class="st19" v:langID="1033"><v:paragraph v:horizAlign="1"/><v:tabList/>VNet Peering</text>		</g>
		<g id="shape1851-150" v:mID="1851" v:groupContext="shape" transform="translate(197.408,-74.8156)">
			<title>Sheet.1851</title>
			<desc>Spoke 1</desc>
			<v:textBlock v:margins="rect(4,4,4,4)"/>
			<v:textRect cx="24.0469" cy="602" width="48.1" height="20"/>
			<rect x="0" y="592" width="48.0937" height="20" class="st11"/>
			<text x="4.86" y="605.6" class="st20" v:langID="1033"><v:paragraph v:horizAlign="1"/><v:tabList/>Spoke 1</text>		</g>
		<g id="shape1852-153" v:mID="1852" v:groupContext="shape" transform="translate(235.43,-208.691)">
			<title>Sheet.1852</title>
			<desc>Hub</desc>
			<v:textBlock v:margins="rect(4,4,4,4)"/>
			<v:textRect cx="19.0984" cy="602" width="38.2" height="20"/>
			<rect x="0" y="592" width="38.1967" height="20" class="st11"/>
			<text x="9.06" y="605.6" class="st20" v:langID="1033"><v:paragraph v:horizAlign="1"/><v:tabList/>Hub</text>		</g>
		<g id="group1853-156" transform="translate(196.465,-74.8156)" v:mID="1853" v:groupContext="group">
			<title>Smart Virtual Network Box.1853</title>
			<g id="shape1854-157" v:mID="1854" v:groupContext="shape" transform="translate(0,-3.41489)">
				<title>Virtual Network Box 1</title>
				<path d="M69.33 612 L0 612 L0 543.41 L74.95 543.41 L74.95 608.71" class="st4"/>
			</g>
			<g id="shape1855-160" v:mID="1855" v:groupContext="shape" transform="translate(69.4722,-0.987225)">
				<title>Sheet.1855</title>
				<desc>Virtual Network</desc>
				<v:textBlock v:margins="rect(0,0,0,0)"/>
				<v:textRect cx="-33.7416" cy="615.008" width="85.04" height="4.85533"/>
				<path d="M0 609.57 L2.43 612 L2.72 611.68 L0.61 609.57 L2.72 607.46 L2.43 607.14 L0 609.57 ZM8.96 609.57 L6.53 607.14
							 L6.24 607.46 L8.35 609.57 L6.24 611.68 L6.53 612 L8.96 609.57 ZM6.67 609.57 a0.544541 0.544523 -180
							 1 0 -1.08908 0 a0.544541 0.544523 -180 1 0 1.08908 0 ZM2.86 610.12 C3.15 610.12 3.4 609.87 3.4 609.57
							 C3.4 609.25 3.15 609.03 2.86 609.03 C2.56 609.03 2.31 609.28 2.31 609.57 C2.31 609.87 2.54 610.12 2.86
							 610.12 ZM5.04 609.57 a0.544539 0.544525 -180 1 0 -1.08908 0 a0.544539 0.544525 -180 1 0 1.08908 0 Z"
						class="st5"/>
				<text x="-14.43" y="616.09" class="st6" v:langID="1033"><v:paragraph v:horizAlign="2"/><v:tabList/>Virtual Network</text>			</g>
		</g>
		<g id="shape1856-164" v:mID="1856" v:groupContext="shape" transform="translate(213.803,-393.299)">
			<title>ExpressRoute.1856</title>
			<desc>ExpressRoute Equinix SEA</desc>
			<v:textBlock v:margins="rect(0,0,0,0)" v:verticalAlign="0"/>
			<v:textRect cx="19.0984" cy="629.43" width="72" height="31.5"/>
			<path d="M33.92 603.39 C33.27 603.39 32.66 603.54 32.11 603.8 L23 594.68 C23.25 594.13 23.4 593.52 23.4 592.88 C23.4
						 590.52 21.49 588.6 19.12 588.6 C16.76 588.6 14.84 590.51 14.84 592.88 C14.84 593.53 14.99 594.14 15.24 594.69
						 L6.09 603.84 C5.54 603.59 4.93 603.44 4.28 603.44 C1.92 603.44 0 605.36 0 607.72 C0 610.08 1.92 612 4.28
						 612 C6.12 612 7.69 610.83 8.29 609.2 L29.92 609.2 C30.54 610.81 32.09 611.96 33.92 611.96 C36.28 611.96
						 38.2 610.04 38.2 607.68 C38.2 605.31 36.28 603.39 33.92 603.39 ZM4.28 609.12 C3.51 609.12 2.88 608.49 2.88
						 607.72 C2.88 606.94 3.51 606.32 4.28 606.32 C5.05 606.32 5.68 606.94 5.68 607.72 C5.68 608.49 5.05 609.12
						 4.28 609.12 ZM19.12 591.48 C19.9 591.48 20.52 592.1 20.52 592.88 C20.52 593.65 19.89 594.28 19.12 594.28
						 C18.35 594.28 17.72 593.65 17.72 592.88 C17.72 592.1 18.35 591.48 19.12 591.48 ZM29.88 606.26 L8.3 606.26
						 C8.26 606.15 8.22 606.04 8.16 605.92 L17.33 596.76 C17.87 597.01 18.48 597.16 19.12 597.16 C19.76 597.16
						 20.37 597.01 20.92 596.76 L30.04 605.88 C29.98 606 29.92 606.13 29.88 606.26 ZM33.92 609.08 C33.14 609.08
						 32.51 608.45 32.51 607.67 C32.51 606.9 33.14 606.27 33.92 606.27 C34.69 606.27 35.32 606.9 35.32 607.67
						 C35.32 608.45 34.69 609.08 33.92 609.08 Z" class="st13"/>
			<text x="-5.67" y="621.78" class="st14" v:langID="1033"><v:paragraph v:horizAlign="1"/><v:tabList/>ExpressRoute<v:newlineChar/><tspan
						x="-2.09" dy="1.2em" class="st3">Equinix SEA</tspan></text>		</g>
		<g id="shape1857-168" v:mID="1857" v:groupContext="shape" v:layerMember="0" transform="translate(224.496,-396.096)">
			<title>Dynamic connector.1857</title>
			<path d="M8.5 612 L9.5 710.31" class="st16"/>
		</g>
		<g id="group1833-171" transform="translate(218.635,-251.359)" v:mID="1833" v:groupContext="group">
			<title>Azure VPN Gateway.1833</title>
			<desc>ER Gateway</desc>
			<g id="group1834-172" transform="translate(0.653846,-0.653846)" v:mID="1834" v:groupContext="group">
				<title>Sheet.1834</title>
				<g id="group1835-173" v:mID="1835" v:groupContext="group">
					<title>Sheet.1835</title>
					<g id="shape1836-174" v:mID="1836" v:groupContext="shape" transform="translate(13.0769,-7.19231)">
						<title>Sheet.1836</title>
						<rect x="0" y="608.077" width="3.26923" height="3.92308" class="st15"/>
					</g>
					<g id="shape1837-176" v:mID="1837" v:groupContext="shape" transform="translate(10.4615,0)">
						<title>Sheet.1837</title>
						<rect x="0" y="606.115" width="8.5" height="5.88462" class="st15"/>
					</g>
					<g id="shape1838-178" v:mID="1838" v:groupContext="shape" transform="translate(20.2692,-1.30769)">
						<title>Sheet.1838</title>
						<rect x="0" y="608.731" width="9.15385" height="3.26923" class="st15"/>
					</g>
					<g id="shape1839-180" v:mID="1839" v:groupContext="shape" transform="translate(1.45883E-13,-1.30769)">
						<title>Sheet.1839</title>
						<rect x="0" y="608.731" width="9.15385" height="3.26923" class="st15"/>
					</g>
				</g>
				<g id="shape1840-182" v:mID="1840" v:groupContext="shape" transform="translate(0.0653846,-12.4231)">
					<title>Sheet.1840</title>
					<path d="M25.83 591.4 L25.83 589.97 C25.83 587.09 24.78 584.41 22.95 582.51 C21.25 580.55 17.46 579.31 14.65
								 579.31 C11.83 579.31 8.04 580.55 6.34 582.51 C4.58 584.41 3.47 587.09 3.47 589.97 L3.47 591.4 C0.92
								 591.4 0 592.91 0 594.87 L0 608.53 C-0 610.23 1.05 612 3.01 612 L26.28 612 C28.51 612 29.29 610.23
								 29.29 608.53 L29.29 594.87 C29.29 593.1 28.57 591.4 25.83 591.4 ZM8.63 590.68 C8.63 588.98 9.22
								 586.83 10.2 585.72 C11.18 584.6 13.27 584.08 14.65 584.02 C16.02 584.02 18.11 584.6 19.09 585.72
								 C20.07 586.83 20.66 588.27 20.66 589.9 L20.66 591.34 L8.63 591.34 L8.63 590.68 ZM10.72 597.03 L14.52
								 593.23 L18.31 597.03 L15.63 597.03 L15.63 599.77 L13.34 599.77 L13.34 597.03 L10.72 597.03 ZM3.73
								 602.78 L3.73 600.56 L7.65 600.56 L7.65 597.94 L11.31 601.6 L7.65 605.27 L7.65 602.72 L3.73 602.72
								 L3.73 602.78 ZM14.52 610.17 L10.66 606.31 L13.34 606.31 L13.34 603.63 L15.63 603.63 L15.63 606.31
								 L18.37 606.31 L14.52 610.17 ZM25.3 602.78 L21.38 602.78 L21.38 605.4 L17.65 601.67 L21.38 597.94
								 L21.38 600.56 L25.3 600.56 L25.3 602.78 Z" class="st15"/>
				</g>
			</g>
			<g id="shape1833-184" v:mID="1833" v:groupContext="groupContent">
				<v:textBlock v:margins="rect(0,0,0,0)" v:verticalAlign="0"/>
				<v:textRect cx="15.3654" cy="640.538" width="49.5" height="46.4231"/>
				<text x="10.72" y="625.43" class="st14" v:langID="1033"><v:paragraph v:horizAlign="1"/><v:tabList/>ER<v:newlineChar/><tspan
							x="-0.78" dy="1.2em" class="st3">Gateway</tspan></text>			</g>
		</g>
		<g id="shape1860-187" v:mID="1860" v:groupContext="shape" transform="translate(225,-477)">
			<title>Sheet.1860</title>
			<rect x="0" y="504" width="135" height="108" class="st25"/>
		</g>
		<g id="shape1861-189" v:mID="1861" v:groupContext="shape" v:layerMember="0" transform="translate(232.902,-418.5)">
			<title>Dynamic connector.1861</title>
			<path d="M0 612 L59.6 578.25" class="st16"/>
		</g>
		<g id="shape1862-192" v:mID="1862" v:groupContext="shape" transform="translate(155.25,-364.5)">
			<title>Sheet.1862</title>
			<rect x="0" y="501.75" width="285.75" height="110.25" class="st26"/>
		</g>
		<g id="shape1863-194" v:mID="1863" v:groupContext="shape" transform="translate(144,-360)">
			<title>Sheet.1863</title>
			<rect x="0" y="495" width="297" height="117" class="st27"/>
		</g>
		<g id="shape1864-196" v:mID="1864" v:groupContext="shape" v:layerMember="0" transform="translate(232.902,-394.875)">
			<title>Dynamic connector.1864</title>
			<path d="M0 612 L62.17 658.39 A3 3 0 0 1 66.97 661.98 L127.1 706.84" class="st28"/>
		</g>
		<g id="shape1865-199" v:mID="1865" v:groupContext="shape" v:layerMember="0" transform="translate(360,-394.875)">
			<title>Dynamic connector.1865</title>
			<path d="M0 612 L-126 709.09" class="st28"/>
		</g>
		<g id="shape1868-202" v:mID="1868" v:groupContext="shape" v:layerMember="0" transform="translate(351,-396.096)">
			<title>Dynamic connector.1868</title>
			<path d="M9 612 L9 708.06" class="st16"/>
		</g>
	</g>
</svg>
