<?xml version="1.0" encoding="UTF-8" standalone="no"?>
<!DOCTYPE svg PUBLIC "-//W3C//DTD SVG 1.1//EN" "http://www.w3.org/Graphics/SVG/1.1/DTD/svg11.dtd">
<!-- Generated by Microsoft Visio, SVG Export ERRes1Step0.svg Page-1 -->
<svg xmlns="http://www.w3.org/2000/svg" xmlns:xlink="http://www.w3.org/1999/xlink" xmlns:ev="http://www.w3.org/2001/xml-events"
		xmlns:v="http://schemas.microsoft.com/visio/2003/SVGExtensions/" width="4.2691in" height="7.58343in"
		viewBox="0 0 307.375 546.007" xml:space="preserve" color-interpolation-filters="sRGB" class="st29">
	<v:documentProperties v:langID="1033" v:viewMarkup="false"/>

	<style type="text/css">
	<![CDATA[
		.st1 {fill:#dee6f3;stroke:#ffffff;stroke-linecap:round;stroke-linejoin:round;stroke-width:0.5}
		.st2 {fill:#1e4a73;font-family:Calibri;font-size:0.833336em}
		.st3 {font-size:1em}
		.st4 {stroke:#ee0000;stroke-dasharray:0,1.79979;stroke-linecap:round;stroke-linejoin:round;stroke-width:0.59993}
		.st5 {fill:#0078d7}
		.st6 {fill:#0078d7;font-family:Calibri;font-size:0.29924em}
		.st7 {fill:#ffffff;stroke:#42829e;stroke-linecap:round;stroke-linejoin:round;stroke-width:0.5}
		.st8 {fill:#42819d;font-family:Calibri;font-size:1.00001em}
		.st9 {fill:#ff0000;stroke:none;stroke-linecap:butt;stroke-width:0.5}
		.st10 {fill:#00188f;font-family:Calibri;font-size:0.75em}
		.st11 {fill:none;stroke:none;stroke-linecap:round;stroke-linejoin:round;stroke-width:0.5}
		.st12 {fill:#5b9bd5;font-family:Calibri;font-size:1.00001em}
		.st13 {fill:#ee0000;stroke:#ee0000;stroke-linecap:butt;stroke-width:0.5}
		.st14 {fill:#0078d7;font-family:Calibri;font-size:0.75em}
		.st15 {fill:#ee0000;stroke:none;stroke-linecap:butt;stroke-width:0.5}
		.st16 {stroke:#ee0000;stroke-linecap:round;stroke-linejoin:round;stroke-width:0.5}
		.st17 {stroke:#ee0000;stroke-dasharray:3,6;stroke-linecap:round;stroke-linejoin:round;stroke-width:3}
		.st18 {fill:#ffffff;stroke:none;stroke-linecap:butt;stroke-width:7.2}
		.st19 {fill:#4271c6;font-family:Calibri;font-size:0.666664em}
		.st20 {fill:#000000;font-family:Calibri;font-size:1.00001em}
		.st21 {fill:none;stroke:#ff0000;stroke-dasharray:7.5,4.5;stroke-linecap:round;stroke-linejoin:round;stroke-width:0.5}
		.st22 {fill:#4271c6;font-family:Calibri;font-size:0.75em}
		.st23 {stroke:#ff0000;stroke-linecap:round;stroke-linejoin:round;stroke-width:0.5}
		.st24 {fill:#0078d7;font-family:Calibri;font-size:0.289124em}
		.st25 {fill:#ffffff;stroke:none;stroke-linecap:butt}
		.st26 {fill:none;stroke:#5b9bd5;stroke-linecap:round;stroke-linejoin:round;stroke-width:0.5}
		.st27 {fill:none;stroke:#ffffff;stroke-linecap:round;stroke-linejoin:round;stroke-width:0.5}
		.st28 {fill:none;stroke:#ee0000;stroke-linecap:round;stroke-linejoin:round;stroke-width:0.5}
		.st29 {fill:none;fill-rule:evenodd;font-size:12px;overflow:visible;stroke-linecap:square;stroke-miterlimit:3}
	]]>
	</style>

	<g v:mID="0" v:index="1" v:groupContext="foregroundPage">
		<title>Page-1</title>
		<v:pageProperties v:drawingScale="1" v:pageScale="1" v:drawingUnits="0" v:shadowOffsetX="9" v:shadowOffsetY="-9"/>
		<v:layer v:name="Connector" v:index="0"/>
		<g id="group1739-1" transform="translate(0,-266.757)" v:mID="1739" v:groupContext="group">
			<v:custProps>
				<v:cp v:nameU="ShapeClass" v:lbl="ShapeClass" v:prompt="" v:type="0" v:format="" v:sortKey="" v:invis="true"
						v:ask="false" v:langID="1033" v:cal="0" v:val="VT4(Location)"/>
				<v:cp v:nameU="ShapeType" v:lbl="ShapeType" v:prompt="" v:type="0" v:format="" v:sortKey="" v:invis="true"
						v:ask="false" v:langID="1033" v:cal="0" v:val="VT4(Cloud)"/>
			</v:custProps>
			<v:userDefs>
				<v:ud v:nameU="visVersion" v:prompt="" v:val="VT0(15):26"/>
				<v:ud v:nameU="ShapeClass" v:prompt="" v:val="VT0(5):26"/>
				<v:ud v:nameU="SolSH" v:prompt="" v:val="VT15({BF0433D9-CD73-4EB5-8390-8653BE590246}):41"/>
				<v:ud v:nameU="visLegendShape" v:prompt="" v:val="VT0(2):26"/>
			</v:userDefs>
			<title>Cloud.1739</title>
			<desc>Microsoft WAN</desc>
			<g id="shape1740-2" v:mID="1740" v:groupContext="shape" transform="translate(0,-15.3606)">
				<title>Sheet.1740</title>
				<path d="M250.42 515.97 C248.86 512.57 236.39 509.91 221.07 509.91 C216.72 509.91 212.63 510.14 208.9 510.52 C201.7
							 507.18 186.79 504.73 158.79 504.93 C122.42 505.18 79.36 509.24 70.7 516.45 C60.34 516.94 53.67 518.33
							 49.68 520.19 C48.07 520.15 46.44 520.13 44.75 520.13 C20.8 520.13 2.41 524.46 1.37 529.8 C0 536.7 20.8
							 539.47 44.75 539.47 C48.18 539.47 51.48 539.37 54.68 539.21 C59.66 540.01 66.15 540.51 73.26 540.51
							 C79.83 540.51 85.89 540.08 90.7 539.38 C99.91 543.27 118.87 546.01 140.72 545.69 C163.72 545.36 177.52
							 544.14 185.67 542.26 C186.18 542.25 186.65 542.25 187.18 542.23 C212.89 541.41 224.2 539.76 227.83 537.04
							 C228.51 537.04 229.2 537.05 229.88 537.05 C263.24 537.05 290.25 534.63 290.25 526.17 C290.25 521.47
							 273.59 517.49 250.42 515.97 Z" class="st1"/>
			</g>
			<g id="shape1739-4" v:mID="1739" v:groupContext="groupContent">
				<v:textBlock v:margins="rect(4,4,4,4)"/>
				<v:textRect cx="145.125" cy="538.929" width="49.69" height="32.0037"/>
				<text x="125.42" y="535.93" class="st2" v:langID="1033"><v:paragraph v:horizAlign="1"/><v:tabList/>Microsoft<v:newlineChar/><tspan
							x="134.56" dy="1.2em" class="st3">WAN</tspan></text>			</g>
		</g>
		<g id="group1546-7" transform="translate(122.625,-377.007)" v:mID="1546" v:groupContext="group">
			<v:custProps>
				<v:cp v:nameU="ShapeClass" v:lbl="ShapeClass" v:prompt="" v:type="0" v:format="" v:sortKey="" v:invis="true"
						v:ask="false" v:langID="1033" v:cal="0" v:val="VT4(Location)"/>
				<v:cp v:nameU="ShapeType" v:lbl="ShapeType" v:prompt="" v:type="0" v:format="" v:sortKey="" v:invis="true"
						v:ask="false" v:langID="1033" v:cal="0" v:val="VT4(Cloud)"/>
			</v:custProps>
			<v:userDefs>
				<v:ud v:nameU="visVersion" v:prompt="" v:val="VT0(15):26"/>
				<v:ud v:nameU="ShapeClass" v:prompt="" v:val="VT0(5):26"/>
				<v:ud v:nameU="SolSH" v:prompt="" v:val="VT15({BF0433D9-CD73-4EB5-8390-8653BE590246}):41"/>
				<v:ud v:nameU="visLegendShape" v:prompt="" v:val="VT0(2):26"/>
			</v:userDefs>
			<title>Cloud</title>
			<desc>Equinix Fabric</desc>
			<g id="shape1547-8" v:mID="1547" v:groupContext="shape" transform="translate(0,-15.3606)">
				<title>Sheet.1547</title>
				<path d="M62.12 515.97 C61.73 512.57 58.64 509.91 54.84 509.91 C53.76 509.91 52.74 510.14 51.82 510.52 C50.03 507.18
							 46.33 504.73 39.39 504.93 C30.37 505.18 19.69 509.24 17.54 516.45 C14.97 516.94 13.31 518.33 12.32 520.19
							 C11.93 520.15 11.52 520.13 11.1 520.13 C5.16 520.13 0.6 524.46 0.34 529.8 C0 536.7 5.16 539.47 11.1
							 539.47 C11.95 539.47 12.77 539.37 13.56 539.21 C14.8 540.01 16.41 540.51 18.17 540.51 C19.8 540.51 21.31
							 540.08 22.5 539.38 C24.78 543.27 29.49 546.01 34.91 545.69 C40.61 545.36 44.04 544.14 46.06 542.26 C46.18
							 542.25 46.3 542.25 46.43 542.23 C52.81 541.41 55.61 539.76 56.52 537.04 C56.68 537.04 56.86 537.05 57.03
							 537.05 C65.3 537.05 72 534.63 72 526.17 C72 521.47 67.87 517.49 62.12 515.97 Z" class="st1"/>
			</g>
			<g id="shape1546-10" v:mID="1546" v:groupContext="groupContent">
				<v:textBlock v:margins="rect(4,4,4,4)"/>
				<v:textRect cx="36" cy="538.929" width="66.74" height="20.0036"/>
				<text x="7.76" y="541.93" class="st2" v:langID="1033"><v:paragraph v:horizAlign="1"/><v:tabList/>Equinix Fabric</text>			</g>
		</g>
		<g id="group1551-12" transform="translate(190.125,-165.507)" v:mID="1551" v:groupContext="group">
			<title>Smart Virtual Network Box.4</title>
			<g id="shape1552-13" v:mID="1552" v:groupContext="shape" transform="translate(0,-3.41489)">
				<title>Virtual Network Box 1</title>
				<path d="M69.33 546.01 L0 546.01 L0 477.42 L74.95 477.42 L74.95 542.71" class="st4"/>
			</g>
			<g id="shape1553-16" v:mID="1553" v:groupContext="shape" transform="translate(69.4722,-0.987225)">
				<title>Sheet.1553</title>
				<desc>Virtual Network</desc>
				<v:textBlock v:margins="rect(0,0,0,0)"/>
				<v:textRect cx="-33.7416" cy="549.015" width="85.04" height="4.85533"/>
				<path d="M0 543.58 L2.43 546.01 L2.72 545.69 L0.61 543.58 L2.72 541.47 L2.43 541.15 L0 543.58 ZM8.96 543.58 L6.53
							 541.15 L6.24 541.47 L8.35 543.58 L6.24 545.69 L6.53 546.01 L8.96 543.58 ZM6.67 543.58 a0.544541 0.544523
							 -180 1 0 -1.08908 0 a0.544541 0.544523 -180 1 0 1.08908 0 ZM2.86 544.12 C3.15 544.12 3.4 543.87 3.4
							 543.58 C3.4 543.26 3.15 543.03 2.86 543.03 C2.56 543.03 2.31 543.28 2.31 543.58 C2.31 543.87 2.54 544.12
							 2.86 544.12 ZM5.04 543.58 a0.544539 0.544525 -180 1 0 -1.08908 0 a0.544539 0.544525 -180 1 0 1.08908
							 0 Z" class="st5"/>
				<text x="-14.43" y="550.09" class="st6" v:langID="1033"><v:paragraph v:horizAlign="2"/><v:tabList/>Virtual Network</text>			</g>
		</g>
		<g id="shape1558-20" v:mID="1558" v:groupContext="shape" transform="translate(100.125,-443.007)">
			<title>Sheet.1558</title>
			<desc>On-Prem Data Center</desc>
			<v:textBlock v:margins="rect(4,4,4,4)"/>
			<v:textRect cx="58.5" cy="530.632" width="117.01" height="30.75"/>
			<rect x="0" y="515.257" width="117" height="30.75" class="st7"/>
			<text x="36.57" y="527.03" class="st8" v:langID="1033"><v:paragraph v:horizAlign="1"/><v:tabList/>On-Prem<v:newlineChar/><tspan
						x="29.27" dy="1.2em" class="st3">Data Center</tspan></text>		</g>
		<g id="shape1559-24" v:mID="1559" v:groupContext="shape" transform="translate(151.125,-506.007)">
			<title>Server (generic)</title>
			<desc>On-Prem Server</desc>
			<v:textBlock v:margins="rect(0,0,0,0)" v:verticalAlign="0"/>
			<v:textRect cx="7.40395" cy="567.007" width="72" height="31.5"/>
			<path d="M13.5 515.26 L1.5 515.26 C0.67 515.26 0 515.91 0 516.72 L0 546.01 L15 546.01 L15 516.72 C15 515.91 14.33 515.26
						 13.5 515.26 ZM12.75 543.01 L2.25 543.01 L2.25 541.51 L12.75 541.51 L12.75 543.01 ZM12.75 540.01 L2.25 540.01
						 L2.25 538.51 L12.75 538.51 L12.75 540.01 ZM12.75 521.26 L2.25 521.26 L2.25 519.76 L12.75 519.76 L12.75 521.26
						 Z" class="st9"/>
			<text x="-21.78" y="558.01" class="st10" v:langID="1033"><v:paragraph v:spLine="-1" v:horizAlign="1"/><v:tabList/>On-Prem Server</text>		</g>
		<g id="shape1562-27" v:mID="1562" v:groupContext="shape" transform="translate(192.501,-12.757)">
			<title>Sheet.1562</title>
			<desc>East US</desc>
			<v:textBlock v:margins="rect(4,4,4,4)"/>
			<v:textRect cx="36" cy="536.007" width="72" height="20"/>
			<rect x="0" y="526.007" width="72" height="20" class="st11"/>
			<text x="17.88" y="539.61" class="st12" v:langID="1033"><v:paragraph v:horizAlign="1"/><v:tabList/>East US</text>		</g>
		<g id="shape1565-30" v:mID="1565" v:groupContext="shape" transform="translate(207.027,-354.056)">
			<title>ExpressRoute</title>
			<desc>ExpressRoute Equinix DC</desc>
			<v:textBlock v:margins="rect(0,0,0,0)" v:verticalAlign="0"/>
			<v:textRect cx="19.0984" cy="563.437" width="72" height="31.5"/>
			<path d="M33.92 537.4 C33.27 537.4 32.66 537.55 32.11 537.8 L23 528.69 C23.25 528.14 23.4 527.53 23.4 526.89 C23.4 524.52
						 21.49 522.61 19.12 522.61 C16.76 522.61 14.84 524.52 14.84 526.89 C14.84 527.53 14.99 528.14 15.24 528.69
						 L6.09 537.85 C5.54 537.59 4.93 537.45 4.28 537.45 C1.92 537.45 0 539.36 0 541.73 C0 544.09 1.92 546.01 4.28
						 546.01 C6.12 546.01 7.69 544.84 8.29 543.21 L29.92 543.21 C30.54 544.82 32.09 545.96 33.92 545.96 C36.28
						 545.96 38.2 544.05 38.2 541.68 C38.2 539.32 36.28 537.4 33.92 537.4 ZM4.28 543.13 C3.51 543.13 2.88 542.5
						 2.88 541.73 C2.88 540.95 3.51 540.32 4.28 540.32 C5.05 540.32 5.68 540.95 5.68 541.73 C5.68 542.5 5.05 543.13
						 4.28 543.13 ZM19.12 525.48 C19.9 525.48 20.52 526.11 20.52 526.89 C20.52 527.66 19.89 528.29 19.12 528.29
						 C18.35 528.29 17.72 527.66 17.72 526.89 C17.72 526.11 18.35 525.48 19.12 525.48 ZM29.88 540.27 L8.3 540.27
						 C8.26 540.15 8.22 540.04 8.16 539.93 L17.33 530.77 C17.87 531.02 18.48 531.17 19.12 531.17 C19.76 531.17
						 20.37 531.02 20.92 530.77 L30.04 539.88 C29.98 540.01 29.92 540.14 29.88 540.27 ZM33.92 543.08 C33.14 543.08
						 32.51 542.46 32.51 541.68 C32.51 540.91 33.14 540.28 33.92 540.28 C34.69 540.28 35.32 540.91 35.32 541.68
						 C35.32 542.46 34.69 543.08 33.92 543.08 Z" class="st13"/>
			<text x="-5.67" y="555.79" class="st14" v:langID="1033"><v:paragraph v:horizAlign="1"/><v:tabList/>ExpressRoute<v:newlineChar/><tspan
						x="-0.39" dy="1.2em" class="st3">Equinix DC</tspan></text>		</g>
		<g id="group1566-34" transform="translate(210.76,-214.366)" v:mID="1566" v:groupContext="group">
			<title>Azure VPN Gateway</title>
			<desc>ER Gateway</desc>
			<g id="group1567-35" transform="translate(0.653846,-0.653846)" v:mID="1567" v:groupContext="group">
				<title>Sheet.1567</title>
				<g id="group1568-36" v:mID="1568" v:groupContext="group">
					<title>Sheet.1568</title>
					<g id="shape1569-37" v:mID="1569" v:groupContext="shape" transform="translate(13.0769,-7.19231)">
						<title>Sheet.1569</title>
						<rect x="0" y="542.084" width="3.26923" height="3.92308" class="st15"/>
					</g>
					<g id="shape1570-39" v:mID="1570" v:groupContext="shape" transform="translate(10.4615,0)">
						<title>Sheet.1570</title>
						<rect x="0" y="540.122" width="8.5" height="5.88462" class="st15"/>
					</g>
					<g id="shape1571-41" v:mID="1571" v:groupContext="shape" transform="translate(20.2692,-1.30769)">
						<title>Sheet.1571</title>
						<rect x="0" y="542.738" width="9.15385" height="3.26923" class="st15"/>
					</g>
					<g id="shape1572-43" v:mID="1572" v:groupContext="shape" transform="translate(1.45883E-13,-1.30769)">
						<title>Sheet.1572</title>
						<rect x="0" y="542.738" width="9.15385" height="3.26923" class="st15"/>
					</g>
				</g>
				<g id="shape1573-45" v:mID="1573" v:groupContext="shape" transform="translate(0.0653846,-12.4231)">
					<title>Sheet.1573</title>
					<path d="M25.83 525.41 L25.83 523.97 C25.83 521.1 24.78 518.41 22.95 516.52 C21.25 514.56 17.46 513.31 14.65
								 513.31 C11.83 513.31 8.04 514.56 6.34 516.52 C4.58 518.41 3.47 521.1 3.47 523.97 L3.47 525.41 C0.92
								 525.41 0 526.91 0 528.88 L0 542.54 C-0 544.24 1.05 546.01 3.01 546.01 L26.28 546.01 C28.51 546.01
								 29.29 544.24 29.29 542.54 L29.29 528.88 C29.29 527.11 28.57 525.41 25.83 525.41 ZM8.63 524.69 C8.63
								 522.99 9.22 520.83 10.2 519.72 C11.18 518.61 13.27 518.09 14.65 518.02 C16.02 518.02 18.11 518.61
								 19.09 519.72 C20.07 520.83 20.66 522.27 20.66 523.91 L20.66 525.35 L8.63 525.35 L8.63 524.69 ZM10.72
								 531.03 L14.52 527.24 L18.31 531.03 L15.63 531.03 L15.63 533.78 L13.34 533.78 L13.34 531.03 L10.72
								 531.03 ZM3.73 536.79 L3.73 534.56 L7.65 534.56 L7.65 531.95 L11.31 535.61 L7.65 539.27 L7.65 536.72
								 L3.73 536.72 L3.73 536.79 ZM14.52 544.18 L10.66 540.32 L13.34 540.32 L13.34 537.64 L15.63 537.64
								 L15.63 540.32 L18.37 540.32 L14.52 544.18 ZM25.3 536.79 L21.38 536.79 L21.38 539.4 L17.65 535.68
								 L21.38 531.95 L21.38 534.56 L25.3 534.56 L25.3 536.79 Z" class="st15"/>
				</g>
			</g>
			<g id="shape1566-47" v:mID="1566" v:groupContext="groupContent">
				<v:textBlock v:margins="rect(0,0,0,0)" v:verticalAlign="0"/>
				<v:textRect cx="15.3654" cy="574.545" width="49.5" height="46.4231"/>
				<text x="10.72" y="559.43" class="st14" v:langID="1033"><v:paragraph v:horizAlign="1"/><v:tabList/>ER<v:newlineChar/><tspan
							x="-0.78" dy="1.2em" class="st3">Gateway</tspan></text>			</g>
		</g>
		<g id="shape1582-50" v:mID="1582" v:groupContext="shape" v:layerMember="0" transform="translate(141.399,-315.163)">
			<title>Dynamic connector</title>
			<path d="M8.73 538.1 L9.27 535.91" class="st16"/>
		</g>
		<g id="group1593-53" transform="translate(218.06,-68.9831)" v:mID="1593" v:groupContext="group">
			<title>Virtual Machine symbol only.87</title>
			<desc>VM01</desc>
			<g id="shape1594-54" v:mID="1594" v:groupContext="shape">
				<title>Sheet.1594</title>
				<path d="M21.31 525.08 L1.23 525.08 C0.55 525.08 0 525.69 0 526.37 L0 540.37 C0 541.04 0.55 541.65 1.23 541.65 L8.11
							 541.65 C8.85 544.26 7.85 544.64 3.49 544.64 L3.49 546.01 L9.03 546.01 L13.09 546.01 L18.32 546.01 L18.32
							 544.64 C13.96 544.64 13.53 544.26 14.27 541.65 L21.31 541.65 C21.99 541.65 22.68 541.04 22.68 540.37
							 L22.68 526.37 C22.68 525.69 21.99 525.08 21.31 525.08 ZM20.94 526.82 L20.94 539.9 L1.74 539.9 L1.74
							 526.82 L20.99 526.79 L20.94 526.82 Z" class="st15"/>
			</g>
			<g id="group1595-56" transform="translate(7.24129,-8.39684)" v:mID="1595" v:groupContext="group">
				<title>Sheet.1595</title>
				<g id="group1596-57" transform="translate(0.359821,-4.61735)" v:mID="1596" v:groupContext="group">
					<title>Sheet.1596</title>
					<g id="shape1597-58" v:mID="1597" v:groupContext="shape">
						<title>Sheet.1597</title>
						<path d="M7.04 543.93 L3.52 541.9 L0 543.93 L0 543.98 L3.52 546.01 L7.04 543.98 L7.04 543.93 Z"
								class="st15"/>
					</g>
				</g>
				<g id="group1598-60" transform="translate(4.23753,1.13687E-13)" v:mID="1598" v:groupContext="group">
					<title>Sheet.1598</title>
					<g id="shape1599-61" v:mID="1599" v:groupContext="shape">
						<title>Sheet.1599</title>
						<path d="M0 541.99 L0 546.01 L3.52 543.98 L3.52 539.96 L0 541.99 Z" class="st15"/>
					</g>
				</g>
				<g id="group1600-63" v:mID="1600" v:groupContext="group">
					<title>Sheet.1600</title>
					<g id="shape1601-64" v:mID="1601" v:groupContext="shape">
						<title>Sheet.1601</title>
						<path d="M3.52 541.99 L0 539.96 L0 543.98 L3.52 546.01 L3.52 541.99 Z" class="st15"/>
					</g>
				</g>
			</g>
			<g id="shape1593-66" v:mID="1593" v:groupContext="groupContent">
				<v:textBlock v:margins="rect(0,0,0,0)" v:verticalAlign="0"/>
				<v:textRect cx="11.3409" cy="560.292" width="51.75" height="20.9291"/>
				<text x="0.38" y="557.93" class="st14" v:langID="1033"><v:paragraph v:horizAlign="1"/><v:tabList/>VM01</text>			</g>
		</g>
		<g id="shape1644-68" v:mID="1644" v:groupContext="shape" v:layerMember="0" transform="translate(226.125,-379.257)">
			<title>Dynamic connector.171</title>
			<path d="M0 546.01 L-67.5 512.26" class="st16"/>
		</g>
		<g id="shape1646-71" v:mID="1646" v:groupContext="shape" v:layerMember="0" transform="translate(218.83,-108.698)">
			<title>Dynamic connector.173</title>
			<desc>VNet Peering</desc>
			<v:textBlock v:margins="rect(4,4,4,4)"/>
			<v:textRect cx="9" cy="515.895" width="52.68" height="17.6036"/>
			<path d="M9 546.01 L9 485.78" class="st17"/>
			<rect v:rectContext="textBkgnd" x="-12.4293" y="511.095" width="42.8588" height="9.59985" class="st18"/>
			<text x="-12.43" y="518.3" class="st19" v:langID="1033"><v:paragraph v:horizAlign="1"/><v:tabList/>VNet Peering</text>		</g>
		<g id="shape1647-76" v:mID="1647" v:groupContext="shape" transform="translate(191.531,-36.6976)">
			<title>Sheet.1647</title>
			<desc>Spoke 1</desc>
			<v:textBlock v:margins="rect(4,4,4,4)"/>
			<v:textRect cx="24.0469" cy="536.007" width="48.1" height="20"/>
			<rect x="0" y="526.007" width="48.0937" height="20" class="st11"/>
			<text x="4.86" y="539.61" class="st20" v:langID="1033"><v:paragraph v:horizAlign="1"/><v:tabList/>Spoke 1</text>		</g>
		<g id="shape1648-79" v:mID="1648" v:groupContext="shape" transform="translate(185.625,-169.007)">
			<title>Sheet.1648</title>
			<desc>Hub</desc>
			<v:textBlock v:margins="rect(4,4,4,4)"/>
			<v:textRect cx="19.0984" cy="536.007" width="38.2" height="20"/>
			<rect x="0" y="526.007" width="38.1967" height="20" class="st11"/>
			<text x="9.06" y="539.61" class="st20" v:langID="1033"><v:paragraph v:horizAlign="1"/><v:tabList/>Hub</text>		</g>
		<g id="shape1650-82" v:mID="1650" v:groupContext="shape" transform="translate(32.625,-7.44759)">
			<title>Sheet.1650</title>
			<path d="M0 546.01 L249.5 546.01 L249.5 288.95 L0 288.95 L0 546.01 Z" class="st21"/>
		</g>
		<g id="group1651-84" transform="translate(20.0843,-250.531)" v:mID="1651" v:groupContext="group">
			<title>Resource group</title>
			<desc>Student Resource Group</desc>
			<g id="group1652-85" transform="translate(0.653846,-0.457692)" v:mID="1652" v:groupContext="group">
				<title>Sheet.1652</title>
				<g id="shape1653-86" v:mID="1653" v:groupContext="shape" transform="translate(6.47308,-14.9077)">
					<title>Sheet.1653</title>
					<path d="M9.87 546.01 C9.81 546.01 9.81 546.01 9.74 545.94 L0.13 540.38 C0.07 540.32 0 540.25 0 540.12 C0 539.99
								 0.07 539.93 0.13 539.86 L9.68 534.37 C9.74 534.3 9.87 534.3 9.94 534.37 L19.55 539.93 C19.62 539.99
								 19.68 540.06 19.68 540.19 C19.68 540.32 19.62 540.38 19.55 540.45 L10 545.94 C9.94 546.01 9.94 546.01
								 9.87 546.01 Z" class="st9"/>
				</g>
				<g id="shape1654-88" v:mID="1654" v:groupContext="shape" transform="translate(5.1,-1.43846)">
					<title>Sheet.1654</title>
					<path d="M9.87 546.01 C9.81 546.01 9.74 546.01 9.74 545.94 L0.13 540.38 C0.07 540.32 0 540.25 0 540.12 L0 529.01
								 C0 528.88 0.07 528.81 0.13 528.75 C0.2 528.68 0.33 528.68 0.39 528.75 L10 534.3 C10.07 534.37 10.13
								 534.43 10.13 534.56 L10.13 545.68 C10.13 545.81 10.07 545.88 10 545.94 C9.94 546.01 9.87 546.01
								 9.87 546.01 Z" class="st9"/>
				</g>
				<g id="shape1655-90" v:mID="1655" v:groupContext="shape" transform="translate(17.3923,-1.43846)">
					<title>Sheet.1655</title>
					<path d="M0.26 546.01 C0.2 546.01 0.13 546.01 0.13 545.94 C0.07 545.88 0 545.81 0 545.68 L0 534.63 C-0 534.5
								 0.07 534.43 0.13 534.37 L9.74 528.81 C9.81 528.75 9.94 528.75 10 528.81 C10.07 528.88 10.13 528.94
								 10.13 529.07 L10.13 540.12 C10.13 540.25 10.07 540.32 10 540.38 L0.39 545.94 C0.39 546.01 0.33 546.01
								 0.26 546.01 Z" class="st9"/>
				</g>
				<g id="shape1656-92" v:mID="1656" v:groupContext="shape" transform="translate(1.63869E-13,-0.196154)">
					<title>Sheet.1656</title>
					<path d="M6.21 546.01 C6.08 546.01 5.88 545.94 5.75 545.88 L1.31 543.26 C0.52 542.8 0 541.89 0 541.04 L0 524.56
								 C0 523.71 0.52 522.73 1.31 522.34 L5.75 519.72 C6.21 519.46 6.8 519.59 7.06 520.05 C7.32 520.51
								 7.19 521.1 6.73 521.36 L2.29 523.97 C2.16 524.04 1.96 524.36 1.96 524.56 L1.96 541.04 C1.96 541.23
								 2.16 541.56 2.29 541.63 L6.73 544.24 C7.19 544.5 7.32 545.09 7.06 545.55 C6.87 545.81 6.54 546.01
								 6.21 546.01 Z" class="st9"/>
				</g>
				<g id="shape1657-94" v:mID="1657" v:groupContext="shape" transform="translate(25.3038,0)">
					<title>Sheet.1657</title>
					<path d="M1.11 519.46 C1.24 519.46 1.44 519.53 1.57 519.59 L6.02 522.21 C6.8 522.66 7.32 523.58 7.32 524.43 L7.32
								 540.91 C7.32 541.76 6.8 542.74 6.02 543.13 L1.57 545.75 C1.11 546.01 0.52 545.88 0.26 545.42 C0
								 544.96 0.13 544.37 0.59 544.11 L5.03 541.5 C5.17 541.43 5.36 541.1 5.36 540.91 L5.36 524.43 C5.36
								 524.23 5.17 523.91 5.03 523.84 L0.59 521.23 C0.13 520.96 0 520.38 0.26 519.92 C0.46 519.59 0.78
								 519.46 1.11 519.46 Z" class="st9"/>
				</g>
			</g>
			<g id="shape1651-96" v:mID="1651" v:groupContext="groupContent">
				<v:textBlock v:margins="rect(0,0,0,0)" v:verticalAlign="0"/>
				<v:textRect cx="16.6861" cy="564.64" width="52.32" height="27.9846"/>
				<rect v:rectContext="textBkgnd" x="-0.204323" y="550.647" width="33.7808" height="32.3995" class="st18"/>
				<text x="2.27" y="558.75" class="st22" v:langID="1033"><v:paragraph v:horizAlign="1"/><v:tabList/>Student <tspan
							x="-0.2" dy="1.2em" class="st3">Resource </tspan><tspan x="5.18" dy="1.2em" class="st3">Group</tspan></text>			</g>
		</g>
		<g id="group1682-101" transform="translate(154.125,-28.8481)" v:mID="1682" v:groupContext="group">
			<title>Key Vault</title>
			<desc>Key Vault</desc>
			<g id="shape1683-102" v:mID="1683" v:groupContext="shape">
				<title>Sheet.1683</title>
				<path d="M22.68 534.72 C22.68 531.02 20.91 527.78 18.23 525.7 C18.23 525.81 18.23 525.96 18.23 526.06 C18.23 527.17
							 17.92 528.24 17.47 529.15 C18.78 530.62 19.59 532.54 19.59 534.67 C19.59 539.22 15.9 542.92 11.34 542.92
							 C6.78 542.92 3.09 539.22 3.09 534.67 C3.09 532.39 4 530.36 5.47 528.84 C5.06 527.98 4.81 527.02 4.81
							 526.01 C4.81 525.81 4.81 525.55 4.86 525.35 C1.92 527.38 0 530.82 0 534.67 C-0 540.94 5.06 546.01 11.34
							 546.01 C17.62 546.01 22.68 540.99 22.68 534.72 Z" class="st9"/>
			</g>
			<g id="shape1684-104" v:mID="1684" v:groupContext="shape" transform="translate(6.27799,-5.31604)">
				<title>Sheet.1684</title>
				<path d="M5.21 526.06 C2.33 526.06 0 528.39 0 531.27 C-0 533.65 1.57 535.63 3.75 536.29 L3.75 541.45 L1.32 541.45
							 L1.32 544.08 L3.75 544.08 L3.75 546.01 L6.63 546.01 L6.63 536.29 C8.81 535.68 10.38 533.65 10.38 531.27
							 C10.43 528.39 8.1 526.06 5.21 526.06 ZM5.21 528.79 C6.58 528.79 7.7 529.91 7.7 531.27 C7.7 532.64 6.58
							 533.75 5.21 533.75 C3.85 533.75 2.73 532.64 2.73 531.27 C2.73 529.91 3.85 528.79 5.21 528.79 Z"
						class="st9"/>
			</g>
			<g id="shape1682-106" v:mID="1682" v:groupContext="groupContent">
				<v:textBlock v:margins="rect(0,0,0,0)" v:verticalAlign="0"/>
				<v:textRect cx="11.425" cy="562.223" width="47.18" height="25.2639"/>
				<text x="-5.82" y="557.69" class="st14" v:langID="1033"><v:paragraph v:horizAlign="1"/><v:tabList/>Key Vault</text>			</g>
		</g>
		<g id="group1685-108" transform="translate(190.588,-36.6976)" v:mID="1685" v:groupContext="group">
			<title>Smart Virtual Network Box.1685</title>
			<g id="shape1686-109" v:mID="1686" v:groupContext="shape" transform="translate(0,-3.41489)">
				<title>Virtual Network Box 1</title>
				<path d="M69.33 546.01 L0 546.01 L0 477.42 L74.95 477.42 L74.95 542.71" class="st4"/>
			</g>
			<g id="shape1687-112" v:mID="1687" v:groupContext="shape" transform="translate(69.4722,-0.987225)">
				<title>Sheet.1687</title>
				<desc>Virtual Network</desc>
				<v:textBlock v:margins="rect(0,0,0,0)"/>
				<v:textRect cx="-33.7416" cy="549.015" width="85.04" height="4.85533"/>
				<path d="M0 543.58 L2.43 546.01 L2.72 545.69 L0.61 543.58 L2.72 541.47 L2.43 541.15 L0 543.58 ZM8.96 543.58 L6.53
							 541.15 L6.24 541.47 L8.35 543.58 L6.24 545.69 L6.53 546.01 L8.96 543.58 ZM6.67 543.58 a0.544541 0.544523
							 -180 1 0 -1.08908 0 a0.544541 0.544523 -180 1 0 1.08908 0 ZM2.86 544.12 C3.15 544.12 3.4 543.87 3.4
							 543.58 C3.4 543.26 3.15 543.03 2.86 543.03 C2.56 543.03 2.31 543.28 2.31 543.58 C2.31 543.87 2.54 544.12
							 2.86 544.12 ZM5.04 543.58 a0.544539 0.544525 -180 1 0 -1.08908 0 a0.544539 0.544525 -180 1 0 1.08908
							 0 Z" class="st5"/>
				<text x="-14.43" y="550.09" class="st6" v:langID="1033"><v:paragraph v:horizAlign="2"/><v:tabList/>Virtual Network</text>			</g>
		</g>
		<g id="shape1801-116" v:mID="1801" v:groupContext="shape" v:layerMember="0" transform="translate(149.625,-413.007)">
			<title>Dynamic connector.1801</title>
			<path d="M9 546.01 L9 516.01" class="st23"/>
		</g>
		<g id="group1829-119" transform="translate(62.1272,-168.323)" v:mID="1829" v:groupContext="group">
			<title>Smart Virtual Network Box.1829</title>
			<g id="shape1830-120" v:mID="1830" v:groupContext="shape" transform="translate(0,-3.17464)">
				<title>Virtual Network Box 1</title>
				<path d="M69.33 546.01 L0 546.01 L0 482.25 L74.95 482.25 L74.95 542.95" class="st4"/>
			</g>
			<g id="shape1831-123" v:mID="1831" v:groupContext="shape" transform="translate(69.6239,-0.829159)">
				<title>Sheet.1831</title>
				<desc>Virtual Network</desc>
				<v:textBlock v:margins="rect(0,0,0,0)"/>
				<v:textRect cx="-32.5993" cy="548.913" width="82.16" height="4.69095"/>
				<path d="M0 543.66 L2.35 546.01 L2.63 545.7 L0.59 543.66 L2.63 541.62 L2.35 541.32 L0 543.66 ZM8.66 543.66 L6.31
							 541.32 L6.03 541.62 L8.07 543.66 L6.03 545.7 L6.31 546.01 L8.66 543.66 ZM6.44 543.66 a0.526105 0.526088
							 -180 1 0 -1.05221 0 a0.526105 0.526088 -180 1 0 1.05221 0 ZM2.76 544.19 C3.05 544.19 3.29 543.95 3.29
							 543.66 C3.29 543.35 3.05 543.14 2.76 543.14 C2.48 543.14 2.24 543.38 2.24 543.66 C2.24 543.95 2.46 544.19
							 2.76 544.19 ZM4.87 543.66 a0.526103 0.52609 -180 1 0 -1.05221 0 a0.526103 0.52609 -180 1 0 1.05221 0
							 Z" class="st5"/>
				<text x="-13.95" y="549.95" class="st24" v:langID="1033"><v:paragraph v:horizAlign="2"/><v:tabList/>Virtual Network</text>			</g>
		</g>
		<g id="shape1832-127" v:mID="1832" v:groupContext="shape" transform="translate(60.721,-11.9476)">
			<title>Sheet.1832</title>
			<desc>West US 2</desc>
			<v:textBlock v:margins="rect(4,4,4,4)"/>
			<v:textRect cx="38.8125" cy="536.007" width="77.63" height="20"/>
			<rect x="0" y="526.007" width="77.625" height="20" class="st11"/>
			<text x="13.77" y="539.61" class="st12" v:langID="1033"><v:paragraph v:horizAlign="1"/><v:tabList/>West US 2</text>		</g>
		<g id="group1841-130" transform="translate(90.0619,-67.8581)" v:mID="1841" v:groupContext="group">
			<title>Virtual Machine symbol only.1841</title>
			<desc>VM01</desc>
			<g id="shape1842-131" v:mID="1842" v:groupContext="shape">
				<title>Sheet.1842</title>
				<path d="M21.31 525.08 L1.23 525.08 C0.55 525.08 0 525.69 0 526.37 L0 540.37 C0 541.04 0.55 541.65 1.23 541.65 L8.11
							 541.65 C8.85 544.26 7.85 544.64 3.49 544.64 L3.49 546.01 L9.03 546.01 L13.09 546.01 L18.32 546.01 L18.32
							 544.64 C13.96 544.64 13.53 544.26 14.27 541.65 L21.31 541.65 C21.99 541.65 22.68 541.04 22.68 540.37
							 L22.68 526.37 C22.68 525.69 21.99 525.08 21.31 525.08 ZM20.94 526.82 L20.94 539.9 L1.74 539.9 L1.74
							 526.82 L20.99 526.79 L20.94 526.82 Z" class="st15"/>
			</g>
			<g id="group1843-133" transform="translate(7.24129,-8.39684)" v:mID="1843" v:groupContext="group">
				<title>Sheet.1843</title>
				<g id="group1844-134" transform="translate(0.359821,-4.61735)" v:mID="1844" v:groupContext="group">
					<title>Sheet.1844</title>
					<g id="shape1845-135" v:mID="1845" v:groupContext="shape">
						<title>Sheet.1845</title>
						<path d="M7.04 543.93 L3.52 541.9 L0 543.93 L0 543.98 L3.52 546.01 L7.04 543.98 L7.04 543.93 Z"
								class="st15"/>
					</g>
				</g>
				<g id="group1846-137" transform="translate(4.23753,1.13687E-13)" v:mID="1846" v:groupContext="group">
					<title>Sheet.1846</title>
					<g id="shape1847-138" v:mID="1847" v:groupContext="shape">
						<title>Sheet.1847</title>
						<path d="M0 541.99 L0 546.01 L3.52 543.98 L3.52 539.96 L0 541.99 Z" class="st15"/>
					</g>
				</g>
				<g id="group1848-140" v:mID="1848" v:groupContext="group">
					<title>Sheet.1848</title>
					<g id="shape1849-141" v:mID="1849" v:groupContext="shape">
						<title>Sheet.1849</title>
						<path d="M3.52 541.99 L0 539.96 L0 543.98 L3.52 546.01 L3.52 541.99 Z" class="st15"/>
					</g>
				</g>
			</g>
			<g id="shape1841-143" v:mID="1841" v:groupContext="groupContent">
				<v:textBlock v:margins="rect(0,0,0,0)" v:verticalAlign="0"/>
				<v:textRect cx="11.3409" cy="560.292" width="51.75" height="20.9291"/>
				<text x="0.38" y="557.93" class="st14" v:langID="1033"><v:paragraph v:horizAlign="1"/><v:tabList/>VM01</text>			</g>
		</g>
		<g id="shape1850-145" v:mID="1850" v:groupContext="shape" v:layerMember="0" transform="translate(90.8325,-107.573)">
			<title>Dynamic connector.1850</title>
			<desc>VNet Peering</desc>
			<v:textBlock v:margins="rect(4,4,4,4)"/>
			<v:textRect cx="9" cy="514.045" width="52.68" height="17.6036"/>
			<path d="M9 546.01 L9 482.08" class="st17"/>
			<rect v:rectContext="textBkgnd" x="-12.4293" y="509.245" width="42.8588" height="9.59985" class="st25"/>
			<text x="-12.43" y="516.44" class="st19" v:langID="1033"><v:paragraph v:horizAlign="1"/><v:tabList/>VNet Peering</text>		</g>
		<g id="shape1851-150" v:mID="1851" v:groupContext="shape" transform="translate(63.5335,-35.5726)">
			<title>Sheet.1851</title>
			<desc>Spoke 1</desc>
			<v:textBlock v:margins="rect(4,4,4,4)"/>
			<v:textRect cx="24.0469" cy="536.007" width="48.1" height="20"/>
			<rect x="0" y="526.007" width="48.0937" height="20" class="st11"/>
			<text x="4.86" y="539.61" class="st20" v:langID="1033"><v:paragraph v:horizAlign="1"/><v:tabList/>Spoke 1</text>		</g>
		<g id="shape1852-153" v:mID="1852" v:groupContext="shape" transform="translate(101.555,-169.448)">
			<title>Sheet.1852</title>
			<desc>Hub</desc>
			<v:textBlock v:margins="rect(4,4,4,4)"/>
			<v:textRect cx="19.0984" cy="536.007" width="38.2" height="20"/>
			<rect x="0" y="526.007" width="38.1967" height="20" class="st11"/>
			<text x="9.06" y="539.61" class="st20" v:langID="1033"><v:paragraph v:horizAlign="1"/><v:tabList/>Hub</text>		</g>
		<g id="group1853-156" transform="translate(62.5902,-35.5726)" v:mID="1853" v:groupContext="group">
			<title>Smart Virtual Network Box.1853</title>
			<g id="shape1854-157" v:mID="1854" v:groupContext="shape" transform="translate(0,-3.41489)">
				<title>Virtual Network Box 1</title>
				<path d="M69.33 546.01 L0 546.01 L0 477.42 L74.95 477.42 L74.95 542.71" class="st4"/>
			</g>
			<g id="shape1855-160" v:mID="1855" v:groupContext="shape" transform="translate(69.4722,-0.987225)">
				<title>Sheet.1855</title>
				<desc>Virtual Network</desc>
				<v:textBlock v:margins="rect(0,0,0,0)"/>
				<v:textRect cx="-33.7416" cy="549.015" width="85.04" height="4.85533"/>
				<path d="M0 543.58 L2.43 546.01 L2.72 545.69 L0.61 543.58 L2.72 541.47 L2.43 541.15 L0 543.58 ZM8.96 543.58 L6.53
							 541.15 L6.24 541.47 L8.35 543.58 L6.24 545.69 L6.53 546.01 L8.96 543.58 ZM6.67 543.58 a0.544541 0.544523
							 -180 1 0 -1.08908 0 a0.544541 0.544523 -180 1 0 1.08908 0 ZM2.86 544.12 C3.15 544.12 3.4 543.87 3.4
							 543.58 C3.4 543.26 3.15 543.03 2.86 543.03 C2.56 543.03 2.31 543.28 2.31 543.58 C2.31 543.87 2.54 544.12
							 2.86 544.12 ZM5.04 543.58 a0.544539 0.544525 -180 1 0 -1.08908 0 a0.544539 0.544525 -180 1 0 1.08908
							 0 Z" class="st5"/>
				<text x="-14.43" y="550.09" class="st6" v:langID="1033"><v:paragraph v:horizAlign="2"/><v:tabList/>Virtual Network</text>			</g>
		</g>
		<g id="shape1856-164" v:mID="1856" v:groupContext="shape" transform="translate(79.9283,-354.056)">
			<title>ExpressRoute.1856</title>
			<desc>ExpressRoute Equinix SEA</desc>
			<v:textBlock v:margins="rect(0,0,0,0)" v:verticalAlign="0"/>
			<v:textRect cx="19.0984" cy="563.437" width="72" height="31.5"/>
			<path d="M33.92 537.4 C33.27 537.4 32.66 537.55 32.11 537.8 L23 528.69 C23.25 528.14 23.4 527.53 23.4 526.89 C23.4 524.52
						 21.49 522.61 19.12 522.61 C16.76 522.61 14.84 524.52 14.84 526.89 C14.84 527.53 14.99 528.14 15.24 528.69
						 L6.09 537.85 C5.54 537.59 4.93 537.45 4.28 537.45 C1.92 537.45 0 539.36 0 541.73 C0 544.09 1.92 546.01 4.28
						 546.01 C6.12 546.01 7.69 544.84 8.29 543.21 L29.92 543.21 C30.54 544.82 32.09 545.96 33.92 545.96 C36.28
						 545.96 38.2 544.05 38.2 541.68 C38.2 539.32 36.28 537.4 33.92 537.4 ZM4.28 543.13 C3.51 543.13 2.88 542.5
						 2.88 541.73 C2.88 540.95 3.51 540.32 4.28 540.32 C5.05 540.32 5.68 540.95 5.68 541.73 C5.68 542.5 5.05 543.13
						 4.28 543.13 ZM19.12 525.48 C19.9 525.48 20.52 526.11 20.52 526.89 C20.52 527.66 19.89 528.29 19.12 528.29
						 C18.35 528.29 17.72 527.66 17.72 526.89 C17.72 526.11 18.35 525.48 19.12 525.48 ZM29.88 540.27 L8.3 540.27
						 C8.26 540.15 8.22 540.04 8.16 539.93 L17.33 530.77 C17.87 531.02 18.48 531.17 19.12 531.17 C19.76 531.17
						 20.37 531.02 20.92 530.77 L30.04 539.88 C29.98 540.01 29.92 540.14 29.88 540.27 ZM33.92 543.08 C33.14 543.08
						 32.51 542.46 32.51 541.68 C32.51 540.91 33.14 540.28 33.92 540.28 C34.69 540.28 35.32 540.91 35.32 541.68
						 C35.32 542.46 34.69 543.08 33.92 543.08 Z" class="st13"/>
			<text x="-5.67" y="555.79" class="st14" v:langID="1033"><v:paragraph v:horizAlign="1"/><v:tabList/>ExpressRoute<v:newlineChar/><tspan
						x="-2.09" dy="1.2em" class="st3">Equinix SEA</tspan></text>		</g>
		<g id="shape1857-168" v:mID="1857" v:groupContext="shape" v:layerMember="0" transform="translate(90.6214,-356.853)">
			<title>Dynamic connector.1857</title>
			<path d="M8.5 546.01 L9.5 644.32" class="st16"/>
		</g>
		<g id="group1833-171" transform="translate(84.7596,-212.116)" v:mID="1833" v:groupContext="group">
			<title>Azure VPN Gateway.1833</title>
			<desc>ER Gateway</desc>
			<g id="group1834-172" transform="translate(0.653846,-0.653846)" v:mID="1834" v:groupContext="group">
				<title>Sheet.1834</title>
				<g id="group1835-173" v:mID="1835" v:groupContext="group">
					<title>Sheet.1835</title>
					<g id="shape1836-174" v:mID="1836" v:groupContext="shape" transform="translate(13.0769,-7.19231)">
						<title>Sheet.1836</title>
						<rect x="0" y="542.084" width="3.26923" height="3.92308" class="st15"/>
					</g>
					<g id="shape1837-176" v:mID="1837" v:groupContext="shape" transform="translate(10.4615,0)">
						<title>Sheet.1837</title>
						<rect x="0" y="540.122" width="8.5" height="5.88462" class="st15"/>
					</g>
					<g id="shape1838-178" v:mID="1838" v:groupContext="shape" transform="translate(20.2692,-1.30769)">
						<title>Sheet.1838</title>
						<rect x="0" y="542.738" width="9.15385" height="3.26923" class="st15"/>
					</g>
					<g id="shape1839-180" v:mID="1839" v:groupContext="shape" transform="translate(1.45883E-13,-1.30769)">
						<title>Sheet.1839</title>
						<rect x="0" y="542.738" width="9.15385" height="3.26923" class="st15"/>
					</g>
				</g>
				<g id="shape1840-182" v:mID="1840" v:groupContext="shape" transform="translate(0.0653846,-12.4231)">
					<title>Sheet.1840</title>
					<path d="M25.83 525.41 L25.83 523.97 C25.83 521.1 24.78 518.41 22.95 516.52 C21.25 514.56 17.46 513.31 14.65
								 513.31 C11.83 513.31 8.04 514.56 6.34 516.52 C4.58 518.41 3.47 521.1 3.47 523.97 L3.47 525.41 C0.92
								 525.41 0 526.91 0 528.88 L0 542.54 C-0 544.24 1.05 546.01 3.01 546.01 L26.28 546.01 C28.51 546.01
								 29.29 544.24 29.29 542.54 L29.29 528.88 C29.29 527.11 28.57 525.41 25.83 525.41 ZM8.63 524.69 C8.63
								 522.99 9.22 520.83 10.2 519.72 C11.18 518.61 13.27 518.09 14.65 518.02 C16.02 518.02 18.11 518.61
								 19.09 519.72 C20.07 520.83 20.66 522.27 20.66 523.91 L20.66 525.35 L8.63 525.35 L8.63 524.69 ZM10.72
								 531.03 L14.52 527.24 L18.31 531.03 L15.63 531.03 L15.63 533.78 L13.34 533.78 L13.34 531.03 L10.72
								 531.03 ZM3.73 536.79 L3.73 534.56 L7.65 534.56 L7.65 531.95 L11.31 535.61 L7.65 539.27 L7.65 536.72
								 L3.73 536.72 L3.73 536.79 ZM14.52 544.18 L10.66 540.32 L13.34 540.32 L13.34 537.64 L15.63 537.64
								 L15.63 540.32 L18.37 540.32 L14.52 544.18 ZM25.3 536.79 L21.38 536.79 L21.38 539.4 L17.65 535.68
								 L21.38 531.95 L21.38 534.56 L25.3 534.56 L25.3 536.79 Z" class="st15"/>
				</g>
			</g>
			<g id="shape1833-184" v:mID="1833" v:groupContext="groupContent">
				<v:textBlock v:margins="rect(0,0,0,0)" v:verticalAlign="0"/>
				<v:textRect cx="15.3654" cy="574.545" width="49.5" height="46.4231"/>
				<text x="10.72" y="559.43" class="st14" v:langID="1033"><v:paragraph v:horizAlign="1"/><v:tabList/>ER<v:newlineChar/><tspan
							x="-0.78" dy="1.2em" class="st3">Gateway</tspan></text>			</g>
		</g>
		<g id="shape1860-187" v:mID="1860" v:groupContext="shape" transform="translate(91.125,-437.757)">
			<title>Sheet.1860</title>
			<rect x="0" y="438.007" width="135" height="108" class="st26"/>
		</g>
		<g id="shape1861-189" v:mID="1861" v:groupContext="shape" v:layerMember="0" transform="translate(99.0266,-379.257)">
			<title>Dynamic connector.1861</title>
			<path d="M0 546.01 L59.6 512.26" class="st16"/>
		</g>
		<g id="shape1862-192" v:mID="1862" v:groupContext="shape" transform="translate(21.375,-325.257)">
			<title>Sheet.1862</title>
			<rect x="0" y="435.757" width="285.75" height="110.25" class="st27"/>
		</g>
		<g id="shape1863-194" v:mID="1863" v:groupContext="shape" transform="translate(10.125,-320.757)">
			<title>Sheet.1863</title>
			<rect x="0" y="429.007" width="297" height="117" class="st28"/>
		</g>
		<g id="shape1864-196" v:mID="1864" v:groupContext="shape" v:layerMember="0" transform="translate(235.125,-355.632)">
			<title>Dynamic connector.1864</title>
			<path d="M-9 546.01 L-9 640.85" class="st16"/>
		</g>
	</g>
</svg>
