<?xml version="1.0" encoding="UTF-8" standalone="no"?>
<!DOCTYPE svg PUBLIC "-//W3C//DTD SVG 1.1//EN" "http://www.w3.org/Graphics/SVG/1.1/DTD/svg11.dtd">
<!-- Generated by Microsoft Visio, SVG Export ERRes2Step1.svg Page-1 -->
<svg xmlns="http://www.w3.org/2000/svg" xmlns:xlink="http://www.w3.org/1999/xlink" xmlns:ev="http://www.w3.org/2001/xml-events"
		xmlns:v="http://schemas.microsoft.com/visio/2003/SVGExtensions/" width="7.80918in" height="2.89257in"
		viewBox="0 0 562.261 208.265" xml:space="preserve" color-interpolation-filters="sRGB" class="st19">
	<v:documentProperties v:langID="1033" v:viewMarkup="false"/>

	<style type="text/css">
	<![CDATA[
		.st1 {fill:#dee6f3;stroke:#ffffff;stroke-linecap:round;stroke-linejoin:round;stroke-width:0.5}
		.st2 {fill:#1e4a73;font-family:Calibri;font-size:0.833336em}
		.st3 {font-size:1em}
		.st4 {stroke:#ff0000;stroke-dasharray:0,1.95186;stroke-linecap:round;stroke-linejoin:round;stroke-width:0.650619}
		.st5 {fill:#0078d7}
		.st6 {fill:#0078d7;font-family:Calibri;font-size:0.44101em}
		.st7 {fill:none;stroke:#ff0000;stroke-dasharray:0,1.5;stroke-linecap:round;stroke-linejoin:round;stroke-width:0.5}
		.st8 {fill:none;stroke:none;stroke-linecap:round;stroke-linejoin:round;stroke-width:0.5}
		.st9 {fill:#5b9bd5;font-family:Calibri;font-size:1.00001em}
		.st10 {fill:#ff0000;stroke:none;stroke-linecap:butt;stroke-width:0.5}
		.st11 {fill:#00188f;font-family:Calibri;font-size:0.75em}
		.st12 {stroke:#5592c9;stroke-linecap:round;stroke-linejoin:round;stroke-width:0.5}
		.st13 {fill:#0078d7;stroke:none;stroke-linecap:butt;stroke-width:0.5}
		.st14 {fill:#0078d7;font-family:Calibri;font-size:0.75em}
		.st15 {fill:none;stroke:#ff0000;stroke-dasharray:7.5,4.5;stroke-linecap:round;stroke-linejoin:round;stroke-width:0.5}
		.st16 {fill:#ffffff;stroke:none;stroke-linecap:butt}
		.st17 {fill:#4271c6;font-family:Calibri;font-size:0.75em}
		.st18 {stroke:#ff0000;stroke-linecap:round;stroke-linejoin:round;stroke-width:0.5}
		.st19 {fill:none;fill-rule:evenodd;font-size:12px;overflow:visible;stroke-linecap:square;stroke-miterlimit:3}
	]]>
	</style>

	<g v:mID="0" v:index="1" v:groupContext="foregroundPage">
		<title>Page-1</title>
		<v:pageProperties v:drawingScale="1" v:pageScale="1" v:drawingUnits="0" v:shadowOffsetX="9" v:shadowOffsetY="-9"/>
		<v:layer v:name="Connector" v:index="0"/>
		<g id="group1739-1" transform="translate(238.011,-68.1323)" v:mID="1739" v:groupContext="group">
			<v:custProps>
				<v:cp v:nameU="ShapeClass" v:lbl="ShapeClass" v:prompt="" v:type="0" v:format="" v:sortKey="" v:invis="true"
						v:ask="false" v:langID="1033" v:cal="0" v:val="VT4(Location)"/>
				<v:cp v:nameU="ShapeType" v:lbl="ShapeType" v:prompt="" v:type="0" v:format="" v:sortKey="" v:invis="true"
						v:ask="false" v:langID="1033" v:cal="0" v:val="VT4(Cloud)"/>
			</v:custProps>
			<v:userDefs>
				<v:ud v:nameU="visVersion" v:prompt="" v:val="VT0(15):26"/>
				<v:ud v:nameU="ShapeClass" v:prompt="" v:val="VT0(5):26"/>
				<v:ud v:nameU="SolSH" v:prompt="" v:val="VT15({BF0433D9-CD73-4EB5-8390-8653BE590246}):41"/>
				<v:ud v:nameU="visLegendShape" v:prompt="" v:val="VT0(2):26"/>
			</v:userDefs>
			<title>Cloud.1739</title>
			<desc>Microsoft WAN</desc>
			<g id="shape1740-2" v:mID="1740" v:groupContext="shape" transform="translate(0,-18.5642)">
				<title>Sheet.1740</title>
				<path d="M62.12 171.97 C61.73 167.86 58.64 164.64 54.84 164.64 C53.76 164.64 52.74 164.91 51.82 165.38 C50.03 161.34
							 46.33 158.38 39.39 158.62 C30.37 158.93 19.69 163.83 17.54 172.54 C14.97 173.13 13.31 174.82 12.32 177.06
							 C11.93 177.01 11.52 176.99 11.1 176.99 C5.16 176.99 0.6 182.22 0.34 188.67 C0 197.02 5.16 200.36 11.1
							 200.36 C11.95 200.36 12.77 200.25 13.56 200.05 C14.8 201.02 16.41 201.62 18.17 201.62 C19.8 201.62 21.31
							 201.1 22.5 200.25 C24.78 204.96 29.49 208.26 34.91 207.88 C40.61 207.48 44.04 206.01 46.06 203.74 C46.18
							 203.72 46.3 203.72 46.43 203.7 C52.81 202.71 55.61 200.72 56.52 197.43 C56.68 197.43 56.86 197.44 57.03
							 197.44 C65.3 197.44 72 194.52 72 184.29 C72 178.61 67.87 173.8 62.12 171.97 Z" class="st1"/>
			</g>
			<g id="shape1739-4" v:mID="1739" v:groupContext="groupContent">
				<v:textBlock v:margins="rect(4,4,4,4)"/>
				<v:textRect cx="36" cy="199.711" width="49.69" height="32.0037"/>
				<text x="16.29" y="196.71" class="st2" v:langID="1033"><v:paragraph v:horizAlign="1"/><v:tabList/>Microsoft<v:newlineChar/><tspan
							x="25.43" dy="1.2em" class="st3">WAN</tspan></text>			</g>
		</g>
		<g id="group1546-7" transform="translate(388.761,-106.721)" v:mID="1546" v:groupContext="group">
			<v:custProps>
				<v:cp v:nameU="ShapeClass" v:lbl="ShapeClass" v:prompt="" v:type="0" v:format="" v:sortKey="" v:invis="true"
						v:ask="false" v:langID="1033" v:cal="0" v:val="VT4(Location)"/>
				<v:cp v:nameU="ShapeType" v:lbl="ShapeType" v:prompt="" v:type="0" v:format="" v:sortKey="" v:invis="true"
						v:ask="false" v:langID="1033" v:cal="0" v:val="VT4(Cloud)"/>
			</v:custProps>
			<v:userDefs>
				<v:ud v:nameU="visVersion" v:prompt="" v:val="VT0(15):26"/>
				<v:ud v:nameU="ShapeClass" v:prompt="" v:val="VT0(5):26"/>
				<v:ud v:nameU="SolSH" v:prompt="" v:val="VT15({BF0433D9-CD73-4EB5-8390-8653BE590246}):41"/>
				<v:ud v:nameU="visLegendShape" v:prompt="" v:val="VT0(2):26"/>
			</v:userDefs>
			<title>Cloud</title>
			<desc>Equinix AMS</desc>
			<g id="shape1547-8" v:mID="1547" v:groupContext="shape" transform="translate(0,-15.3606)">
				<title>Sheet.1547</title>
				<path d="M62.12 178.23 C61.73 174.83 58.64 172.17 54.84 172.17 C53.76 172.17 52.74 172.4 51.82 172.78 C50.03 169.43
							 46.33 166.99 39.39 167.18 C30.37 167.44 19.69 171.5 17.54 178.71 C14.97 179.2 13.31 180.59 12.32 182.45
							 C11.93 182.41 11.52 182.38 11.1 182.38 C5.16 182.38 0.6 186.72 0.34 192.05 C0 198.96 5.16 201.73 11.1
							 201.73 C11.95 201.73 12.77 201.63 13.56 201.46 C14.8 202.27 16.41 202.76 18.17 202.76 C19.8 202.76 21.31
							 202.34 22.5 201.63 C24.78 205.53 29.49 208.26 34.91 207.94 C40.61 207.61 44.04 206.4 46.06 204.52 C46.18
							 204.51 46.3 204.51 46.43 204.49 C52.81 203.67 55.61 202.02 56.52 199.3 C56.68 199.3 56.86 199.31 57.03
							 199.31 C65.3 199.31 72 196.89 72 188.43 C72 183.72 67.87 179.75 62.12 178.23 Z" class="st1"/>
			</g>
			<g id="shape1546-10" v:mID="1546" v:groupContext="groupContent">
				<v:textBlock v:margins="rect(4,4,4,4)"/>
				<v:textRect cx="36" cy="201.187" width="39.84" height="32.0037"/>
				<text x="21.22" y="198.19" class="st2" v:langID="1033"><v:paragraph v:horizAlign="1"/><v:tabList/>Equinix<v:newlineChar/><tspan
							x="26.53" dy="1.2em" class="st3">AMS</tspan></text>			</g>
		</g>
		<g id="group1551-13" transform="translate(81.6359,-45.6323)" v:mID="1551" v:groupContext="group">
			<title>Smart Virtual Network Box.4</title>
			<g id="shape1552-14" v:mID="1552" v:groupContext="shape" transform="translate(0,-4.90891)">
				<title>Virtual Network Box 1</title>
				<path d="M104.49 208.26 L0 208.26 L0 109.67 L112.96 109.67 L112.96 203.53" class="st4"/>
			</g>
			<g id="shape1553-17" v:mID="1553" v:groupContext="shape" transform="translate(104.862,-1.33129)">
				<title>Sheet.1553</title>
				<desc>Virtual Network</desc>
				<v:textBlock v:margins="rect(0,0,0,0)"/>
				<v:textRect cx="-49.7245" cy="212.698" width="125.32" height="7.15523"/>
				<path d="M0 204.69 L3.58 208.26 L4.01 207.8 L0.9 204.69 L4.01 201.58 L3.58 201.11 L0 204.69 ZM13.21 204.69 L9.63
							 201.11 L9.2 201.58 L12.3 204.69 L9.2 207.8 L9.63 208.26 L13.21 204.69 ZM9.83 204.69 a0.802481 0.802455
							 -180 1 0 -1.60496 0 a0.802481 0.802455 -180 1 0 1.60496 0 ZM4.21 205.49 C4.65 205.49 5.02 205.12 5.02
							 204.69 C5.02 204.22 4.65 203.88 4.21 203.88 C3.78 203.88 3.41 204.25 3.41 204.69 C3.41 205.12 3.74 205.49
							 4.21 205.49 ZM7.42 204.69 a0.802478 0.802458 -180 1 0 -1.60496 0 a0.802478 0.802458 -180 1 0 1.60496
							 0 Z" class="st5"/>
				<text x="-21.27" y="214.29" class="st6" v:langID="1033"><v:paragraph v:horizAlign="2"/><v:tabList/>Virtual Network</text>			</g>
		</g>
		<g id="shape1557-21" v:mID="1557" v:groupContext="shape" transform="translate(472.011,-60.624)">
			<title>Virtual Network Box</title>
			<path d="M0 208.26 L72 208.26 L72 121.25 L0 121.25 L0 208.26 Z" class="st7"/>
		</g>
		<g id="shape1558-23" v:mID="1558" v:groupContext="shape" transform="translate(445.011,-8.13231)">
			<title>Sheet.1558</title>
			<desc>On-Prem Data Center</desc>
			<v:textBlock v:margins="rect(4,4,4,4)"/>
			<v:textRect cx="58.5" cy="192.89" width="117.01" height="30.75"/>
			<rect x="0" y="177.515" width="117" height="30.75" class="st8"/>
			<text x="36.57" y="189.29" class="st9" v:langID="1033"><v:paragraph v:horizAlign="1"/><v:tabList/>On-Prem<v:newlineChar/><tspan
						x="29.27" dy="1.2em" class="st3">Data Center</tspan></text>		</g>
		<g id="shape1559-27" v:mID="1559" v:groupContext="shape" transform="translate(497.511,-96.2656)">
			<title>Server (generic)</title>
			<desc>On-Prem Server</desc>
			<v:textBlock v:margins="rect(0,0,0,0)" v:verticalAlign="0"/>
			<v:textRect cx="7.40395" cy="229.265" width="72" height="31.5"/>
			<path d="M13.5 177.51 L1.5 177.51 C0.67 177.51 0 178.17 0 178.98 L0 208.26 L15 208.26 L15 178.98 C15 178.17 14.33 177.51
						 13.5 177.51 ZM12.75 205.26 L2.25 205.26 L2.25 203.76 L12.75 203.76 L12.75 205.26 ZM12.75 202.26 L2.25 202.26
						 L2.25 200.76 L12.75 200.76 L12.75 202.26 ZM12.75 183.51 L2.25 183.51 L2.25 182.01 L12.75 182.01 L12.75 183.51
						 Z" class="st10"/>
			<text x="-21.78" y="220.26" class="st11" v:langID="1033"><v:paragraph v:spLine="-1" v:horizAlign="1"/><v:tabList/>On-Prem Server</text>		</g>
		<g id="shape1561-30" v:mID="1561" v:groupContext="shape" transform="translate(437.172,11.0875) rotate(89.8743)">
			<title>Sheet.1561</title>
			<path d="M0 208.26 L196.47 208.26" class="st12"/>
		</g>
		<g id="shape1562-33" v:mID="1562" v:groupContext="shape" transform="translate(29.2609,-0.632306)">
			<title>Sheet.1562</title>
			<desc>Azure West Europe</desc>
			<v:textBlock v:margins="rect(4,4,4,4)"/>
			<v:textRect cx="76" cy="198.265" width="152.01" height="20"/>
			<rect x="0" y="188.265" width="152" height="20" class="st8"/>
			<text x="4" y="201.87" class="st9" v:langID="1033"><v:paragraph/><v:tabList/>Azure West Europe</text>		</g>
		<g id="shape1564-36" v:mID="1564" v:groupContext="shape" transform="translate(673.526,11.5444) rotate(90)">
			<title>Sheet.1564</title>
			<path d="M0 208.26 L196.47 208.26" class="st12"/>
		</g>
		<g id="shape1565-39" v:mID="1565" v:groupContext="shape" transform="translate(336.261,-96.9316)">
			<title>ExpressRoute</title>
			<desc>ExpressRoute Equinix Amsterdam Metro</desc>
			<v:textBlock v:margins="rect(0,0,0,0)" v:verticalAlign="0"/>
			<v:textRect cx="19.0984" cy="225.695" width="72" height="31.5"/>
			<path d="M33.92 199.66 C33.27 199.66 32.66 199.81 32.11 200.06 L23 190.95 C23.25 190.4 23.4 189.79 23.4 189.14 C23.4
						 186.78 21.49 184.86 19.12 184.86 C16.76 184.86 14.84 186.78 14.84 189.14 C14.84 189.79 14.99 190.4 15.24
						 190.95 L6.09 200.11 C5.54 199.85 4.93 199.7 4.28 199.7 C1.92 199.7 0 201.62 0 203.98 C0 206.35 1.92 208.26
						 4.28 208.26 C6.12 208.26 7.69 207.1 8.29 205.47 L29.92 205.47 C30.54 207.08 32.09 208.22 33.92 208.22 C36.28
						 208.22 38.2 206.31 38.2 203.94 C38.2 201.58 36.28 199.66 33.92 199.66 ZM4.28 205.39 C3.51 205.39 2.88 204.76
						 2.88 203.98 C2.88 203.21 3.51 202.58 4.28 202.58 C5.05 202.58 5.68 203.21 5.68 203.98 C5.68 204.76 5.05
						 205.39 4.28 205.39 ZM19.12 187.74 C19.9 187.74 20.52 188.37 20.52 189.14 C20.52 189.92 19.89 190.55 19.12
						 190.55 C18.35 190.55 17.72 189.92 17.72 189.14 C17.72 188.37 18.35 187.74 19.12 187.74 ZM29.88 202.53 L8.3
						 202.53 C8.26 202.41 8.22 202.3 8.16 202.19 L17.33 193.03 C17.87 193.28 18.48 193.43 19.12 193.43 C19.76
						 193.43 20.37 193.28 20.92 193.03 L30.04 202.14 C29.98 202.27 29.92 202.4 29.88 202.53 ZM33.92 205.34 C33.14
						 205.34 32.51 204.71 32.51 203.94 C32.51 203.17 33.14 202.54 33.92 202.54 C34.69 202.54 35.32 203.17 35.32
						 203.94 C35.32 204.71 34.69 205.34 33.92 205.34 Z" class="st13"/>
			<text x="-5.67" y="218.04" class="st14" v:langID="1033"><v:paragraph v:horizAlign="1"/><v:tabList/>ExpressRoute<v:newlineChar/><tspan
						x="5.79" dy="1.2em" class="st3">Equinix<v:newlineChar/></tspan><tspan x="-14.84" dy="1.2em" class="st3">Amsterdam Metro</tspan></text>		</g>
		<g id="group1566-44" transform="translate(177.646,-85.4208)" v:mID="1566" v:groupContext="group">
			<title>Azure VPN Gateway</title>
			<desc>ER Gateway</desc>
			<g id="group1567-45" transform="translate(0.653846,-0.653846)" v:mID="1567" v:groupContext="group">
				<title>Sheet.1567</title>
				<g id="group1568-46" v:mID="1568" v:groupContext="group">
					<title>Sheet.1568</title>
					<g id="shape1569-47" v:mID="1569" v:groupContext="shape" transform="translate(13.0769,-7.19231)">
						<title>Sheet.1569</title>
						<rect x="0" y="204.342" width="3.26923" height="3.92308" class="st10"/>
					</g>
					<g id="shape1570-49" v:mID="1570" v:groupContext="shape" transform="translate(10.4615,0)">
						<title>Sheet.1570</title>
						<rect x="0" y="202.38" width="8.5" height="5.88462" class="st10"/>
					</g>
					<g id="shape1571-51" v:mID="1571" v:groupContext="shape" transform="translate(20.2692,-1.30769)">
						<title>Sheet.1571</title>
						<rect x="0" y="204.996" width="9.15385" height="3.26923" class="st10"/>
					</g>
					<g id="shape1572-53" v:mID="1572" v:groupContext="shape" transform="translate(1.45883E-13,-1.30769)">
						<title>Sheet.1572</title>
						<rect x="0" y="204.996" width="9.15385" height="3.26923" class="st10"/>
					</g>
				</g>
				<g id="shape1573-55" v:mID="1573" v:groupContext="shape" transform="translate(0.0653846,-12.4231)">
					<title>Sheet.1573</title>
					<path d="M25.83 187.67 L25.83 186.23 C25.83 183.35 24.78 180.67 22.95 178.78 C21.25 176.81 17.46 175.57 14.65
								 175.57 C11.83 175.57 8.04 176.81 6.34 178.78 C4.58 180.67 3.47 183.35 3.47 186.23 L3.47 187.67 C0.92
								 187.67 0 189.17 0 191.13 L0 204.8 C-0 206.5 1.05 208.26 3.01 208.26 L26.28 208.26 C28.51 208.26
								 29.29 206.5 29.29 204.8 L29.29 191.13 C29.29 189.37 28.57 187.67 25.83 187.67 ZM8.63 186.95 C8.63
								 185.25 9.22 183.09 10.2 181.98 C11.18 180.87 13.27 180.35 14.65 180.28 C16.02 180.28 18.11 180.87
								 19.09 181.98 C20.07 183.09 20.66 184.53 20.66 186.16 L20.66 187.6 L8.63 187.6 L8.63 186.95 ZM10.72
								 193.29 L14.52 189.5 L18.31 193.29 L15.63 193.29 L15.63 196.04 L13.34 196.04 L13.34 193.29 L10.72
								 193.29 ZM3.73 199.05 L3.73 196.82 L7.65 196.82 L7.65 194.21 L11.31 197.87 L7.65 201.53 L7.65 198.98
								 L3.73 198.98 L3.73 199.05 ZM14.52 206.43 L10.66 202.58 L13.34 202.58 L13.34 199.9 L15.63 199.9 L15.63
								 202.58 L18.37 202.58 L14.52 206.43 ZM25.3 199.05 L21.38 199.05 L21.38 201.66 L17.65 197.93 L21.38
								 194.21 L21.38 196.82 L25.3 196.82 L25.3 199.05 Z" class="st10"/>
				</g>
			</g>
			<g id="shape1566-57" v:mID="1566" v:groupContext="groupContent">
				<v:textBlock v:margins="rect(0,0,0,0)" v:verticalAlign="0"/>
				<v:textRect cx="15.3654" cy="236.803" width="49.5" height="46.4231"/>
				<text x="10.72" y="221.69" class="st14" v:langID="1033"><v:paragraph v:horizAlign="1"/><v:tabList/>ER<v:newlineChar/><tspan
							x="-0.78" dy="1.2em" class="st3">Gateway</tspan></text>			</g>
		</g>
		<g id="shape1632-60" v:mID="1632" v:groupContext="shape" transform="translate(228.908,-196.721)">
			<title>Sheet.1632</title>
			<path d="M0 208.26 L319.6 208.26" class="st12"/>
		</g>
		<g id="shape1650-63" v:mID="1650" v:groupContext="shape" transform="translate(26.5109,-0.632306)">
			<title>Sheet.1650</title>
			<path d="M0 208.26 L186.5 208.26 L186.5 16.5 L0 16.5 L0 208.26 Z" class="st15"/>
		</g>
		<g id="group1651-65" transform="translate(9.47019,-179.648)" v:mID="1651" v:groupContext="group">
			<title>Resource group</title>
			<desc>Student Resource Group</desc>
			<g id="group1652-66" transform="translate(0.653846,-0.457692)" v:mID="1652" v:groupContext="group">
				<title>Sheet.1652</title>
				<g id="shape1653-67" v:mID="1653" v:groupContext="shape" transform="translate(6.47308,-14.9077)">
					<title>Sheet.1653</title>
					<path d="M9.87 208.26 C9.81 208.26 9.81 208.26 9.74 208.2 L0.13 202.64 C0.07 202.58 0 202.51 0 202.38 C0 202.25
								 0.07 202.18 0.13 202.12 L9.68 196.63 C9.74 196.56 9.87 196.56 9.94 196.63 L19.55 202.18 C19.62 202.25
								 19.68 202.31 19.68 202.45 C19.68 202.58 19.62 202.64 19.55 202.71 L10 208.2 C9.94 208.26 9.94 208.26
								 9.87 208.26 Z" class="st10"/>
				</g>
				<g id="shape1654-69" v:mID="1654" v:groupContext="shape" transform="translate(5.1,-1.43846)">
					<title>Sheet.1654</title>
					<path d="M9.87 208.26 C9.81 208.26 9.74 208.26 9.74 208.2 L0.13 202.64 C0.07 202.58 0 202.51 0 202.38 L0 191.26
								 C0 191.13 0.07 191.07 0.13 191 C0.2 190.94 0.33 190.94 0.39 191 L10 196.56 C10.07 196.63 10.13 196.69
								 10.13 196.82 L10.13 207.94 C10.13 208.07 10.07 208.13 10 208.2 C9.94 208.26 9.87 208.26 9.87 208.26
								 Z" class="st10"/>
				</g>
				<g id="shape1655-71" v:mID="1655" v:groupContext="shape" transform="translate(17.3923,-1.43846)">
					<title>Sheet.1655</title>
					<path d="M0.26 208.26 C0.2 208.26 0.13 208.26 0.13 208.2 C0.07 208.13 0 208.07 0 207.94 L0 196.89 C-0 196.76
								 0.07 196.69 0.13 196.63 L9.74 191.07 C9.81 191 9.94 191 10 191.07 C10.07 191.13 10.13 191.2 10.13
								 191.33 L10.13 202.38 C10.13 202.51 10.07 202.58 10 202.64 L0.39 208.2 C0.39 208.26 0.33 208.26 0.26
								 208.26 Z" class="st10"/>
				</g>
				<g id="shape1656-73" v:mID="1656" v:groupContext="shape" transform="translate(1.63869E-13,-0.196154)">
					<title>Sheet.1656</title>
					<path d="M6.21 208.26 C6.08 208.26 5.88 208.2 5.75 208.13 L1.31 205.52 C0.52 205.06 0 204.15 0 203.3 L0 186.82
								 C0 185.97 0.52 184.99 1.31 184.6 L5.75 181.98 C6.21 181.72 6.8 181.85 7.06 182.31 C7.32 182.76 7.19
								 183.35 6.73 183.61 L2.29 186.23 C2.16 186.3 1.96 186.62 1.96 186.82 L1.96 203.3 C1.96 203.49 2.16
								 203.82 2.29 203.88 L6.73 206.5 C7.19 206.76 7.32 207.35 7.06 207.81 C6.87 208.07 6.54 208.26 6.21
								 208.26 Z" class="st10"/>
				</g>
				<g id="shape1657-75" v:mID="1657" v:groupContext="shape" transform="translate(25.3038,0)">
					<title>Sheet.1657</title>
					<path d="M1.11 181.72 C1.24 181.72 1.44 181.78 1.57 181.85 L6.02 184.46 C6.8 184.92 7.32 185.84 7.32 186.69 L7.32
								 203.16 C7.32 204.01 6.8 205 6.02 205.39 L1.57 208 C1.11 208.26 0.52 208.13 0.26 207.68 C0 207.22
								 0.13 206.63 0.59 206.37 L5.03 203.75 C5.17 203.69 5.36 203.36 5.36 203.16 L5.36 186.69 C5.36 186.49
								 5.17 186.16 5.03 186.1 L0.59 183.48 C0.13 183.22 0 182.63 0.26 182.18 C0.46 181.85 0.78 181.72 1.11
								 181.72 Z" class="st10"/>
				</g>
			</g>
			<g id="shape1651-77" v:mID="1651" v:groupContext="groupContent">
				<v:textBlock v:margins="rect(0,0,0,0)" v:verticalAlign="0"/>
				<v:textRect cx="16.6861" cy="226.898" width="52.32" height="27.9846"/>
				<rect v:rectContext="textBkgnd" x="-0.204323" y="212.905" width="33.7808" height="32.3995" class="st16"/>
				<text x="2.27" y="221.01" class="st17" v:langID="1033"><v:paragraph v:horizAlign="1"/><v:tabList/>Student <tspan
							x="-0.2" dy="1.2em" class="st3">Resource </tspan><tspan x="5.18" dy="1.2em" class="st3">Group</tspan></text>			</g>
		</g>
		<g id="group1682-82" transform="translate(64.5792,-161.25)" v:mID="1682" v:groupContext="group">
			<title>Key Vault</title>
			<desc>Key Vault</desc>
			<g id="shape1683-83" v:mID="1683" v:groupContext="shape">
				<title>Sheet.1683</title>
				<path d="M22.68 196.97 C22.68 193.28 20.91 190.04 18.23 187.96 C18.23 188.06 18.23 188.22 18.23 188.32 C18.23 189.43
							 17.92 190.49 17.47 191.41 C18.78 192.87 19.59 194.8 19.59 196.92 C19.59 201.48 15.9 205.18 11.34 205.18
							 C6.78 205.18 3.09 201.48 3.09 196.92 C3.09 194.65 4 192.62 5.47 191.1 C5.06 190.24 4.81 189.28 4.81
							 188.27 C4.81 188.06 4.81 187.81 4.86 187.61 C1.92 189.63 0 193.08 0 196.92 C-0 203.2 5.06 208.26 11.34
							 208.26 C17.62 208.26 22.68 203.25 22.68 196.97 Z" class="st10"/>
			</g>
			<g id="shape1684-85" v:mID="1684" v:groupContext="shape" transform="translate(6.27799,-5.31604)">
				<title>Sheet.1684</title>
				<path d="M5.21 188.32 C2.33 188.32 0 190.65 0 193.53 C-0 195.91 1.57 197.89 3.75 198.54 L3.75 203.71 L1.32 203.71
							 L1.32 206.34 L3.75 206.34 L3.75 208.26 L6.63 208.26 L6.63 198.54 C8.81 197.94 10.38 195.91 10.38 193.53
							 C10.43 190.65 8.1 188.32 5.21 188.32 ZM5.21 191.05 C6.58 191.05 7.7 192.16 7.7 193.53 C7.7 194.9 6.58
							 196.01 5.21 196.01 C3.85 196.01 2.73 194.9 2.73 193.53 C2.73 192.16 3.85 191.05 5.21 191.05 Z"
						class="st10"/>
			</g>
			<g id="shape1682-87" v:mID="1682" v:groupContext="groupContent">
				<v:textBlock v:margins="rect(0,0,0,0)" v:verticalAlign="0"/>
				<v:textRect cx="11.425" cy="224.481" width="47.18" height="25.2639"/>
				<text x="-5.82" y="219.95" class="st14" v:langID="1033"><v:paragraph v:horizAlign="1"/><v:tabList/>Key Vault</text>			</g>
		</g>
		<g id="shape1717-89" v:mID="1717" v:groupContext="shape" transform="translate(229.339,-0.250007)">
			<title>Sheet.1717</title>
			<path d="M0 208.26 L319.5 208.26" class="st12"/>
		</g>
		<g id="shape1736-92" v:mID="1736" v:groupContext="shape" transform="translate(756.776,11.1968) rotate(89.9044)">
			<title>Sheet.1736</title>
			<path d="M0 208.26 L196.47 208.26" class="st12"/>
		</g>
		<g id="shape1738-95" v:mID="1738" v:groupContext="shape" transform="translate(527.276,11.5564) rotate(90)">
			<title>Sheet.1738</title>
			<path d="M0 208.26 L196.46 208.26" class="st12"/>
		</g>
		<g id="shape1741-98" v:mID="1741" v:groupContext="shape" transform="translate(333.636,-5.50731)">
			<title>Sheet.1741</title>
			<desc>Service Provider Network</desc>
			<v:textBlock v:margins="rect(4,4,4,4)"/>
			<v:textRect cx="58.5" cy="192.89" width="117.01" height="30.75"/>
			<rect x="0" y="177.515" width="117" height="30.75" class="st8"/>
			<text x="19.03" y="189.29" class="st9" v:langID="1033"><v:paragraph v:horizAlign="1"/><v:tabList/>Service Provider<v:newlineChar/><tspan
						x="37.36" dy="1.2em" class="st3">Network</tspan></text>		</g>
		<g id="shape1742-102" v:mID="1742" v:groupContext="shape" transform="translate(229.011,-5.50731)">
			<title>Sheet.1742</title>
			<desc>Microsoft Backbone</desc>
			<v:textBlock v:margins="rect(4,4,4,4)"/>
			<v:textRect cx="49.5" cy="192.89" width="99.01" height="30.75"/>
			<rect x="0" y="177.515" width="99" height="30.75" class="st8"/>
			<text x="25.85" y="189.29" class="st9" v:langID="1033"><v:paragraph v:horizAlign="1"/><v:tabList/>Microsoft <tspan
						x="25.64" dy="1.2em" class="st3">Backbone</tspan></text>		</g>
		<g id="group1803-106" transform="translate(388.761,-41.1323)" v:mID="1803" v:groupContext="group">
			<v:custProps>
				<v:cp v:nameU="ShapeClass" v:lbl="ShapeClass" v:prompt="" v:type="0" v:format="" v:sortKey="" v:invis="true"
						v:ask="false" v:langID="1033" v:cal="0" v:val="VT4(Location)"/>
				<v:cp v:nameU="ShapeType" v:lbl="ShapeType" v:prompt="" v:type="0" v:format="" v:sortKey="" v:invis="true"
						v:ask="false" v:langID="1033" v:cal="0" v:val="VT4(Cloud)"/>
			</v:custProps>
			<v:userDefs>
				<v:ud v:nameU="visVersion" v:prompt="" v:val="VT0(15):26"/>
				<v:ud v:nameU="ShapeClass" v:prompt="" v:val="VT0(5):26"/>
				<v:ud v:nameU="SolSH" v:prompt="" v:val="VT15({BF0433D9-CD73-4EB5-8390-8653BE590246}):41"/>
				<v:ud v:nameU="visLegendShape" v:prompt="" v:val="VT0(2):26"/>
			</v:userDefs>
			<title>Cloud.1803</title>
			<desc>Equinix AMS2</desc>
			<g id="shape1804-107" v:mID="1804" v:groupContext="shape" transform="translate(0,-15.3606)">
				<title>Sheet.1804</title>
				<path d="M62.12 178.23 C61.73 174.83 58.64 172.17 54.84 172.17 C53.76 172.17 52.74 172.4 51.82 172.78 C50.03 169.43
							 46.33 166.99 39.39 167.18 C30.37 167.44 19.69 171.5 17.54 178.71 C14.97 179.2 13.31 180.59 12.32 182.45
							 C11.93 182.41 11.52 182.38 11.1 182.38 C5.16 182.38 0.6 186.72 0.34 192.05 C0 198.96 5.16 201.73 11.1
							 201.73 C11.95 201.73 12.77 201.63 13.56 201.46 C14.8 202.27 16.41 202.76 18.17 202.76 C19.8 202.76 21.31
							 202.34 22.5 201.63 C24.78 205.53 29.49 208.26 34.91 207.94 C40.61 207.61 44.04 206.4 46.06 204.52 C46.18
							 204.51 46.3 204.51 46.43 204.49 C52.81 203.67 55.61 202.02 56.52 199.3 C56.68 199.3 56.86 199.31 57.03
							 199.31 C65.3 199.31 72 196.89 72 188.43 C72 183.72 67.87 179.75 62.12 178.23 Z" class="st1"/>
			</g>
			<g id="shape1803-109" v:mID="1803" v:groupContext="groupContent">
				<v:textBlock v:margins="rect(4,4,4,4)"/>
				<v:textRect cx="36" cy="201.187" width="39.84" height="32.0037"/>
				<text x="21.22" y="198.19" class="st2" v:langID="1033"><v:paragraph v:horizAlign="1"/><v:tabList/>Equinix<v:newlineChar/><tspan
							x="24" dy="1.2em" class="st3">AMS2</tspan></text>			</g>
		</g>
		<g id="group1808-112" transform="translate(110.233,-95.1323)" v:mID="1808" v:groupContext="group">
			<title>Virtual Machine symbol only.122</title>
			<desc>VM</desc>
			<g id="shape1809-113" v:mID="1809" v:groupContext="shape">
				<title>Sheet.1809</title>
				<path d="M21.31 187.34 L1.23 187.34 C0.55 187.34 0 187.95 0 188.62 L0 202.62 C0 203.3 0.55 203.9 1.23 203.9 L8.11
							 203.9 C8.85 206.52 7.85 206.89 3.49 206.89 L3.49 208.26 L9.03 208.26 L13.09 208.26 L18.32 208.26 L18.32
							 206.89 C13.96 206.89 13.53 206.52 14.27 203.9 L21.31 203.9 C21.99 203.9 22.68 203.3 22.68 202.62 L22.68
							 188.62 C22.68 187.95 21.99 187.34 21.31 187.34 ZM20.94 189.08 L20.94 202.16 L1.74 202.16 L1.74 189.08
							 L20.99 189.05 L20.94 189.08 Z" class="st10"/>
			</g>
			<g id="group1810-115" transform="translate(7.24129,-8.39684)" v:mID="1810" v:groupContext="group">
				<title>Sheet.1810</title>
				<g id="group1811-116" transform="translate(0.359821,-4.61735)" v:mID="1811" v:groupContext="group">
					<title>Sheet.1811</title>
					<g id="shape1812-117" v:mID="1812" v:groupContext="shape">
						<title>Sheet.1812</title>
						<path d="M7.04 206.18 L3.52 204.15 L0 206.18 L0 206.23 L3.52 208.26 L7.04 206.23 L7.04 206.18 Z"
								class="st10"/>
					</g>
				</g>
				<g id="group1813-119" transform="translate(4.23753,5.68434E-14)" v:mID="1813" v:groupContext="group">
					<title>Sheet.1813</title>
					<g id="shape1814-120" v:mID="1814" v:groupContext="shape">
						<title>Sheet.1814</title>
						<path d="M0 204.25 L0 208.26 L3.52 206.23 L3.52 202.22 L0 204.25 Z" class="st10"/>
					</g>
				</g>
				<g id="group1815-122" v:mID="1815" v:groupContext="group">
					<title>Sheet.1815</title>
					<g id="shape1816-123" v:mID="1816" v:groupContext="shape">
						<title>Sheet.1816</title>
						<path d="M3.52 204.25 L0 202.22 L0 206.23 L3.52 208.26 L3.52 204.25 Z" class="st10"/>
					</g>
				</g>
			</g>
			<g id="shape1808-125" v:mID="1808" v:groupContext="groupContent">
				<v:textBlock v:margins="rect(0,0,0,0)" v:verticalAlign="0"/>
				<v:textRect cx="11.3409" cy="222.55" width="51.75" height="20.9291"/>
				<text x="4.94" y="220.19" class="st14" v:langID="1033"><v:paragraph v:horizAlign="1"/><v:tabList/>VM</text>			</g>
		</g>
		<g id="shape1817-127" v:mID="1817" v:groupContext="shape" transform="translate(336.261,-155.319)">
			<title>ExpressRoute.1817</title>
			<desc>ExpressRoute Equinix Amsterdam</desc>
			<v:textBlock v:margins="rect(0,0,0,0)" v:verticalAlign="0"/>
			<v:textRect cx="19.0984" cy="225.695" width="72" height="31.5"/>
			<path d="M33.92 199.66 C33.27 199.66 32.66 199.81 32.11 200.06 L23 190.95 C23.25 190.4 23.4 189.79 23.4 189.14 C23.4
						 186.78 21.49 184.86 19.12 184.86 C16.76 184.86 14.84 186.78 14.84 189.14 C14.84 189.79 14.99 190.4 15.24
						 190.95 L6.09 200.11 C5.54 199.85 4.93 199.7 4.28 199.7 C1.92 199.7 0 201.62 0 203.98 C0 206.35 1.92 208.26
						 4.28 208.26 C6.12 208.26 7.69 207.1 8.29 205.47 L29.92 205.47 C30.54 207.08 32.09 208.22 33.92 208.22 C36.28
						 208.22 38.2 206.31 38.2 203.94 C38.2 201.58 36.28 199.66 33.92 199.66 ZM4.28 205.39 C3.51 205.39 2.88 204.76
						 2.88 203.98 C2.88 203.21 3.51 202.58 4.28 202.58 C5.05 202.58 5.68 203.21 5.68 203.98 C5.68 204.76 5.05
						 205.39 4.28 205.39 ZM19.12 187.74 C19.9 187.74 20.52 188.37 20.52 189.14 C20.52 189.92 19.89 190.55 19.12
						 190.55 C18.35 190.55 17.72 189.92 17.72 189.14 C17.72 188.37 18.35 187.74 19.12 187.74 ZM29.88 202.53 L8.3
						 202.53 C8.26 202.41 8.22 202.3 8.16 202.19 L17.33 193.03 C17.87 193.28 18.48 193.43 19.12 193.43 C19.76
						 193.43 20.37 193.28 20.92 193.03 L30.04 202.14 C29.98 202.27 29.92 202.4 29.88 202.53 ZM33.92 205.34 C33.14
						 205.34 32.51 204.71 32.51 203.94 C32.51 203.17 33.14 202.54 33.92 202.54 C34.69 202.54 35.32 203.17 35.32
						 203.94 C35.32 204.71 34.69 205.34 33.92 205.34 Z" class="st10"/>
			<text x="-5.67" y="218.04" class="st14" v:langID="1033"><v:paragraph v:horizAlign="1"/><v:tabList/>ExpressRoute<v:newlineChar/><tspan
						x="-16.61" dy="1.2em" class="st3">Equinix Amsterdam</tspan></text>		</g>
		<g id="shape1818-131" v:mID="1818" v:groupContext="shape" v:layerMember="0" transform="translate(208.311,-108.562)">
			<title>Dynamic connector.1818</title>
			<path d="M0 208.26 L135.8 149.81" class="st18"/>
		</g>
		<g id="shape1820-134" v:mID="1820" v:groupContext="shape" v:layerMember="0" transform="translate(427.011,-149.132)">
			<title>Dynamic connector.1820</title>
			<path d="M0 208.26 L70.03 245.97" class="st18"/>
		</g>
		<g id="shape1821-137" v:mID="1821" v:groupContext="shape" v:layerMember="0" transform="translate(366.609,-167.076)">
			<title>Dynamic connector.1821</title>
			<path d="M0 208.32 L60.4 226.21" class="st18"/>
		</g>
	</g>
</svg>
